Inter-UI-Black.ufo
<glyph name="exclam" format="2">
  <advance width="960.0"/>
  <unicode hex="0021"/>
  <guideline x="52.0" y="1240.0" angle="0.0"/>
  <guideline x="52.0" y="764.0" angle="0.0"/>
  <guideline x="208.0"/>
  <guideline x="492.0" y="516.0" angle="90.0"/>
  <outline>
    <contour>
      <point x="760.0" y="2048.0" type="line"/>
      <point x="200.0" y="2048.0" type="line"/>
      <point x="252.0" y="640.0" type="line"/>
      <point x="708.0" y="640.0" type="line"/>
    </contour>
    <contour>
      <point x="480.0" y="-24.0" type="curve" smooth="yes"/>
      <point x="632.0" y="-24.0"/>
      <point x="756.0" y="89.0"/>
      <point x="756.0" y="228.0" type="curve" smooth="yes"/>
      <point x="756.0" y="367.0"/>
      <point x="632.0" y="480.0"/>
      <point x="480.0" y="480.0" type="curve" smooth="yes"/>
      <point x="328.0" y="480.0"/>
      <point x="204.0" y="367.0"/>
      <point x="204.0" y="228.0" type="curve" smooth="yes"/>
      <point x="204.0" y="89.0"/>
      <point x="328.0" y="-24.0"/>
    </contour>
  </outline>
</glyph>
<glyph name="numbersign" format="1">
  <advance width="1824"/>
  <unicode hex="0023"/>
  <outline>
    <contour>
      <point x="360" y="0" type="line"/>
      <point x="624" y="0" type="line"/>
      <point x="960" y="2004" type="line"/>
      <point x="696" y="2004" type="line"/>
    </contour>
    <contour>
      <point x="860" y="0" type="line"/>
      <point x="1128" y="0" type="line"/>
      <point x="1464" y="2004" type="line"/>
      <point x="1196" y="2004" type="line"/>
    </contour>
    <contour>
      <point x="1680" y="1180" type="line"/>
      <point x="1680" y="1432" type="line"/>
      <point x="248" y="1432" type="line"/>
      <point x="248" y="1180" type="line"/>
    </contour>
    <contour>
      <point x="1576" y="564" type="line"/>
      <point x="1576" y="816" type="line"/>
      <point x="144" y="816" type="line"/>
      <point x="144" y="564" type="line"/>
    </contour>
  </outline>
</glyph>
<glyph name="dollar" format="1">
  <advance width="1840"/>
  <unicode hex="0024"/>
  <outline>
    <contour>
      <point x="824" y="-256" type="line"/>
      <point x="1008" y="-256" type="line"/>
      <point x="1040" y="2304" type="line"/>
      <point x="856" y="2304" type="line"/>
    </contour>
    <component base="S" xOffset="24"/>
  </outline>
</glyph>
<glyph name="percent" format="2">
  <advance width="2336.0"/>
  <unicode hex="0025"/>
  <outline>
    <contour>
      <point x="1232.0" y="384.0" type="line" smooth="yes"/>
      <point x="1232.0" y="132.0"/>
      <point x="1388.0" y="-80.0"/>
      <point x="1680.0" y="-80.0" type="curve" smooth="yes"/>
      <point x="1968.0" y="-80.0"/>
      <point x="2128.0" y="132.0"/>
      <point x="2128.0" y="384.0" type="curve" smooth="yes"/>
      <point x="2128.0" y="492.0" type="line" smooth="yes"/>
      <point x="2128.0" y="744.0"/>
      <point x="1972.0" y="956.0"/>
      <point x="1680.0" y="956.0" type="curve" smooth="yes"/>
      <point x="1392.0" y="956.0"/>
      <point x="1232.0" y="744.0"/>
      <point x="1232.0" y="492.0" type="curve" smooth="yes"/>
    </contour>
    <contour>
      <point x="1536.0" y="492.0" type="line" smooth="yes"/>
      <point x="1536.0" y="584.0"/>
      <point x="1568.0" y="684.0"/>
      <point x="1680.0" y="684.0" type="curve" smooth="yes"/>
      <point x="1796.0" y="684.0"/>
      <point x="1824.0" y="584.0"/>
      <point x="1824.0" y="492.0" type="curve" smooth="yes"/>
      <point x="1824.0" y="384.0" type="line" smooth="yes"/>
      <point x="1824.0" y="292.0"/>
      <point x="1792.0" y="196.0"/>
      <point x="1680.0" y="196.0" type="curve" smooth="yes"/>
      <point x="1568.0" y="196.0"/>
      <point x="1536.0" y="292.0"/>
      <point x="1536.0" y="384.0" type="curve" smooth="yes"/>
    </contour>
    <contour>
      <point x="2072.0" y="2100.0" type="line"/>
      <point x="1716.0" y="2100.0" type="line"/>
      <point x="240.0" y="-52.0" type="line"/>
      <point x="596.0" y="-52.0" type="line"/>
    </contour>
    <contour>
      <point x="212.0" y="1556.0" type="line" smooth="yes"/>
      <point x="212.0" y="1304.0"/>
      <point x="368.0" y="1096.0"/>
      <point x="660.0" y="1096.0" type="curve" smooth="yes"/>
      <point x="948.0" y="1096.0"/>
      <point x="1108.0" y="1304.0"/>
      <point x="1108.0" y="1556.0" type="curve" smooth="yes"/>
      <point x="1108.0" y="1664.0" type="line" smooth="yes"/>
      <point x="1108.0" y="1916.0"/>
      <point x="952.0" y="2128.0"/>
      <point x="660.0" y="2128.0" type="curve" smooth="yes"/>
      <point x="372.0" y="2128.0"/>
      <point x="212.0" y="1916.0"/>
      <point x="212.0" y="1664.0" type="curve" smooth="yes"/>
    </contour>
    <contour>
      <point x="516.0" y="1664.0" type="line" smooth="yes"/>
      <point x="516.0" y="1756.0"/>
      <point x="548.0" y="1856.0"/>
      <point x="660.0" y="1856.0" type="curve" smooth="yes"/>
      <point x="776.0" y="1856.0"/>
      <point x="804.0" y="1756.0"/>
      <point x="804.0" y="1664.0" type="curve" smooth="yes"/>
      <point x="804.0" y="1556.0" type="line" smooth="yes"/>
      <point x="804.0" y="1464.0"/>
      <point x="772.0" y="1368.0"/>
      <point x="660.0" y="1368.0" type="curve" smooth="yes"/>
      <point x="548.0" y="1368.0"/>
      <point x="516.0" y="1464.0"/>
      <point x="516.0" y="1556.0" type="curve" smooth="yes"/>
    </contour>
  </outline>
</glyph>
<glyph name="ampersand" format="1">
  <advance width="2080"/>
  <unicode hex="0026"/>
  <outline>
    <contour>
      <point x="520" y="1076" type="line"/>
      <point x="308" y="924"/>
      <point x="164" y="788"/>
      <point x="164" y="552" type="curve"/>
      <point x="164" y="212"/>
      <point x="412" y="-28"/>
      <point x="816" y="-28" type="curve"/>
      <point x="1060" y="-28"/>
      <point x="1236" y="36"/>
      <point x="1420" y="176" type="curve" smooth="yes"/>
      <point x="1432" y="184"/>
      <point x="1460" y="204"/>
      <point x="1472" y="208" type="curve" smooth="yes"/>
      <point x="1712" y="400"/>
      <point x="1800" y="692"/>
      <point x="1800" y="1020" type="curve"/>
      <point x="1428" y="1020" type="line"/>
      <point x="1428" y="616"/>
      <point x="1140" y="336"/>
      <point x="844" y="336" type="curve" smooth="yes"/>
      <point x="712" y="336"/>
      <point x="608" y="436"/>
      <point x="608" y="580" type="curve"/>
      <point x="608" y="668"/>
      <point x="628" y="732"/>
      <point x="700" y="804" type="curve"/>
      <point x="1152" y="1132" type="line" smooth="yes"/>
      <point x="1304" y="1244"/>
      <point x="1416" y="1396"/>
      <point x="1416" y="1584" type="curve"/>
      <point x="1416" y="1852"/>
      <point x="1216" y="2076"/>
      <point x="900" y="2076" type="curve" smooth="yes"/>
      <point x="560" y="2076"/>
      <point x="340" y="1848"/>
      <point x="340" y="1524" type="curve" smooth="yes"/>
      <point x="340" y="1316"/>
      <point x="464" y="1136"/>
      <point x="656" y="892" type="curve" smooth="yes"/>
      <point x="1420" y="0" type="line"/>
      <point x="1920" y="0" type="line"/>
      <point x="976" y="1108" type="line"/>
      <point x="836" y="1280"/>
      <point x="724" y="1400"/>
      <point x="724" y="1528" type="curve" smooth="yes"/>
      <point x="724" y="1632"/>
      <point x="784" y="1708"/>
      <point x="896" y="1708" type="curve" smooth="yes"/>
      <point x="1000" y="1708"/>
      <point x="1060" y="1624"/>
      <point x="1060" y="1548" type="curve"/>
      <point x="1060" y="1488"/>
      <point x="1044" y="1420"/>
      <point x="928" y="1344" type="curve" smooth="yes"/>
    </contour>
  </outline>
</glyph>
<glyph name="quotesingle" format="2">
  <advance width="564.0"/>
  <unicode hex="0027"/>
  <guideline x="8.0" y="1240.0" angle="0.0"/>
  <guideline x="8.0" y="764.0" angle="0.0"/>
  <outline>
    <contour>
      <point x="460.0" y="2048.0" type="line"/>
      <point x="100.0" y="2048.0" type="line"/>
      <point x="100.0" y="1220.0" type="line"/>
      <point x="460.0" y="1220.0" type="line"/>
    </contour>
  </outline>
</glyph>
<glyph name="parenleft" format="2">
  <advance width="1072.0"/>
  <unicode hex="0028"/>
  <guideline x="1096.0" y="1640.0" angle="0.0"/>
  <guideline x="804.0" y="1752.0" angle="0.0"/>
  <guideline x="364.0" y="1692.0" angle="90.0"/>
  <guideline x="656.0" y="1584.0" angle="90.0"/>
  <outline>
    <contour>
      <point x="992.0" y="-384.0" type="line"/>
      <point x="756.0" y="24.0"/>
      <point x="656.0" y="404.0"/>
      <point x="656.0" y="832.0" type="curve" smooth="yes"/>
      <point x="656.0" y="1276.0"/>
      <point x="756.0" y="1640.0"/>
      <point x="996.0" y="2048.0" type="curve"/>
      <point x="632.0" y="2048.0" type="line"/>
      <point x="400.0" y="1752.0"/>
      <point x="236.0" y="1304.0"/>
      <point x="236.0" y="832.0" type="curve" smooth="yes"/>
      <point x="236.0" y="360.0"/>
      <point x="400.0" y="-88.0"/>
      <point x="628.0" y="-384.0" type="curve"/>
    </contour>
  </outline>
</glyph>
<glyph name="parenright" format="2">
  <advance width="1172.0"/>
  <unicode hex="0029"/>
  <guideline y="1238.875"/>
  <guideline y="763.125"/>
  <outline>
    <contour>
      <point x="80.0" y="-384.0" type="curve"/>
      <point x="500.0" y="-384.0" type="line"/>
      <point x="748.0" y="-88.0"/>
      <point x="928.0" y="356.0"/>
      <point x="928.0" y="832.0" type="curve" smooth="yes"/>
      <point x="928.0" y="1308.0"/>
      <point x="748.0" y="1752.0"/>
      <point x="504.0" y="2048.0" type="curve"/>
      <point x="76.0" y="2048.0" type="line"/>
      <point x="328.0" y="1640.0"/>
      <point x="432.0" y="1272.0"/>
      <point x="432.0" y="832.0" type="curve" smooth="yes"/>
      <point x="432.0" y="408.0"/>
      <point x="328.0" y="24.0"/>
    </contour>
  </outline>
</glyph>
<glyph name="asterisk" format="2">
  <advance width="1664.0"/>
  <unicode hex="002A"/>
  <note>
hexagonal angle: 30 deg
</note>
  <guideline y="1238.875"/>
  <guideline y="763.125"/>
  <guideline x="876.0" y="1752.0" angle="90.0"/>
  <guideline x="832.0" y="1472.0" angle="330.0"/>
  <guideline x="832.0" y="1472.0" angle="30.0"/>
  <guideline x="832.0" y="1472.0" angle="60.0"/>
  <guideline x="832.0" y="1472.0" angle="300.0"/>
  <outline>
    <contour>
      <point x="672.0" y="896.0" type="line"/>
      <point x="992.0" y="896.0" type="line"/>
      <point x="960.0" y="1248.0" type="line"/>
      <point x="1252.0" y="1044.0" type="line"/>
      <point x="1412.0" y="1324.0" type="line"/>
      <point x="1092.0" y="1472.0" type="line"/>
      <point x="1412.0" y="1620.0" type="line"/>
      <point x="1252.0" y="1900.0" type="line"/>
      <point x="960.0" y="1696.0" type="line"/>
      <point x="992.0" y="2048.0" type="line"/>
      <point x="672.0" y="2048.0" type="line"/>
      <point x="704.0" y="1696.0" type="line"/>
      <point x="412.0" y="1900.0" type="line"/>
      <point x="252.0" y="1620.0" type="line"/>
      <point x="572.0" y="1472.0" type="line"/>
      <point x="252.0" y="1324.0" type="line"/>
      <point x="412.0" y="1044.0" type="line"/>
      <point x="704.0" y="1248.0" type="line"/>
    </contour>
  </outline>
</glyph>
<glyph name="plus" format="2">
  <advance width="1952.0"/>
  <unicode hex="002B"/>
  <guideline x="408.0" y="832.0" angle="0.0"/>
  <outline>
    <contour>
      <point x="752.0" y="92.0" type="line"/>
      <point x="1200.0" y="92.0" type="line"/>
      <point x="1200.0" y="1572.0" type="line"/>
      <point x="752.0" y="1572.0" type="line"/>
    </contour>
    <contour>
      <point x="236.0" y="608.0" type="line"/>
      <point x="1716.0" y="608.0" type="line"/>
      <point x="1716.0" y="1056.0" type="line"/>
      <point x="236.0" y="1056.0" type="line"/>
    </contour>
  </outline>
</glyph>
<glyph name="comma" format="2">
  <advance width="800.0"/>
  <unicode hex="002C"/>
  <guideline y="1238.875"/>
  <guideline y="763.125"/>
  <anchor x="636.0" y="364.0" name="_bottom"/>
  <anchor x="328.0" y="48.0" name="_right"/>
  <outline>
    <contour>
      <point x="608.0" y="348.0" type="line"/>
      <point x="248.0" y="348.0" type="line"/>
      <point x="248.0" y="28.0" type="line"/>
      <point x="248.0" y="-188.0"/>
      <point x="164.0" y="-304.0"/>
      <point x="104.0" y="-428.0" type="curve"/>
      <point x="328.0" y="-540.0" type="line"/>
      <point x="488.0" y="-404.0"/>
      <point x="608.0" y="-168.0"/>
      <point x="608.0" y="56.0" type="curve"/>
    </contour>
  </outline>
</glyph>
<glyph name="hyphen" format="2">
  <advance width="1312.0"/>
  <unicode hex="002D"/>
  <outline>
    <contour>
      <point x="1168.0" y="1028.0" type="line"/>
      <point x="144.0" y="1028.0" type="line"/>
      <point x="144.0" y="700.0" type="line"/>
      <point x="1168.0" y="700.0" type="line"/>
    </contour>
  </outline>
</glyph>
<glyph name="period" format="2">
  <advance width="880.0"/>
  <unicode hex="002E"/>
  <guideline x="16.0" y="1240.0" angle="0.0"/>
  <guideline x="16.0" y="764.0" angle="0.0"/>
  <outline>
    <contour>
      <point x="440.0" y="-32.0" type="curve" smooth="yes"/>
      <point x="587.0" y="-32.0"/>
      <point x="718.0" y="92.0"/>
      <point x="720.0" y="248.0" type="curve" smooth="yes"/>
      <point x="718.0" y="400.0"/>
      <point x="587.0" y="524.0"/>
      <point x="440.0" y="524.0" type="curve" smooth="yes"/>
      <point x="285.0" y="524.0"/>
      <point x="158.0" y="400.0"/>
      <point x="160.0" y="248.0" type="curve" smooth="yes"/>
      <point x="158.0" y="92.0"/>
      <point x="285.0" y="-32.0"/>
    </contour>
  </outline>
</glyph>
<glyph name="slash" format="2">
  <advance width="1160.0"/>
  <unicode hex="002F"/>
  <guideline x="12.0" y="1240.0" angle="0.0"/>
  <guideline x="12.0" y="764.0" angle="0.0"/>
  <outline>
    <contour>
      <point x="1144.0" y="2144.0" type="line"/>
      <point x="676.0" y="2144.0" type="line"/>
      <point x="16.0" y="-308.0" type="line"/>
      <point x="484.0" y="-308.0" type="line"/>
    </contour>
  </outline>
</glyph>
<glyph name="zero" format="1">
  <advance width="1712"/>
  <unicode hex="0030"/>
  <outline>
    <contour>
      <point x="1584" y="1204" type="line" smooth="yes"/>
      <point x="1584" y="1776"/>
      <point x="1272" y="2076"/>
      <point x="856" y="2076" type="curve" smooth="yes"/>
      <point x="440" y="2076"/>
      <point x="128" y="1776"/>
      <point x="128" y="1204" type="curve" smooth="yes"/>
      <point x="128" y="864" type="line" smooth="yes"/>
      <point x="128" y="260"/>
      <point x="436" y="-28"/>
      <point x="856" y="-28" type="curve" smooth="yes"/>
      <point x="1272" y="-28"/>
      <point x="1584" y="260"/>
      <point x="1584" y="864" type="curve" smooth="yes"/>
    </contour>
    <contour>
      <point x="1132" y="804" type="line" smooth="yes"/>
      <point x="1132" y="464"/>
      <point x="1012" y="352"/>
      <point x="856" y="352" type="curve" smooth="yes"/>
      <point x="696" y="352"/>
      <point x="580" y="464"/>
      <point x="580" y="804" type="curve" smooth="yes"/>
      <point x="580" y="1264" type="line" smooth="yes"/>
      <point x="580" y="1572"/>
      <point x="696" y="1700"/>
      <point x="856" y="1700" type="curve" smooth="yes"/>
      <point x="1016" y="1700"/>
      <point x="1132" y="1572"/>
      <point x="1132" y="1264" type="curve" smooth="yes"/>
    </contour>
  </outline>
</glyph>
<glyph name="one" format="2">
  <advance width="1308.0"/>
  <unicode hex="0031"/>
  <guideline x="-44.0" y="1240.0" angle="0.0"/>
  <guideline x="-44.0" y="764.0" angle="0.0"/>
  <outline>
    <contour>
      <point x="1040.0" y="2048.0" type="line"/>
      <point x="540.0" y="2048.0" type="line"/>
      <point x="540.0" y="1854.0"/>
      <point x="345.0" y="1688.0"/>
      <point x="116.0" y="1688.0" type="curve"/>
      <point x="116.0" y="1252.0" type="line"/>
      <point x="337.0" y="1252.0"/>
      <point x="469.0" y="1329.0"/>
      <point x="524.0" y="1404.0" type="curve"/>
      <point x="544.0" y="1404.0" type="line"/>
      <point x="544.0" y="0.0" type="line"/>
      <point x="1040.0" y="0.0" type="line"/>
    </contour>
  </outline>
</glyph>
<glyph name="two" format="1">
  <advance width="1712"/>
  <unicode hex="0032"/>
  <outline>
    <contour>
      <point x="1560" y="384" type="line"/>
      <point x="852" y="384" type="line" smooth="yes"/>
      <point x="812" y="384"/>
      <point x="796" y="384"/>
      <point x="756" y="368" type="curve"/>
      <point x="748" y="388" type="line"/>
      <point x="788" y="404"/>
      <point x="800" y="412"/>
      <point x="828" y="440" type="curve" smooth="yes"/>
      <point x="1036" y="664" type="line" smooth="yes"/>
      <point x="1316" y="968"/>
      <point x="1504" y="1192"/>
      <point x="1504" y="1484" type="curve" smooth="yes"/>
      <point x="1504" y="1856"/>
      <point x="1272" y="2076"/>
      <point x="836" y="2076" type="curve" smooth="yes"/>
      <point x="412" y="2076"/>
      <point x="128" y="1764"/>
      <point x="128" y="1388" type="curve"/>
      <point x="572" y="1388" type="line"/>
      <point x="572" y="1568"/>
      <point x="668" y="1712"/>
      <point x="828" y="1712" type="curve" smooth="yes"/>
      <point x="976" y="1712"/>
      <point x="1060" y="1616"/>
      <point x="1060" y="1440" type="curve" smooth="yes"/>
      <point x="1060" y="1336"/>
      <point x="1004" y="1192"/>
      <point x="816" y="1000" type="curve" smooth="yes"/>
      <point x="152" y="336" type="line"/>
      <point x="152" y="0" type="line"/>
      <point x="1560" y="0" type="line"/>
    </contour>
  </outline>
</glyph>
<glyph name="three" format="2">
  <advance width="1696.0"/>
  <unicode hex="0033"/>
  <guideline y="2279.75"/>
  <guideline y="763.125"/>
  <outline>
    <contour>
      <point x="608.0" y="1216.0" type="line"/>
      <point x="608.0" y="968.0" type="line"/>
      <point x="900.0" y="968.0" type="line"/>
      <point x="1284.0" y="968.0"/>
      <point x="1536.0" y="1228.0"/>
      <point x="1536.0" y="1504.0" type="curve"/>
      <point x="1536.0" y="1876.0"/>
      <point x="1252.0" y="2076.0"/>
      <point x="832.0" y="2076.0" type="curve" smooth="yes"/>
      <point x="472.0" y="2076.0"/>
      <point x="164.0" y="1872.0"/>
      <point x="164.0" y="1532.0" type="curve"/>
      <point x="608.0" y="1532.0" type="line"/>
      <point x="608.0" y="1648.0"/>
      <point x="724.0" y="1716.0"/>
      <point x="848.0" y="1716.0" type="curve" smooth="yes"/>
      <point x="1016.0" y="1716.0"/>
      <point x="1096.0" y="1612.0"/>
      <point x="1096.0" y="1492.0" type="curve"/>
      <point x="1096.0" y="1336.0"/>
      <point x="1008.0" y="1216.0"/>
      <point x="828.0" y="1216.0" type="curve" smooth="yes"/>
    </contour>
    <contour>
      <point x="608.0" y="832.0" type="line"/>
      <point x="828.0" y="832.0" type="line" smooth="yes"/>
      <point x="1016.0" y="832.0"/>
      <point x="1128.0" y="776.0"/>
      <point x="1128.0" y="572.0" type="curve" smooth="yes"/>
      <point x="1128.0" y="436.0"/>
      <point x="1024.0" y="332.0"/>
      <point x="848.0" y="332.0" type="curve" smooth="yes"/>
      <point x="700.0" y="332.0"/>
      <point x="580.0" y="428.0"/>
      <point x="580.0" y="556.0" type="curve"/>
      <point x="136.0" y="556.0" type="line"/>
      <point x="136.0" y="148.0"/>
      <point x="500.0" y="-28.0"/>
      <point x="832.0" y="-28.0" type="curve" smooth="yes"/>
      <point x="1252.0" y="-28.0"/>
      <point x="1568.0" y="188.0"/>
      <point x="1568.0" y="564.0" type="curve" smooth="yes"/>
      <point x="1568.0" y="896.0"/>
      <point x="1312.0" y="1080.0"/>
      <point x="900.0" y="1080.0" type="curve" smooth="yes"/>
      <point x="608.0" y="1080.0" type="line"/>
    </contour>
  </outline>
</glyph>
<glyph name="four" format="2">
  <advance width="1932.0"/>
  <unicode hex="0034"/>
  <guideline x="92.0" y="320.0" angle="0.0"/>
  <guideline x="92.0" y="752.0" angle="0.0"/>
  <outline>
    <contour>
      <point x="104.0" y="320.0" type="line"/>
      <point x="1844.0" y="320.0" type="line"/>
      <point x="1844.0" y="752.0" type="line"/>
      <point x="652.0" y="752.0" type="line"/>
      <point x="652.0" y="768.0" type="line"/>
      <point x="1096.0" y="1472.0" type="line"/>
      <point x="1320.0" y="1472.0" type="line"/>
      <point x="1320.0" y="2048.0" type="line"/>
      <point x="928.0" y="2048.0" type="line"/>
      <point x="104.0" y="752.0" type="line"/>
    </contour>
    <contour>
      <point x="1112.0" y="0.0" type="line"/>
      <point x="1608.0" y="0.0" type="line"/>
      <point x="1608.0" y="2048.0" type="line"/>
      <point x="1112.0" y="2048.0" type="line"/>
    </contour>
  </outline>
</glyph>
<glyph name="five" format="1">
  <advance width="1712"/>
  <unicode hex="0035"/>
  <outline>
    <contour>
      <point x="556" y="916" type="line"/>
      <point x="596" y="964"/>
      <point x="668" y="1020"/>
      <point x="804" y="1020" type="curve" smooth="yes"/>
      <point x="1012" y="1020"/>
      <point x="1104" y="872"/>
      <point x="1104" y="676" type="curve" smooth="yes"/>
      <point x="1104" y="492"/>
      <point x="1044" y="332"/>
      <point x="852" y="332" type="curve" smooth="yes"/>
      <point x="708" y="332"/>
      <point x="616" y="424"/>
      <point x="604" y="568" type="curve"/>
      <point x="160" y="568" type="line"/>
      <point x="160" y="200"/>
      <point x="504" y="-28"/>
      <point x="856" y="-28" type="curve" smooth="yes"/>
      <point x="1328" y="-28"/>
      <point x="1544" y="300"/>
      <point x="1544" y="644" type="curve" smooth="yes"/>
      <point x="1544" y="1076"/>
      <point x="1284" y="1340"/>
      <point x="948" y="1340" type="curve" smooth="yes"/>
      <point x="772" y="1340"/>
      <point x="680" y="1276"/>
      <point x="644" y="1224" type="curve"/>
      <point x="636" y="1224" type="line"/>
      <point x="684" y="1664" type="line"/>
      <point x="1480" y="1664" type="line"/>
      <point x="1480" y="2048" type="line"/>
      <point x="324" y="2048" type="line"/>
      <point x="204" y="1004" type="line"/>
    </contour>
  </outline>
</glyph>
<glyph name="six" format="2">
  <advance width="1908.0"/>
  <unicode hex="0036"/>
  <guideline x="1488.0" y="1368.0" angle="0.0"/>
  <guideline x="1632.0" y="1316.0" angle="90.0"/>
  <guideline x="108.0" y="1316.0" angle="90.0"/>
  <guideline x="308.0" y="1436.0" angle="0.0"/>
  <guideline x="988.0" y="576.0" angle="90.0"/>
  <outline>
    <contour>
      <point x="984.0" y="-28.0" type="curve" smooth="yes"/>
      <point x="1466.0" y="-28.0"/>
      <point x="1804.0" y="263.0"/>
      <point x="1804.0" y="704.0" type="curve" smooth="yes"/>
      <point x="1804.0" y="1079.0"/>
      <point x="1553.0" y="1352.0"/>
      <point x="1184.0" y="1352.0" type="curve" smooth="yes"/>
      <point x="948.0" y="1352.0"/>
      <point x="736.0" y="1240.0"/>
      <point x="660.0" y="1052.0" type="curve"/>
      <point x="648.0" y="1052.0" type="line"/>
      <point x="648.0" y="1391.0"/>
      <point x="752.0" y="1612.0"/>
      <point x="988.0" y="1612.0" type="curve" smooth="yes"/>
      <point x="1103.0" y="1612.0"/>
      <point x="1205.0" y="1560.0"/>
      <point x="1232.0" y="1436.0" type="curve"/>
      <point x="1780.0" y="1436.0" type="line"/>
      <point x="1743.0" y="1794.0"/>
      <point x="1438.0" y="2084.0"/>
      <point x="988.0" y="2084.0" type="curve" smooth="yes"/>
      <point x="449.0" y="2084.0"/>
      <point x="96.0" y="1672.0"/>
      <point x="96.0" y="1000.0" type="curve" smooth="yes"/>
      <point x="96.0" y="256.0"/>
      <point x="504.0" y="-28.0"/>
    </contour>
    <contour>
      <point x="980.0" y="392.0" type="curve" smooth="yes"/>
      <point x="816.0" y="392.0"/>
      <point x="696.0" y="515.0"/>
      <point x="696.0" y="684.0" type="curve" smooth="yes"/>
      <point x="696.0" y="853.0"/>
      <point x="816.0" y="976.0"/>
      <point x="980.0" y="976.0" type="curve" smooth="yes"/>
      <point x="1144.0" y="976.0"/>
      <point x="1264.0" y="853.0"/>
      <point x="1264.0" y="684.0" type="curve" smooth="yes"/>
      <point x="1264.0" y="515.0"/>
      <point x="1144.0" y="392.0"/>
    </contour>
  </outline>
</glyph>
<glyph name="seven" format="2">
  <advance width="1700.0"/>
  <unicode hex="0037"/>
  <outline>
    <contour>
      <point x="224.0" y="0.0" type="line"/>
      <point x="792.0" y="0.0" type="line"/>
      <point x="1600.0" y="1604.0" type="line"/>
      <point x="1600.0" y="2048.0" type="line"/>
      <point x="80.0" y="2048.0" type="line"/>
      <point x="80.0" y="1604.0" type="line"/>
      <point x="1028.0" y="1604.0" type="line"/>
      <point x="1028.0" y="1592.0" type="line"/>
    </contour>
  </outline>
</glyph>
<glyph name="eight" format="2">
  <advance width="1672.0"/>
  <unicode hex="0038"/>
  <guideline y="1238.875"/>
  <guideline y="763.125"/>
  <outline>
    <contour>
      <point x="1528.0" y="564.0" type="curve" smooth="yes"/>
      <point x="1528.0" y="920.0"/>
      <point x="1236.0" y="1136.0"/>
      <point x="836.0" y="1136.0" type="curve" smooth="yes"/>
      <point x="444.0" y="1136.0"/>
      <point x="144.0" y="920.0"/>
      <point x="144.0" y="564.0" type="curve" smooth="yes"/>
      <point x="144.0" y="172.0"/>
      <point x="444.0" y="-28.0"/>
      <point x="840.0" y="-28.0" type="curve" smooth="yes"/>
      <point x="1236.0" y="-28.0"/>
      <point x="1528.0" y="172.0"/>
    </contour>
    <contour>
      <point x="1084.0" y="600.0" type="curve" smooth="yes"/>
      <point x="1084.0" y="436.0"/>
      <point x="988.0" y="340.0"/>
      <point x="840.0" y="340.0" type="curve" smooth="yes"/>
      <point x="692.0" y="340.0"/>
      <point x="588.0" y="436.0"/>
      <point x="588.0" y="600.0" type="curve" smooth="yes"/>
      <point x="588.0" y="768.0"/>
      <point x="692.0" y="868.0"/>
      <point x="836.0" y="868.0" type="curve" smooth="yes"/>
      <point x="984.0" y="868.0"/>
      <point x="1084.0" y="768.0"/>
    </contour>
    <contour>
      <point x="1488.0" y="1500.0" type="curve" smooth="yes"/>
      <point x="1488.0" y="1876.0"/>
      <point x="1220.0" y="2076.0"/>
      <point x="836.0" y="2076.0" type="curve" smooth="yes"/>
      <point x="460.0" y="2076.0"/>
      <point x="188.0" y="1876.0"/>
      <point x="188.0" y="1500.0" type="curve" smooth="yes"/>
      <point x="188.0" y="1180.0"/>
      <point x="460.0" y="964.0"/>
      <point x="840.0" y="964.0" type="curve" smooth="yes"/>
      <point x="1220.0" y="964.0"/>
      <point x="1488.0" y="1180.0"/>
    </contour>
    <contour>
      <point x="1044.0" y="1476.0" type="curve" smooth="yes"/>
      <point x="1044.0" y="1328.0"/>
      <point x="976.0" y="1232.0"/>
      <point x="840.0" y="1232.0" type="curve" smooth="yes"/>
      <point x="704.0" y="1232.0"/>
      <point x="632.0" y="1328.0"/>
      <point x="632.0" y="1476.0" type="curve" smooth="yes"/>
      <point x="632.0" y="1624.0"/>
      <point x="704.0" y="1708.0"/>
      <point x="836.0" y="1708.0" type="curve" smooth="yes"/>
      <point x="972.0" y="1708.0"/>
      <point x="1044.0" y="1620.0"/>
    </contour>
  </outline>
</glyph>
<glyph name="nine" format="1">
  <advance width="1708"/>
  <unicode hex="0039"/>
  <outline>
    <contour>
      <point x="592" y="544" type="curve"/>
      <point x="160" y="544" type="line"/>
      <point x="228" y="192"/>
      <point x="452" y="-36"/>
      <point x="852" y="-36" type="curve" smooth="yes"/>
      <point x="1420" y="-36"/>
      <point x="1564" y="412"/>
      <point x="1564" y="1100" type="curve" smooth="yes"/>
      <point x="1564" y="1180" type="line" smooth="yes"/>
      <point x="1564" y="1756"/>
      <point x="1260" y="2076"/>
      <point x="836" y="2076" type="curve" smooth="yes"/>
      <point x="428" y="2076"/>
      <point x="144" y="1780"/>
      <point x="144" y="1384" type="curve" smooth="yes"/>
      <point x="144" y="1016"/>
      <point x="388" y="696"/>
      <point x="768" y="696" type="curve" smooth="yes"/>
      <point x="1128" y="696"/>
      <point x="1264" y="980"/>
      <point x="1264" y="1200" type="curve"/>
      <point x="1148" y="1312" type="line"/>
      <point x="1148" y="1176"/>
      <point x="1044" y="1052"/>
      <point x="872" y="1052" type="curve" smooth="yes"/>
      <point x="696" y="1052"/>
      <point x="588" y="1184"/>
      <point x="588" y="1384" type="curve" smooth="yes"/>
      <point x="588" y="1584"/>
      <point x="696" y="1716"/>
      <point x="860" y="1716" type="curve" smooth="yes"/>
      <point x="1016" y="1716"/>
      <point x="1148" y="1596"/>
      <point x="1148" y="1336" type="curve" smooth="yes"/>
      <point x="1148" y="988" type="line" smooth="yes"/>
      <point x="1148" y="516"/>
      <point x="1052" y="332"/>
      <point x="844" y="332" type="curve" smooth="yes"/>
      <point x="708" y="332"/>
      <point x="624" y="412"/>
    </contour>
  </outline>
</glyph>
<glyph name="less" format="2">
  <advance width="1312.0"/>
  <unicode hex="003C"/>
  <guideline y="1238.875"/>
  <guideline x="256.0" y="896.0" angle="0.0"/>
  <guideline x="1036.0" y="1620.0" angle="90.0"/>
  <outline>
    <contour>
      <point x="1172.0" y="416.0" type="line"/>
      <point x="640.0" y="892.0" type="line"/>
      <point x="640.0" y="900.0" type="line"/>
      <point x="1172.0" y="1376.0" type="line"/>
      <point x="908.0" y="1620.0" type="line"/>
      <point x="104.0" y="896.0" type="line"/>
      <point x="908.0" y="172.0" type="line"/>
    </contour>
  </outline>
</glyph>
<glyph name="equal" format="2">
  <advance width="1568.0"/>
  <unicode hex="003D"/>
  <guideline x="532.0" y="896.0" angle="0.0"/>
  <outline>
    <contour>
      <point x="208.0" y="748.0" type="line"/>
      <point x="208.0" y="396.0" type="line"/>
      <point x="1360.0" y="396.0" type="line"/>
      <point x="1360.0" y="748.0" type="line"/>
    </contour>
    <contour>
      <point x="208.0" y="1396.0" type="line"/>
      <point x="208.0" y="1044.0" type="line"/>
      <point x="1360.0" y="1044.0" type="line"/>
      <point x="1360.0" y="1396.0" type="line"/>
    </contour>
  </outline>
</glyph>
<glyph name="greater" format="2">
  <advance width="1384.0"/>
  <unicode hex="003E"/>
  <guideline y="248.875"/>
  <guideline x="1456.0" y="896.0" angle="0.0"/>
  <outline>
    <contour>
      <point x="400.0" y="172.0" type="line"/>
      <point x="1244.0" y="896.0" type="line"/>
      <point x="400.0" y="1620.0" type="line"/>
      <point x="88.0" y="1340.0" type="line"/>
      <point x="616.0" y="900.0" type="line"/>
      <point x="616.0" y="892.0" type="line"/>
      <point x="88.0" y="452.0" type="line"/>
    </contour>
  </outline>
</glyph>
<glyph name="question" format="2">
  <advance width="1688.0"/>
  <unicode hex="003F"/>
  <guideline x="-28.0" y="2352.0" angle="0.0"/>
  <guideline x="-28.0" y="836.0" angle="0.0"/>
  <guideline x="432.0"/>
  <outline>
    <contour>
      <point x="544.0" y="640.0" type="curve"/>
      <point x="1016.0" y="640.0" type="line"/>
      <point x="1016.0" y="864.0"/>
      <point x="1080.0" y="915.0"/>
      <point x="1268.0" y="1032.0" type="curve" smooth="yes"/>
      <point x="1457.0" y="1150.0"/>
      <point x="1564.0" y="1298.0"/>
      <point x="1564.0" y="1512.0" type="curve" smooth="yes"/>
      <point x="1564.0" y="1888.0"/>
      <point x="1247.0" y="2076.0"/>
      <point x="820.0" y="2076.0" type="curve" smooth="yes"/>
      <point x="431.0" y="2076.0"/>
      <point x="108.0" y="1892.0"/>
      <point x="104.0" y="1452.0" type="curve"/>
      <point x="616.0" y="1452.0" type="line"/>
      <point x="616.0" y="1567.0"/>
      <point x="708.0" y="1648.0"/>
      <point x="816.0" y="1648.0" type="curve" smooth="yes"/>
      <point x="916.0" y="1648.0"/>
      <point x="996.0" y="1580.0"/>
      <point x="996.0" y="1480.0" type="curve" smooth="yes"/>
      <point x="996.0" y="1375.0"/>
      <point x="913.0" y="1309.0"/>
      <point x="772.0" y="1220.0" type="curve" smooth="yes"/>
      <point x="591.0" y="1105.0"/>
      <point x="512.0" y="952.0"/>
    </contour>
    <component base="period" xOffset="348.0"/>
  </outline>
</glyph>
<glyph name="at" format="1">
  <advance width="2864"/>
  <unicode hex="0040"/>
  <outline>
    <contour>
      <point x="1408" y="1100" type="curve" smooth="yes"/>
      <point x="1604" y="1104"/>
      <point x="1760" y="1024"/>
      <point x="1760" y="748" type="curve" smooth="yes"/>
      <point x="1760" y="476"/>
      <point x="1624" y="336"/>
      <point x="1400" y="336" type="curve" smooth="yes"/>
      <point x="1176" y="336"/>
      <point x="1116" y="500"/>
      <point x="1120" y="748" type="curve" smooth="yes"/>
      <point x="1120" y="952"/>
      <point x="1232" y="1100"/>
    </contour>
    <contour>
      <point x="1480" y="2052" type="curve" smooth="yes"/>
      <point x="660" y="2052"/>
      <point x="168" y="1492"/>
      <point x="168" y="724" type="curve" smooth="yes"/>
      <point x="168" y="-136"/>
      <point x="640" y="-600"/>
      <point x="1508" y="-600" type="curve" smooth="yes"/>
      <point x="1772" y="-600"/>
      <point x="2068" y="-524"/>
      <point x="2172" y="-456" type="curve"/>
      <point x="2064" y="-148" type="line"/>
      <point x="1944" y="-196"/>
      <point x="1724" y="-248"/>
      <point x="1516" y="-248" type="curve" smooth="yes"/>
      <point x="884" y="-248"/>
      <point x="548" y="88"/>
      <point x="548" y="716" type="curve" smooth="yes"/>
      <point x="548" y="1268"/>
      <point x="888" y="1704"/>
      <point x="1468" y="1704" type="curve" smooth="yes"/>
      <point x="2048" y="1704"/>
      <point x="2392" y="1516"/>
      <point x="2392" y="888" type="curve" smooth="yes"/>
      <point x="2392" y="460"/>
      <point x="2288" y="320"/>
      <point x="2172" y="320" type="curve" smooth="yes"/>
      <point x="2148" y="320"/>
      <point x="2112" y="308"/>
      <point x="2112" y="376" type="curve" smooth="yes"/>
      <point x="2112" y="1424" type="line"/>
      <point x="1784" y="1424" type="line"/>
      <point x="1784" y="1312" type="line"/>
      <point x="1772" y="1312" type="line"/>
      <point x="1736" y="1400"/>
      <point x="1516" y="1484"/>
      <point x="1296" y="1448" type="curve" smooth="yes"/>
      <point x="1056" y="1408"/>
      <point x="752" y="1192"/>
      <point x="752" y="736" type="curve" smooth="yes"/>
      <point x="752" y="228"/>
      <point x="996" y="4"/>
      <point x="1332" y="-28" type="curve" smooth="yes"/>
      <point x="1500" y="-44"/>
      <point x="1760" y="40"/>
      <point x="1812" y="172" type="curve"/>
      <point x="1824" y="172" type="line"/>
      <point x="1852" y="-40"/>
      <point x="1968" y="-40"/>
      <point x="2148" y="-40" type="curve" smooth="yes"/>
      <point x="2560" y="-40"/>
      <point x="2756" y="320"/>
      <point x="2756" y="884" type="curve" smooth="yes"/>
      <point x="2756" y="1552"/>
      <point x="2284" y="2052"/>
    </contour>
  </outline>
</glyph>
<glyph name="A" format="2">
  <advance width="2360.0"/>
  <unicode hex="0041"/>
  <guideline y="1894.75"/>
  <guideline x="1084.0" y="964.0" angle="90.0"/>
  <anchor x="1180.0" y="16.0" name="bottom"/>
  <anchor x="2104.0" y="-560.0" name="bottom_dd"/>
  <anchor x="2236.0" y="0.0" name="ogonek"/>
  <anchor x="2272.0" y="0.0" name="right"/>
  <anchor x="672.0" y="2048.0" name="tonos"/>
  <anchor x="1180.0" y="2180.0" name="top"/>
  <anchor x="2264.0" y="2200.0" name="top0315"/>
  <anchor x="2264.0" y="2200.0" name="top_dd"/>
  <outline>
    <contour>
      <point x="1828.0" y="752.0" type="line"/>
      <point x="532.0" y="752.0" type="line"/>
      <point x="532.0" y="320.0" type="line"/>
      <point x="1828.0" y="320.0" type="line"/>
    </contour>
    <contour>
      <point x="688.0" y="0.0" type="line"/>
      <point x="1168.0" y="1364.0" type="line"/>
      <point x="1192.0" y="1364.0" type="line"/>
      <point x="1672.0" y="0.0" type="line"/>
      <point x="2272.0" y="0.0" type="line"/>
      <point x="1480.0" y="2048.0" type="line"/>
      <point x="884.0" y="2048.0" type="line"/>
      <point x="88.0" y="0.0" type="line"/>
    </contour>
  </outline>
</glyph>
<glyph name="B" format="2">
  <advance width="1784.0"/>
  <unicode hex="0042"/>
  <guideline x="764.0" y="716.0" angle="90.0"/>
  <anchor x="892.0" y="0.0" name="bottom"/>
  <anchor x="1920.0" y="-560.0" name="bottom_dd"/>
  <anchor x="376.0" y="632.0" name="cross"/>
  <anchor x="876.0" y="2260.0" name="top"/>
  <anchor x="1920.0" y="2260.0" name="top0315"/>
  <anchor x="1920.0" y="2244.0" name="top_dd"/>
  <outline>
    <contour>
      <point x="964.0" y="876.0" type="line"/>
      <point x="1096.0" y="1040.0" type="line"/>
      <point x="1488.0" y="1044.0"/>
      <point x="1648.0" y="1220.0"/>
      <point x="1648.0" y="1488.0" type="curve"/>
      <point x="1648.0" y="1816.0"/>
      <point x="1408.0" y="2048.0"/>
      <point x="912.0" y="2048.0" type="curve"/>
      <point x="144.0" y="2048.0" type="line"/>
      <point x="144.0" y="0.0" type="line"/>
      <point x="608.0" y="0.0" type="line"/>
      <point x="608.0" y="1664.0" type="line"/>
      <point x="900.0" y="1664.0" type="line"/>
      <point x="1128.0" y="1664.0"/>
      <point x="1188.0" y="1548.0"/>
      <point x="1188.0" y="1424.0" type="curve"/>
      <point x="1188.0" y="1268.0"/>
      <point x="1096.0" y="1196.0"/>
      <point x="872.0" y="1196.0" type="curve"/>
      <point x="436.0" y="1196.0" type="line"/>
      <point x="436.0" y="876.0" type="line"/>
    </contour>
    <contour>
      <point x="984.0" y="0.0" type="line"/>
      <point x="1440.0" y="0.0"/>
      <point x="1688.0" y="224.0"/>
      <point x="1688.0" y="556.0" type="curve" smooth="yes"/>
      <point x="1688.0" y="820.0"/>
      <point x="1532.0" y="1012.0"/>
      <point x="1288.0" y="1044.0" type="curve"/>
      <point x="1288.0" y="1196.0" type="line"/>
      <point x="548.0" y="1196.0" type="line"/>
      <point x="548.0" y="876.0" type="line"/>
      <point x="964.0" y="876.0" type="line" smooth="yes"/>
      <point x="1156.0" y="876.0"/>
      <point x="1232.0" y="760.0"/>
      <point x="1232.0" y="620.0" type="curve" smooth="yes"/>
      <point x="1232.0" y="472.0"/>
      <point x="1148.0" y="384.0"/>
      <point x="948.0" y="384.0" type="curve" smooth="yes"/>
      <point x="380.0" y="384.0" type="line"/>
      <point x="380.0" y="0.0" type="line"/>
    </contour>
  </outline>
</glyph>
<glyph name="C" format="1">
  <advance width="1876"/>
  <unicode hex="0043"/>
  <outline>
    <contour>
      <point x="1324" y="696" type="line"/>
      <point x="1300" y="564"/>
      <point x="1244" y="360"/>
      <point x="988" y="360" type="curve" smooth="yes"/>
      <point x="720" y="360"/>
      <point x="588" y="584"/>
      <point x="588" y="1028" type="curve"/>
      <point x="588" y="1468"/>
      <point x="720" y="1688"/>
      <point x="988" y="1688" type="curve" smooth="yes"/>
      <point x="1244" y="1688"/>
      <point x="1304" y="1488"/>
      <point x="1328" y="1340" type="curve"/>
      <point x="1776" y="1404" type="line"/>
      <point x="1720" y="1796"/>
      <point x="1448" y="2076"/>
      <point x="960" y="2076" type="curve" smooth="yes"/>
      <point x="452" y="2076"/>
      <point x="120" y="1692"/>
      <point x="120" y="1028" type="curve"/>
      <point x="120" y="352"/>
      <point x="436" y="-28"/>
      <point x="964" y="-28" type="curve" smooth="yes"/>
      <point x="1432" y="-28"/>
      <point x="1728" y="240"/>
      <point x="1780" y="632" type="curve"/>
    </contour>
    <contour>
      <point x="1004" y="2200" type="move" name="top"/>
    </contour>
    <contour>
      <point x="1000" y="0" type="move" name="bottom"/>
    </contour>
    <contour>
      <point x="1900" y="2200" type="move" name="top_dd"/>
    </contour>
    <contour>
      <point x="1900" y="-560" type="move" name="bottom_dd"/>
    </contour>
    <contour>
      <point x="1900" y="2200" type="move" name="top0315"/>
    </contour>
  </outline>
</glyph>
<glyph name="D" format="1">
  <advance width="1960"/>
  <unicode hex="0044"/>
  <outline>
    <contour>
      <point x="844" y="0" type="line"/>
      <point x="1452" y="0"/>
      <point x="1816" y="384"/>
      <point x="1816" y="1024" type="curve"/>
      <point x="1816" y="1664"/>
      <point x="1452" y="2048"/>
      <point x="844" y="2048" type="curve"/>
      <point x="344" y="2048" type="line"/>
      <point x="344" y="1648" type="line"/>
      <point x="820" y="1648" type="line"/>
      <point x="1172" y="1648"/>
      <point x="1344" y="1472"/>
      <point x="1344" y="1024" type="curve"/>
      <point x="1344" y="576"/>
      <point x="1172" y="400"/>
      <point x="824" y="400" type="curve"/>
      <point x="352" y="400" type="line"/>
      <point x="352" y="0" type="line"/>
    </contour>
    <contour>
      <point x="616" y="2048" type="line"/>
      <point x="152" y="2048" type="line"/>
      <point x="152" y="0" type="line"/>
      <point x="616" y="0" type="line"/>
    </contour>
    <contour>
      <point x="792" y="2200" type="move" name="top"/>
    </contour>
    <contour>
      <point x="560" y="1000" type="move" name="cross"/>
    </contour>
    <contour>
      <point x="792" y="16" type="move" name="bottom"/>
    </contour>
    <contour>
      <point x="1932" y="2200" type="move" name="top_dd"/>
    </contour>
    <contour>
      <point x="1932" y="-560" type="move" name="bottom_dd"/>
    </contour>
    <contour>
      <point x="1932" y="2200" type="move" name="top0315"/>
    </contour>
  </outline>
</glyph>
<glyph name="E" format="2">
  <advance width="1656.0"/>
  <unicode hex="0045"/>
  <guideline y="1358.5"/>
  <guideline x="924.0" y="620.0" angle="90.0"/>
  <anchor x="828.0" y="0.0" name="bottom"/>
  <anchor x="1648.0" y="-560.0" name="bottom_dd"/>
  <anchor x="832.0" y="0.0" name="cedilla"/>
  <anchor x="1292.0" y="0.0" name="ogonek"/>
  <anchor x="64.0" y="2048.0" name="tonos"/>
  <anchor x="828.0" y="2200.0" name="top"/>
  <anchor x="1584.0" y="2200.0" name="top0315"/>
  <anchor x="1584.0" y="2200.0" name="top_dd"/>
  <outline>
    <contour>
      <point x="1512.0" y="384.0" type="line"/>
      <point x="448.0" y="384.0" type="line"/>
      <point x="448.0" y="0.0" type="line"/>
      <point x="1512.0" y="0.0" type="line"/>
    </contour>
    <contour>
      <point x="608.0" y="2048.0" type="line"/>
      <point x="144.0" y="2048.0" type="line"/>
      <point x="144.0" y="0.0" type="line"/>
      <point x="608.0" y="0.0" type="line"/>
    </contour>
    <contour>
      <point x="1372.0" y="1216.0" type="line"/>
      <point x="448.0" y="1216.0" type="line"/>
      <point x="448.0" y="832.0" type="line"/>
      <point x="1372.0" y="832.0" type="line"/>
    </contour>
    <contour>
      <point x="1512.0" y="2048.0" type="line"/>
      <point x="448.0" y="2048.0" type="line"/>
      <point x="448.0" y="1664.0" type="line"/>
      <point x="1512.0" y="1664.0" type="line"/>
    </contour>
  </outline>
</glyph>
<glyph name="F" format="2">
  <advance width="1644.0"/>
  <unicode hex="0046"/>
  <guideline x="12.0" y="1320.0" angle="0.0"/>
  <outline>
    <contour>
      <point x="132.0" y="0.0" type="line"/>
      <point x="688.0" y="0.0" type="line"/>
      <point x="688.0" y="800.0" type="line"/>
      <point x="1484.0" y="800.0" type="line"/>
      <point x="1484.0" y="1248.0" type="line"/>
      <point x="688.0" y="1248.0" type="line"/>
      <point x="688.0" y="1600.0" type="line"/>
      <point x="1572.0" y="1600.0" type="line"/>
      <point x="1572.0" y="2048.0" type="line"/>
      <point x="132.0" y="2048.0" type="line"/>
    </contour>
  </outline>
</glyph>
<glyph name="G" format="1">
  <advance width="2000"/>
  <unicode hex="0047"/>
  <outline>
    <contour>
      <point x="1872" y="1096" type="line"/>
      <point x="1024" y="1096" type="line"/>
      <point x="1024" y="756" type="line"/>
      <point x="1872" y="756" type="line"/>
    </contour>
    <contour>
      <point x="1864" y="1436" type="line"/>
      <point x="1736" y="1852"/>
      <point x="1408" y="2076"/>
      <point x="1016" y="2076" type="curve" smooth="yes"/>
      <point x="504" y="2076"/>
      <point x="120.0" y="1696.0"/>
      <point x="120.0" y="1020.0" type="curve"/>
      <point x="120.0" y="348.0"/>
      <point x="508" y="-28"/>
      <point x="1024" y="-28" type="curve" smooth="yes"/>
      <point x="1492" y="-28"/>
      <point x="1872" y="284"/>
      <point x="1872" y="756" type="curve"/>
      <point x="1420" y="756" type="line"/>
      <point x="1420" y="524"/>
      <point x="1244" y="388"/>
      <point x="1024" y="388" type="curve" smooth="yes"/>
      <point x="776" y="388"/>
      <point x="588.0" y="560.0"/>
      <point x="588.0" y="1020.0" type="curve"/>
      <point x="588.0" y="1480.0"/>
      <point x="772" y="1660"/>
      <point x="1016" y="1660" type="curve" smooth="yes"/>
      <point x="1184" y="1660"/>
      <point x="1336" y="1576"/>
      <point x="1396" y="1372" type="curve"/>
    </contour>
    <contour>
      <point x="1024.0" y="2200.0" type="move" name="top"/>
    </contour>
    <contour>
      <point x="1024.0" y="0.0" type="move" name="bottom"/>
    </contour>
    <contour>
      <point x="2012.0" y="2200.0" type="move" name="top_dd"/>
    </contour>
    <contour>
      <point x="2012.0" y="-560.0" type="move" name="bottom_dd"/>
    </contour>
    <contour>
      <point x="2012.0" y="2200.0" type="move" name="top0315"/>
    </contour>
  </outline>
</glyph>
<glyph name="H" format="2">
  <advance width="2012.0"/>
  <unicode hex="0048"/>
  <guideline y="1651.375"/>
  <guideline x="972.0" y="1344.0" angle="90.0"/>
  <anchor x="1008.0" y="24.0" name="bottom"/>
  <anchor x="2128.0" y="-560.0" name="bottom_dd"/>
  <anchor x="476.0" y="0.0" name="cedilla"/>
  <anchor x="2152.0" y="224.0" name="cyrtic"/>
  <anchor x="1980.0" y="0.0" name="right"/>
  <anchor x="120.0" y="2048.0" name="tonos"/>
  <anchor x="1004.0" y="2180.0" name="top"/>
  <anchor x="2128.0" y="2192.0" name="top0315"/>
  <anchor x="2128.0" y="2200.0" name="top_dd"/>
  <outline>
    <contour>
      <point x="1516.0" y="1248.0" type="line"/>
      <point x="480.0" y="1248.0" type="line"/>
      <point x="480.0" y="800.0" type="line"/>
      <point x="1516.0" y="800.0" type="line"/>
    </contour>
    <contour>
      <point x="676.0" y="2048.0" type="line"/>
      <point x="120.0" y="2048.0" type="line"/>
      <point x="120.0" y="0.0" type="line"/>
      <point x="676.0" y="0.0" type="line"/>
    </contour>
    <contour>
      <point x="1892.0" y="2048.0" type="line"/>
      <point x="1336.0" y="2048.0" type="line"/>
      <point x="1336.0" y="0.0" type="line"/>
      <point x="1892.0" y="0.0" type="line"/>
    </contour>
  </outline>
</glyph>
<glyph name="I" format="2">
  <advance width="796.0"/>
  <unicode hex="0049"/>
  <guideline y="1238.875"/>
  <guideline y="763.125"/>
  <guideline y="292.875"/>
  <anchor x="396.0" y="-8.0" name="bottom"/>
  <anchor x="852.0" y="-560.0" name="bottom_dd"/>
  <anchor x="396.0" y="1084.0" name="cross"/>
  <anchor x="676.0" y="0.0" name="ogonek"/>
  <anchor x="712.0" y="0.0" name="right"/>
  <anchor x="120.0" y="2048.0" name="tonos"/>
  <anchor x="404.0" y="2180.0" name="top"/>
  <anchor x="852.0" y="2192.0" name="top0315"/>
  <anchor x="852.0" y="2200.0" name="top_dd"/>
  <outline>
    <contour>
      <point x="676.0" y="2048.0" type="line"/>
      <point x="120.0" y="2048.0" type="line"/>
      <point x="120.0" y="0.0" type="line"/>
      <point x="676.0" y="0.0" type="line"/>
    </contour>
  </outline>
</glyph>
<glyph name="J" format="1">
  <advance width="1612"/>
  <unicode hex="004A"/>
  <outline>
    <contour>
      <point x="1008" y="628" type="line"/>
      <point x="1008" y="452"/>
      <point x="924" y="344"/>
      <point x="784" y="344" type="curve" smooth="yes"/>
      <point x="652" y="344"/>
      <point x="568" y="436"/>
      <point x="564" y="604" type="curve"/>
      <point x="100" y="604" type="line"/>
      <point x="100" y="172"/>
      <point x="388" y="-28"/>
      <point x="784" y="-28" type="curve" smooth="yes"/>
      <point x="1172" y="-28"/>
      <point x="1468" y="228"/>
      <point x="1468" y="628" type="curve"/>
      <point x="1468" y="2048" type="line"/>
      <point x="1008" y="2048" type="line"/>
    </contour>
    <contour>
      <point x="1228" y="2200" type="move" name="top"/>
    </contour>
    <contour>
      <point x="752" y="-16" type="move" name="bottom"/>
    </contour>
    <contour>
      <point x="1628" y="2200" type="move" name="top_dd"/>
    </contour>
    <contour>
      <point x="1628" y="-560" type="move" name="bottom_dd"/>
    </contour>
    <contour>
      <point x="1628" y="2200" type="move" name="top0315"/>
    </contour>
  </outline>
</glyph>
<glyph name="K" format="1">
  <advance width="1952"/>
  <unicode hex="004B"/>
  <outline>
    <contour>
      <point x="608" y="2048" type="line"/>
      <point x="144" y="2048" type="line"/>
      <point x="144" y="0" type="line"/>
      <point x="608" y="0" type="line"/>
    </contour>
    <contour>
      <point x="1824" y="2048" type="line"/>
      <point x="1284" y="2048" type="line"/>
      <point x="636" y="1164" type="line"/>
      <point x="564" y="1164" type="line"/>
      <point x="564" y="412" type="line"/>
      <point x="960" y="948" type="line"/>
      <point x="1004" y="948" type="line"/>
    </contour>
    <contour>
      <point x="1264" y="0" type="line"/>
      <point x="1808" y="0" type="line"/>
      <point x="1076" y="1180" type="line"/>
      <point x="724" y="904" type="line"/>
    </contour>
    <contour>
      <point x="940" y="72" type="move" name="bottom"/>
    </contour>
    <contour>
      <point x="1696" y="0" type="move" name="right"/>
    </contour>
    <contour>
      <point x="388" y="1684" type="move" name="cross"/>
    </contour>
    <contour>
      <point x="864" y="2200" type="move" name="top"/>
    </contour>
    <contour>
      <point x="1844" y="2200" type="move" name="top_dd"/>
    </contour>
    <contour>
      <point x="1844" y="-560" type="move" name="bottom_dd"/>
    </contour>
    <contour>
      <point x="1844" y="2200" type="move" name="top0315"/>
    </contour>
  </outline>
</glyph>
<glyph name="L" format="2">
  <advance width="1568.0"/>
  <unicode hex="004C"/>
  <guideline y="1304.875"/>
  <anchor x="784.0" y="16.0" name="bottom"/>
  <anchor x="1492.0" y="-560.0" name="bottom_dd"/>
  <anchor x="896.0" y="2004.0" name="caron"/>
  <anchor x="792.0" y="1168.0" name="dot"/>
  <anchor x="372.0" y="2200.0" name="top"/>
  <anchor x="1492.0" y="2200.0" name="top0315"/>
  <anchor x="1492.0" y="2200.0" name="top_dd"/>
  <outline>
    <contour>
      <point x="1436.0" y="384.0" type="line"/>
      <point x="448.0" y="384.0" type="line"/>
      <point x="448.0" y="0.0" type="line"/>
      <point x="1436.0" y="0.0" type="line"/>
    </contour>
    <contour>
      <point x="608.0" y="2048.0" type="line"/>
      <point x="144.0" y="2048.0" type="line"/>
      <point x="144.0" y="0.0" type="line"/>
      <point x="608.0" y="0.0" type="line"/>
    </contour>
  </outline>
</glyph>
<glyph name="M" format="1">
  <advance width="2480"/>
  <unicode hex="004D"/>
  <outline>
    <contour>
      <point x="152" y="2048" type="line"/>
      <point x="152" y="0" type="line"/>
      <point x="624" y="0" type="line"/>
      <point x="624" y="1340" type="line"/>
      <point x="632" y="1340" type="line"/>
      <point x="1080" y="0" type="line"/>
      <point x="1392" y="0" type="line"/>
      <point x="1848" y="1332" type="line"/>
      <point x="1860" y="1332" type="line"/>
      <point x="1860" y="0" type="line"/>
      <point x="2328" y="0" type="line"/>
      <point x="2328" y="2048" type="line"/>
      <point x="1716" y="2048" type="line"/>
      <point x="1252" y="668" type="line"/>
      <point x="1228" y="668" type="line"/>
      <point x="764" y="2048" type="line"/>
    </contour>
    <contour>
      <point x="1300" y="2200" type="move" name="top"/>
    </contour>
    <contour>
      <point x="2372" y="0" type="move" name="right"/>
    </contour>
    <contour>
      <point x="1304" y="16" type="move" name="bottom"/>
    </contour>
    <contour>
      <point x="2540" y="2200" type="move" name="top_dd"/>
    </contour>
    <contour>
      <point x="2540" y="-560" type="move" name="bottom_dd"/>
    </contour>
    <contour>
      <point x="2540" y="2200" type="move" name="top0315"/>
    </contour>
  </outline>
</glyph>
<glyph name="N" format="2">
  <advance width="1952.0"/>
  <unicode hex="004E"/>
  <guideline y="1650.0"/>
  <guideline x="888.0" y="240.0" angle="90.0"/>
  <anchor x="976.0" y="0.0" name="bottom"/>
  <anchor x="2032.0" y="-560.0" name="bottom_dd"/>
  <anchor x="1868.0" y="0.0" name="right"/>
  <anchor x="1048.0" y="2200.0" name="top"/>
  <anchor x="2032.0" y="2200.0" name="top0315"/>
  <anchor x="2032.0" y="2200.0" name="top_dd"/>
  <outline>
    <contour>
      <point x="1808.0" y="2048.0" type="line"/>
      <point x="1344.0" y="2048.0" type="line"/>
      <point x="1344.0" y="788.0" type="line"/>
      <point x="1328.0" y="788.0" type="line"/>
      <point x="604.0" y="2048.0" type="line"/>
      <point x="144.0" y="2048.0" type="line"/>
      <point x="144.0" y="0.0" type="line"/>
      <point x="608.0" y="0.0" type="line"/>
      <point x="608.0" y="1260.0" type="line"/>
      <point x="624.0" y="1260.0" type="line"/>
      <point x="1352.0" y="0.0" type="line"/>
      <point x="1808.0" y="0.0" type="line"/>
    </contour>
  </outline>
</glyph>
<glyph name="O" format="1">
  <advance width="2040"/>
  <unicode hex="004F"/>
  <outline>
    <contour>
      <point x="1920" y="1020" type="curve"/>
      <point x="1920" y="1696"/>
      <point x="1532" y="2076"/>
      <point x="1024" y="2076" type="curve" smooth="yes"/>
      <point x="512" y="2076"/>
      <point x="120" y="1696"/>
      <point x="120" y="1020" type="curve"/>
      <point x="120" y="348"/>
      <point x="512" y="-28"/>
      <point x="1024" y="-28" type="curve" smooth="yes"/>
      <point x="1532" y="-28"/>
      <point x="1920" y="348"/>
    </contour>
    <contour>
      <point x="1452" y="1020" type="curve"/>
      <point x="1452" y="560"/>
      <point x="1276" y="388"/>
      <point x="1024" y="388" type="curve" smooth="yes"/>
      <point x="772" y="388"/>
      <point x="588" y="560"/>
      <point x="588" y="1020" type="curve"/>
      <point x="588" y="1480"/>
      <point x="772" y="1660"/>
      <point x="1024" y="1660" type="curve" smooth="yes"/>
      <point x="1276" y="1660"/>
      <point x="1452" y="1480"/>
    </contour>
    <contour>
      <point x="1024" y="2200" type="move" name="top"/>
    </contour>
    <contour>
      <point x="1024" y="0" type="move" name="bottom"/>
    </contour>
    <contour>
      <point x="188" y="2000" type="move" name="tonos"/>
    </contour>
    <contour>
      <point x="1992" y="2200" type="move" name="top_dd"/>
    </contour>
    <contour>
      <point x="1992" y="-560" type="move" name="bottom_dd"/>
    </contour>
    <contour>
      <point x="1992" y="2200" type="move" name="top0315"/>
    </contour>
  </outline>
</glyph>
<glyph name="P" format="2">
  <advance width="1884.0"/>
  <unicode hex="0050"/>
  <guideline x="8.0" y="1240.0" angle="0.0"/>
  <guideline x="8.0" y="764.0" angle="0.0"/>
  <guideline x="8.0" y="1552.0" angle="0.0"/>
  <guideline x="816.0" y="1372.0" angle="0.0"/>
  <outline>
    <contour>
      <point x="128.0" y="0.0" type="line"/>
      <point x="684.0" y="0.0" type="line"/>
      <point x="684.0" y="1604.0" type="line"/>
      <point x="880.0" y="1604.0" type="line" smooth="yes"/>
      <point x="1074.0" y="1604.0"/>
      <point x="1192.0" y="1496.0"/>
      <point x="1192.0" y="1324.0" type="curve" smooth="yes"/>
      <point x="1192.0" y="1145.0"/>
      <point x="1074.0" y="1040.0"/>
      <point x="880.0" y="1040.0" type="curve" smooth="yes"/>
      <point x="464.0" y="1040.0" type="line"/>
      <point x="464.0" y="608.0" type="line"/>
      <point x="992.0" y="608.0" type="line" smooth="yes"/>
      <point x="1458.0" y="608.0"/>
      <point x="1772.0" y="885.0"/>
      <point x="1772.0" y="1324.0" type="curve" smooth="yes"/>
      <point x="1772.0" y="1762.0"/>
      <point x="1466.0" y="2048.0"/>
      <point x="1012.0" y="2048.0" type="curve" smooth="yes"/>
      <point x="128.0" y="2048.0" type="line"/>
    </contour>
  </outline>
</glyph>
<glyph name="Q" format="1">
  <advance width="2024"/>
  <unicode hex="0051"/>
  <outline>
    <contour>
      <point x="816" y="704" type="line"/>
      <point x="1088" y="316" type="line"/>
      <point x="1204" y="124" type="line"/>
      <point x="1424" y="-192" type="line"/>
      <point x="1852" y="-192" type="line"/>
      <point x="1532" y="264" type="line"/>
      <point x="1340" y="500" type="line"/>
      <point x="1196" y="704" type="line"/>
    </contour>
    <component base="O" xOffset="24"/>
    <contour>
      <point x="1040" y="2200" type="move" name="top"/>
    </contour>
    <contour>
      <point x="1036" y="-16" type="move" name="bottom"/>
    </contour>
    <contour>
      <point x="2020" y="2200" type="move" name="top_dd"/>
    </contour>
    <contour>
      <point x="2020" y="-560" type="move" name="bottom_dd"/>
    </contour>
    <contour>
      <point x="2020" y="2200" type="move" name="top0315"/>
    </contour>
  </outline>
</glyph>
<glyph name="R" format="1">
  <advance width="1796"/>
  <unicode hex="0052"/>
  <outline>
    <contour>
      <point x="144" y="2048" type="line" name="hr00"/>
      <point x="144" y="0" type="line"/>
      <point x="608" y="0" type="line"/>
      <point x="608" y="1664" type="line"/>
      <point x="916" y="1664" type="line" smooth="yes"/>
      <point x="1116" y="1664"/>
      <point x="1208" y="1564"/>
      <point x="1208" y="1396" type="curve" smooth="yes"/>
      <point x="1208" y="1220"/>
      <point x="1108" y="1132"/>
      <point x="916" y="1132" type="curve" smooth="yes"/>
      <point x="432" y="1132" type="line"/>
      <point x="436" y="752" type="line"/>
      <point x="1088" y="752" type="line"/>
      <point x="1240" y="792" type="line"/>
      <point x="1496" y="888"/>
      <point x="1668" y="1084"/>
      <point x="1668" y="1408" type="curve" smooth="yes"/>
      <point x="1668" y="1800"/>
      <point x="1416" y="2048"/>
      <point x="916" y="2048" type="curve" smooth="yes"/>
    </contour>
    <contour>
      <point x="1244" y="0" type="line"/>
      <point x="1752" y="0" type="line"/>
      <point x="1224" y="932" type="line"/>
      <point x="724" y="932" type="line"/>
    </contour>
    <contour>
      <point x="900" y="2200" type="move" name="top"/>
    </contour>
    <contour>
      <point x="924" y="16" type="move" name="bottom"/>
    </contour>
    <contour>
      <point x="1908" y="2200" type="move" name="top_dd"/>
    </contour>
    <contour>
      <point x="1908" y="-560" type="move" name="bottom_dd"/>
    </contour>
    <contour>
      <point x="1908" y="2200" type="move" name="top0315"/>
    </contour>
  </outline>
</glyph>
<glyph name="S" format="1">
  <advance width="1776"/>
  <unicode hex="0053"/>
  <outline>
    <contour>
      <point x="1208" y="1440" type="curve"/>
      <point x="1648" y="1440" type="line"/>
      <point x="1648" y="1828"/>
      <point x="1344" y="2076"/>
      <point x="904" y="2076" type="curve" smooth="yes"/>
      <point x="464" y="2076"/>
      <point x="144" y="1844"/>
      <point x="144" y="1500" type="curve"/>
      <point x="144" y="1196"/>
      <point x="396" y="1000"/>
      <point x="736" y="896" type="curve" smooth="yes"/>
      <point x="776" y="884" type="line" smooth="yes"/>
      <point x="1092" y="784"/>
      <point x="1200" y="696"/>
      <point x="1200" y="572" type="curve" smooth="yes" name="hr00"/>
      <point x="1200" y="464"/>
      <point x="1108" y="356"/>
      <point x="892" y="356" type="curve" smooth="yes"/>
      <point x="676" y="356"/>
      <point x="540" y="464"/>
      <point x="532" y="664" type="curve"/>
      <point x="84" y="664" type="line"/>
      <point x="84" y="180"/>
      <point x="484" y="-28"/>
      <point x="892" y="-28" type="curve" smooth="yes"/>
      <point x="1336" y="-28"/>
      <point x="1648" y="188"/>
      <point x="1648" y="576" type="curve"/>
      <point x="1648" y="908"/>
      <point x="1420" y="1076"/>
      <point x="1036" y="1212" type="curve" smooth="yes"/>
      <point x="980" y="1236" type="line" smooth="yes"/>
      <point x="760" y="1316"/>
      <point x="596" y="1368"/>
      <point x="596" y="1496" type="curve"/>
      <point x="596" y="1612"/>
      <point x="724" y="1688"/>
      <point x="904" y="1688" type="curve" smooth="yes"/>
      <point x="1104" y="1688"/>
      <point x="1200" y="1592"/>
    </contour>
    <contour>
      <point x="912" y="2200" type="move" name="top"/>
    </contour>
    <contour>
      <point x="912" y="0" type="move" name="bottom"/>
    </contour>
    <contour>
      <point x="1760" y="2200" type="move" name="top_dd"/>
    </contour>
    <contour>
      <point x="1760" y="-560" type="move" name="bottom_dd"/>
    </contour>
    <contour>
      <point x="1760" y="2200" type="move" name="top0315"/>
    </contour>
  </outline>
</glyph>
<glyph name="T" format="2">
  <advance width="1820.0"/>
  <unicode hex="0054"/>
  <anchor x="900.0" y="16.0" name="bottom"/>
  <anchor x="1792.0" y="-560.0" name="bottom_dd"/>
  <anchor x="860.0" y="1120.0" name="cross"/>
  <anchor x="1076.0" y="0.0" name="right"/>
  <anchor x="900.0" y="2200.0" name="top"/>
  <anchor x="1792.0" y="2200.0" name="top0315"/>
  <anchor x="1792.0" y="2200.0" name="top_dd"/>
  <outline>
    <contour>
      <point x="1140.0" y="2048.0" type="line"/>
      <point x="680.0" y="2048.0" type="line"/>
      <point x="680.0" y="0.0" type="line"/>
      <point x="1140.0" y="0.0" type="line"/>
    </contour>
    <contour>
      <point x="1740.0" y="2048.0" type="line"/>
      <point x="80.0" y="2048.0" type="line"/>
      <point x="80.0" y="1664.0" type="line"/>
      <point x="1740.0" y="1664.0" type="line"/>
    </contour>
  </outline>
</glyph>
<glyph name="U" format="1">
  <advance width="1920"/>
  <unicode hex="0055"/>
  <outline>
    <contour>
      <point x="960.0" y="2200.0" type="move" name="top"/>
    </contour>
    <contour>
      <point x="892.0" y="0.0" type="move" name="bottom"/>
    </contour>
    <contour>
      <point x="1116.0" y="0.0" type="move" name="right"/>
    </contour>
    <contour>
      <point x="1396.0" y="104.0" type="move" name="ogonek"/>
    </contour>
    <contour>
      <point x="1848.0" y="2200.0" type="move" name="top_dd"/>
    </contour>
    <contour>
      <point x="1832.0" y="-560.0" type="move" name="bottom_dd"/>
    </contour>
    <contour>
      <point x="1848.0" y="2200.0" type="move" name="top0315"/>
    </contour>
    <contour>
      <point x="1328" y="2048" type="line"/>
      <point x="1328" y="712" type="line" smooth="yes"/>
      <point x="1328" y="512"/>
      <point x="1184" y="388"/>
      <point x="964" y="388" type="curve" smooth="yes"/>
      <point x="744" y="388"/>
      <point x="592" y="512"/>
      <point x="592" y="712" type="curve" smooth="yes"/>
      <point x="592" y="2048" type="line"/>
      <point x="128" y="2048" type="line"/>
      <point x="128" y="696" type="line"/>
      <point x="128" y="228"/>
      <point x="468" y="-28"/>
      <point x="964" y="-28" type="curve" smooth="yes"/>
      <point x="1456" y="-28"/>
      <point x="1792" y="228"/>
      <point x="1792" y="696" type="curve"/>
      <point x="1792" y="2048" type="line"/>
    </contour>
  </outline>
</glyph>
<glyph name="V" format="1">
  <advance width="2080"/>
  <unicode hex="0056"/>
  <outline>
    <contour>
      <point x="616" y="2048" type="line"/>
      <point x="108" y="2048" type="line"/>
      <point x="792" y="0" type="line"/>
      <point x="1288" y="0" type="line"/>
      <point x="1972" y="2048" type="line"/>
      <point x="1464" y="2048" type="line"/>
      <point x="1052" y="580" type="line"/>
      <point x="1028" y="580" type="line"/>
    </contour>
    <contour>
      <point x="1036" y="2216" type="move" name="top"/>
    </contour>
    <contour>
      <point x="1036" y="16" type="move" name="bottom"/>
    </contour>
    <contour>
      <point x="1968" y="2200" type="move" name="top_dd"/>
    </contour>
    <contour>
      <point x="1968" y="-560" type="move" name="bottom_dd"/>
    </contour>
    <contour>
      <point x="1968" y="2216" type="move" name="top0315"/>
    </contour>
  </outline>
</glyph>
<glyph name="W" format="1">
  <advance width="2608"/>
  <unicode hex="0057"/>
  <outline>
    <contour>
      <point x="576" y="2048" type="line"/>
      <point x="156" y="2048" type="line"/>
      <point x="548" y="0" type="line"/>
      <point x="1020" y="0" type="line"/>
      <point x="1296" y="1284" type="line"/>
      <point x="1312" y="1284" type="line"/>
      <point x="1592" y="0" type="line"/>
      <point x="2064" y="0" type="line"/>
      <point x="2452" y="2048" type="line"/>
      <point x="2036" y="2048" type="line"/>
      <point x="1820" y="668" type="line"/>
      <point x="1804" y="668" type="line"/>
      <point x="1508" y="2048" type="line"/>
      <point x="1104" y="2048" type="line"/>
      <point x="808" y="672" type="line"/>
      <point x="792" y="672" type="line"/>
    </contour>
    <contour>
      <point x="1312" y="2200" type="move" name="top"/>
    </contour>
    <contour>
      <point x="1304" y="16" type="move" name="bottom"/>
    </contour>
    <contour>
      <point x="2532" y="2200" type="move" name="top_dd"/>
    </contour>
    <contour>
      <point x="2532" y="-560" type="move" name="bottom_dd"/>
    </contour>
    <contour>
      <point x="2532" y="2200" type="move" name="top0315"/>
    </contour>
  </outline>
</glyph>
<glyph name="X" format="1">
  <advance width="1960"/>
  <unicode hex="0058"/>
  <outline>
    <contour>
      <point x="640" y="2048" type="line"/>
      <point x="112" y="2048" type="line"/>
      <point x="676" y="1024" type="line"/>
      <point x="96" y="0" type="line"/>
      <point x="628" y="0" type="line"/>
      <point x="968" y="672" type="line" smooth="yes"/>
      <point x="976" y="692"/>
      <point x="980" y="696"/>
      <point x="980" y="712" type="curve"/>
      <point x="988" y="712" type="line"/>
      <point x="988" y="696"/>
      <point x="988" y="692"/>
      <point x="996" y="672" type="curve" smooth="yes"/>
      <point x="1332" y="0" type="line"/>
      <point x="1864" y="0" type="line"/>
      <point x="1284" y="1024" type="line"/>
      <point x="1848" y="2048" type="line"/>
      <point x="1324" y="2048" type="line"/>
      <point x="996" y="1392" type="line" smooth="yes"/>
      <point x="988" y="1376"/>
      <point x="988" y="1372"/>
      <point x="988" y="1356" type="curve"/>
      <point x="980" y="1356" type="line"/>
      <point x="980" y="1372"/>
      <point x="976" y="1376"/>
      <point x="968" y="1392" type="curve" smooth="yes"/>
    </contour>
    <contour>
      <point x="980" y="28" type="move" name="bottom"/>
    </contour>
    <contour>
      <point x="1644" y="0" type="move" name="right"/>
    </contour>
    <contour>
      <point x="976" y="1020" type="move" name="cross"/>
    </contour>
    <contour>
      <point x="960" y="2216" type="move" name="top"/>
    </contour>
    <contour>
      <point x="1880" y="2200" type="move" name="top_dd"/>
    </contour>
    <contour>
      <point x="1880" y="-560" type="move" name="bottom_dd"/>
    </contour>
    <contour>
      <point x="1880" y="2216" type="move" name="top0315"/>
    </contour>
  </outline>
</glyph>
<glyph name="Y" format="1">
  <advance width="2152"/>
  <unicode hex="0059"/>
  <outline>
    <contour>
      <point x="568" y="2048" type="line"/>
      <point x="64" y="2048" type="line"/>
      <point x="844" y="780" type="line"/>
      <point x="844" y="0" type="line"/>
      <point x="1308" y="0" type="line"/>
      <point x="1308" y="780" type="line"/>
      <point x="2088" y="2048" type="line"/>
      <point x="1584" y="2048" type="line"/>
      <point x="1076" y="1160" type="line"/>
    </contour>
    <contour>
      <point x="1052" y="1132" type="line"/>
      <point x="1100" y="1132" type="line"/>
      <point x="1100" y="1180" type="line"/>
      <point x="1052" y="1180" type="line"/>
    </contour>
    <contour>
      <point x="1076" y="2200" type="move" name="top"/>
    </contour>
    <contour>
      <point x="944" y="64" type="move" name="bottom"/>
    </contour>
    <contour>
      <point x="956" y="832" type="move" name="cross"/>
    </contour>
    <contour>
      <point x="-32" y="2000" type="move" name="tonos"/>
    </contour>
    <contour>
      <point x="1972" y="2200" type="move" name="top_dd"/>
    </contour>
    <contour>
      <point x="1828" y="-560" type="move" name="bottom_dd"/>
    </contour>
    <contour>
      <point x="1972" y="2200" type="move" name="top0315"/>
    </contour>
  </outline>
</glyph>
<glyph name="Z" format="2">
  <advance width="1932.0"/>
  <unicode hex="005A"/>
  <guideline y="1553.75"/>
  <guideline x="1680.0" y="1788.0" angle="55.0453"/>
  <guideline x="124.0" y="276.0" angle="55.0343"/>
  <guideline x="120.0" y="1664.0" angle="90.0"/>
  <guideline x="1672.0" y="384.0" angle="90.0"/>
  <guideline x="1096.0" y="800.0" angle="90.0"/>
  <outline>
    <contour>
      <point x="1800.0" y="448.0" type="line"/>
      <point x="340.0" y="448.0" type="line"/>
      <point x="340.0" y="0.0" type="line"/>
      <point x="1800.0" y="0.0" type="line"/>
    </contour>
    <contour>
      <point x="1804.0" y="1740.0" type="line"/>
      <point x="1804.0" y="2048.0" type="line"/>
      <point x="1432.0" y="2048.0" type="line"/>
      <point x="128.0" y="308.0" type="line"/>
      <point x="128.0" y="0.0" type="line"/>
      <point x="500.0" y="0.0" type="line"/>
    </contour>
    <contour>
      <point x="1588.0" y="2048.0" type="line"/>
      <point x="132.0" y="2048.0" type="line"/>
      <point x="132.0" y="1600.0" type="line"/>
      <point x="1588.0" y="1600.0" type="line"/>
    </contour>
  </outline>
</glyph>
<glyph name="bracketleft" format="1">
  <advance width="1072"/>
  <unicode hex="005B"/>
  <outline>
    <contour>
      <point x="976" y="2348" type="line"/>
      <point x="272" y="2348" type="line"/>
      <point x="272" y="-480" type="line"/>
      <point x="976" y="-480" type="line"/>
      <point x="976" y="-144" type="line"/>
      <point x="680" y="-144" type="line"/>
      <point x="680" y="2008" type="line"/>
      <point x="976" y="2008" type="line"/>
    </contour>
  </outline>
</glyph>
<glyph name="backslash" format="2">
  <advance width="1184.0"/>
  <unicode hex="005C"/>
  <guideline y="1238.875"/>
  <guideline y="763.125"/>
  <outline>
    <contour>
      <point x="96.0" y="2048.0" type="line"/>
      <point x="692.0" y="-308.0" type="line"/>
      <point x="1088.0" y="-308.0" type="line"/>
      <point x="492.0" y="2048.0" type="line"/>
    </contour>
  </outline>
</glyph>
<glyph name="bracketright" format="1">
  <advance width="1088"/>
  <unicode hex="005D"/>
  <outline>
    <contour>
      <point x="104" y="2348" type="line"/>
      <point x="104" y="2008" type="line"/>
      <point x="400" y="2008" type="line"/>
      <point x="400" y="-144" type="line"/>
      <point x="104" y="-144" type="line"/>
      <point x="104" y="-480" type="line"/>
      <point x="808" y="-480" type="line"/>
      <point x="808" y="2348" type="line"/>
    </contour>
  </outline>
</glyph>
<glyph name="asciicircum" format="1">
  <advance width="1312"/>
  <unicode hex="005E"/>
  <outline>
    <contour>
      <point x="668" y="1652" type="line"/>
      <point x="740" y="2004" type="line"/>
      <point x="492" y="2004" type="line"/>
      <point x="84" y="1004" type="line"/>
      <point x="420" y="1004" type="line"/>
    </contour>
    <contour>
      <point x="892" y="1004" type="line"/>
      <point x="1232" y="1004" type="line"/>
      <point x="820" y="2004" type="line"/>
      <point x="572" y="2004" type="line"/>
      <point x="644" y="1652" type="line"/>
    </contour>
  </outline>
</glyph>
<glyph name="underscore" format="2">
  <advance width="1312.0"/>
  <unicode hex="005F"/>
  <anchor x="632.0" y="184.0" name="_bottom"/>
  <outline>
    <contour>
      <point x="1280.0" y="0.0" type="line"/>
      <point x="32.0" y="0.0" type="line"/>
      <point x="32.0" y="-344.0" type="line"/>
      <point x="1280.0" y="-344.0" type="line"/>
    </contour>
  </outline>
</glyph>
<glyph name="grave" format="2">
  <advance width="1056.0"/>
  <unicode hex="0060"/>
  <anchor x="688.0" y="1776.0" name="_top"/>
  <anchor x="688.0" y="2296.0" name="mkmktop_acc"/>
  <outline>
    <contour>
      <point x="628.0" y="2112.0" type="line"/>
      <point x="156.0" y="2112.0" type="line"/>
      <point x="540.0" y="1680.0" type="line"/>
      <point x="900.0" y="1680.0" type="line"/>
    </contour>
  </outline>
</glyph>
<glyph name="a" format="1">
  <advance width="1576"/>
  <unicode hex="0061"/>
  <outline>
    <contour>
      <point x="960" y="492" type="line" smooth="yes"/>
      <point x="960" y="384"/>
      <point x="840" y="304"/>
      <point x="720" y="304" type="curve" smooth="yes"/>
      <point x="620" y="304"/>
      <point x="556" y="360"/>
      <point x="556" y="444" type="curve" smooth="yes"/>
      <point x="556" y="556"/>
      <point x="616" y="620"/>
      <point x="800" y="640" type="curve" smooth="yes"/>
      <point x="856" y="648"/>
      <point x="936" y="664"/>
      <point x="960" y="688" type="curve"/>
    </contour>
    <contour>
      <point x="984" y="0" type="line"/>
      <point x="1424" y="0" type="line"/>
      <point x="1424" y="1040" type="line" smooth="yes"/>
      <point x="1424" y="1384"/>
      <point x="1160" y="1556"/>
      <point x="804" y="1556" type="curve" smooth="yes"/>
      <point x="432" y="1556"/>
      <point x="184" y="1368"/>
      <point x="136" y="1084" type="curve"/>
      <point x="560" y="1020" type="line"/>
      <point x="588" y="1128"/>
      <point x="664" y="1192"/>
      <point x="772" y="1192" type="curve" smooth="yes"/>
      <point x="876" y="1192"/>
      <point x="960" y="1132"/>
      <point x="960" y="1052" type="curve" smooth="yes"/>
      <point x="960" y="1020" type="line"/>
      <point x="960" y="948"/>
      <point x="840" y="936"/>
      <point x="740" y="928" type="curve" smooth="yes"/>
      <point x="304" y="892"/>
      <point x="112" y="704"/>
      <point x="112" y="432" type="curve" smooth="yes"/>
      <point x="112" y="136"/>
      <point x="336" y="-28"/>
      <point x="616" y="-28" type="curve" smooth="yes"/>
      <point x="812" y="-28"/>
      <point x="924" y="52"/>
      <point x="972" y="132" type="curve"/>
      <point x="984" y="132" type="line"/>
    </contour>
    <contour>
      <point x="796" y="1776" type="move" name="top"/>
    </contour>
    <contour>
      <point x="792" y="0" type="move" name="bottom"/>
    </contour>
    <contour>
      <point x="1412" y="0" type="move" name="ogonek"/>
    </contour>
    <contour>
      <point x="796" y="1776" type="move" name="rhalfring"/>
    </contour>
    <contour>
      <point x="1560" y="2200" type="move" name="top_dd"/>
    </contour>
    <contour>
      <point x="1560" y="-560" type="move" name="bottom_dd"/>
    </contour>
    <contour>
      <point x="1236" y="900" type="move" name="rhotichook"/>
    </contour>
    <contour>
      <point x="1568" y="1776" type="move" name="top0315"/>
    </contour>
  </outline>
</glyph>
<glyph name="b" format="1">
  <advance width="1572"/>
  <unicode hex="0062"/>
  <outline>
    <contour>
      <point x="128" y="2048" type="line"/>
      <point x="128" y="0" type="line"/>
      <point x="544" y="0" type="line"/>
      <point x="568" y="304" type="line"/>
      <point x="420" y="744" type="line"/>
      <point x="588" y="1272" type="line"/>
      <point x="588" y="2048" type="line"/>
    </contour>
    <component base="rightloop.cn" xOffset="-84"/>
    <contour>
      <point x="1048" y="2200" type="move" name="top"/>
    </contour>
    <contour>
      <point x="916" y="0" type="move" name="bottom"/>
    </contour>
    <contour>
      <point x="1704" y="2200" type="move" name="top_dd"/>
    </contour>
    <contour>
      <point x="1704" y="-560" type="move" name="bottom_dd"/>
    </contour>
    <contour>
      <point x="1704" y="2200" type="move" name="top0315"/>
    </contour>
  </outline>
</glyph>
<glyph name="c" format="1">
  <advance width="1588"/>
  <unicode hex="0063"/>
  <outline>
    <contour>
      <point x="1500" y="1032" type="line"/>
      <point x="1436" y="1352"/>
      <point x="1180" y="1556"/>
      <point x="820" y="1556" type="curve" smooth="yes"/>
      <point x="368" y="1556"/>
      <point x="96" y="1232"/>
      <point x="96" y="768" type="curve" smooth="yes"/>
      <point x="96" y="304"/>
      <point x="368" y="-28"/>
      <point x="820" y="-28" type="curve" smooth="yes"/>
      <point x="1168" y="-28"/>
      <point x="1424" y="168"/>
      <point x="1496" y="472" type="curve"/>
      <point x="1072" y="548" type="line"/>
      <point x="1036" y="424"/>
      <point x="960" y="340"/>
      <point x="820" y="340" type="curve" smooth="yes"/>
      <point x="612" y="340"/>
      <point x="532" y="512"/>
      <point x="532" y="768" type="curve" smooth="yes"/>
      <point x="532" y="1024"/>
      <point x="612" y="1192"/>
      <point x="820" y="1192" type="curve" smooth="yes"/>
      <point x="972" y="1192"/>
      <point x="1044" y="1100"/>
      <point x="1080" y="952" type="curve"/>
    </contour>
    <contour>
      <point x="816" y="1776" type="move" name="top"/>
    </contour>
    <contour>
      <point x="820" y="0" type="move" name="bottom"/>
    </contour>
    <contour>
      <point x="816" y="1776" type="move" name="marktop"/>
    </contour>
    <contour>
      <point x="1512" y="2200" type="move" name="top_dd"/>
    </contour>
    <contour>
      <point x="1512" y="-560" type="move" name="bottom_dd"/>
    </contour>
    <contour>
      <point x="1512" y="1776" type="move" name="top0315"/>
    </contour>
  </outline>
</glyph>
<glyph name="d" format="2">
  <advance width="1652.0"/>
  <unicode hex="0064"/>
  <anchor x="756.0" y="0.0" name="bottom"/>
  <anchor x="1672.0" y="-560.0" name="bottom_dd"/>
  <anchor x="1696.0" y="2112.0" name="caron"/>
  <anchor x="1228.0" y="1796.0" name="cross"/>
  <anchor x="748.0" y="2200.0" name="top"/>
  <anchor x="1672.0" y="2200.0" name="top0315"/>
  <anchor x="1672.0" y="2200.0" name="top_dd"/>
  <outline>
    <contour>
      <point x="1508.0" y="0.0" type="line"/>
      <point x="1508.0" y="2048.0" type="line"/>
      <point x="1048.0" y="2048.0" type="line"/>
      <point x="1048.0" y="1256.0" type="line"/>
      <point x="1204.0" y="732.0" type="line"/>
      <point x="1052.0" y="308.0" type="line"/>
      <point x="1052.0" y="0.0" type="line"/>
    </contour>
    <contour>
      <point x="1232.0" y="1372.0" type="line"/>
      <point x="1032.0" y="1372.0" type="line"/>
      <point x="980.0" y="1488.0"/>
      <point x="848.0" y="1556.0"/>
      <point x="688.0" y="1556.0" type="curve" smooth="yes"/>
      <point x="380.0" y="1556.0"/>
      <point x="96.0" y="1304.0"/>
      <point x="96.0" y="768.0" type="curve" smooth="yes"/>
      <point x="96.0" y="244.0"/>
      <point x="364.0" y="-24.0"/>
      <point x="688.0" y="-24.0" type="curve" smooth="yes"/>
      <point x="848.0" y="-24.0"/>
      <point x="980.0" y="40.0"/>
      <point x="1032.0" y="156.0" type="curve"/>
      <point x="1232.0" y="156.0" type="line"/>
    </contour>
    <contour>
      <point x="528.0" y="768.0" type="curve" smooth="yes"/>
      <point x="528.0" y="1036.0"/>
      <point x="628.0" y="1192.0"/>
      <point x="824.0" y="1192.0" type="curve" smooth="yes"/>
      <point x="1036.0" y="1192.0"/>
      <point x="1100.0" y="1004.0"/>
      <point x="1100.0" y="768.0" type="curve" smooth="yes"/>
      <point x="1100.0" y="536.0"/>
      <point x="1040.0" y="340.0"/>
      <point x="824.0" y="340.0" type="curve" smooth="yes"/>
      <point x="628.0" y="340.0"/>
      <point x="528.0" y="500.0"/>
    </contour>
  </outline>
</glyph>
<glyph name="e" format="1">
  <advance width="1652"/>
  <unicode hex="0065"/>
  <outline>
    <contour>
      <point x="860" y="-28" type="curve"/>
      <point x="1300" y="-28"/>
      <point x="1488" y="232"/>
      <point x="1536" y="432" type="curve"/>
      <point x="1132" y="540" type="line"/>
      <point x="1100" y="448"/>
      <point x="1040" y="340"/>
      <point x="856" y="340" type="curve" smooth="yes"/>
      <point x="628" y="340"/>
      <point x="536" y="504"/>
      <point x="536" y="744" type="curve"/>
      <point x="536" y="1020"/>
      <point x="640" y="1192"/>
      <point x="844" y="1192" type="curve" smooth="yes"/>
      <point x="1024" y="1192"/>
      <point x="1120" y="1080"/>
      <point x="1120" y="936" type="curve"/>
      <point x="276" y="936" type="line"/>
      <point x="276" y="640" type="line"/>
      <point x="1548" y="640" type="line"/>
      <point x="1548" y="832" type="line" smooth="yes"/>
      <point x="1548" y="1288"/>
      <point x="1272" y="1556"/>
      <point x="848" y="1556" type="curve" smooth="yes"/>
      <point x="368" y="1556"/>
      <point x="104" y="1212"/>
      <point x="104" y="744" type="curve"/>
      <point x="104" y="260"/>
      <point x="392" y="-28"/>
    </contour>
    <contour>
      <point x="812" y="1776" type="move" name="top"/>
    </contour>
    <contour>
      <point x="820" y="0" type="move" name="bottom"/>
    </contour>
    <contour>
      <point x="1212" y="48" type="move" name="ogonek"/>
    </contour>
    <contour>
      <point x="1544" y="2200" type="move" name="top_dd"/>
    </contour>
    <contour>
      <point x="1544" y="-560" type="move" name="bottom_dd"/>
    </contour>
    <contour>
      <point x="1280" y="900" type="move" name="rhotichook"/>
    </contour>
    <contour>
      <point x="1544" y="1776" type="move" name="top0315"/>
    </contour>
  </outline>
</glyph>
<glyph name="f" format="2">
  <advance width="1188.0"/>
  <unicode hex="0066"/>
  <guideline y="1229.25"/>
  <guideline y="257.125"/>
  <outline>
    <contour>
      <point x="1092.0" y="1536.0" type="line"/>
      <point x="80.0" y="1536.0" type="line"/>
      <point x="80.0" y="1176.0" type="line"/>
      <point x="1092.0" y="1176.0" type="line"/>
    </contour>
    <contour>
      <point x="260.0" y="0.0" type="line"/>
      <point x="812.0" y="0.0" type="line"/>
      <point x="812.0" y="1604.0" type="line" smooth="yes"/>
      <point x="812.0" y="1676.0"/>
      <point x="840.0" y="1724.0"/>
      <point x="944.0" y="1724.0" type="curve" smooth="yes"/>
      <point x="984.0" y="1724.0"/>
      <point x="1044.0" y="1716.0"/>
      <point x="1084.0" y="1704.0" type="curve"/>
      <point x="1164.0" y="2100.0" type="line"/>
      <point x="1100.0" y="2116.0"/>
      <point x="952.0" y="2144.0"/>
      <point x="812.0" y="2144.0" type="curve" smooth="yes"/>
      <point x="476.0" y="2144.0"/>
      <point x="260.0" y="1960.0"/>
      <point x="260.0" y="1580.0" type="curve" smooth="yes"/>
    </contour>
  </outline>
</glyph>
<glyph name="g" format="1">
  <advance width="1620"/>
  <unicode hex="0067"/>
  <outline>
    <contour>
      <point x="1076" y="1528" type="line"/>
      <point x="1040" y="1240" type="line"/>
      <point x="1216" y="740" type="line"/>
      <point x="996" y="148" type="line"/>
      <point x="1044" y="108" type="line"/>
      <point x="1044" y="92" type="line"/>
      <point x="1044" y="-140"/>
      <point x="936" y="-232"/>
      <point x="732" y="-232" type="curve" smooth="yes"/>
      <point x="572" y="-232"/>
      <point x="444" y="-172"/>
      <point x="348" y="-100" type="curve"/>
      <point x="156" y="-396" type="line"/>
      <point x="240" y="-480"/>
      <point x="472" y="-588"/>
      <point x="748" y="-588" type="curve" smooth="yes"/>
      <point x="1192" y="-588"/>
      <point x="1492" y="-356"/>
      <point x="1492" y="68" type="curve" smooth="yes"/>
      <point x="1492" y="1528" type="line"/>
    </contour>
    <contour>
      <point x="1236" y="1040" type="line"/>
      <point x="1188" y="1320"/>
      <point x="1060" y="1556"/>
      <point x="736" y="1556" type="curve" smooth="yes"/>
      <point x="356" y="1556"/>
      <point x="80" y="1228"/>
      <point x="80" y="784" type="curve"/>
      <point x="80" y="332"/>
      <point x="356" y="12"/>
      <point x="740" y="12" type="curve"/>
      <point x="1060" y="12"/>
      <point x="1196" y="236"/>
      <point x="1236" y="500" type="curve"/>
      <point x="1256" y="804" type="line"/>
      <point x="1084" y="804" type="line"/>
      <point x="1084" y="740"/>
      <point x="1076" y="636"/>
      <point x="1060" y="572" type="curve"/>
      <point x="1040" y="488"/>
      <point x="968" y="368"/>
      <point x="796" y="368" type="curve" smooth="yes"/>
      <point x="588" y="368"/>
      <point x="516" y="544"/>
      <point x="516" y="784" type="curve"/>
      <point x="516" y="1016"/>
      <point x="588" y="1200"/>
      <point x="792" y="1200" type="curve"/>
      <point x="992" y="1200"/>
      <point x="1048" y="1032"/>
      <point x="1064" y="964" type="curve"/>
      <point x="1080" y="904"/>
      <point x="1084" y="836"/>
      <point x="1084" y="772" type="curve"/>
      <point x="1256" y="772" type="line"/>
    </contour>
    <contour>
      <point x="1004" y="96" type="line"/>
      <point x="1148" y="96" type="line"/>
      <point x="1148" y="312" type="line"/>
      <point x="1004" y="312" type="line"/>
    </contour>
    <contour>
      <point x="1028" y="1192" type="line"/>
      <point x="1176" y="1192" type="line"/>
      <point x="1176" y="1440" type="line"/>
      <point x="1028" y="1440" type="line"/>
    </contour>
    <contour>
      <point x="760.0" y="1776.0" type="move" name="top"/>
    </contour>
    <contour>
      <point x="780.0" y="-568.0" type="move" name="bottom"/>
    </contour>
    <contour>
      <point x="1612.0" y="2200.0" type="move" name="top_dd"/>
    </contour>
    <contour>
      <point x="1612.0" y="-560.0" type="move" name="bottom_dd"/>
    </contour>
    <contour>
      <point x="1612.0" y="1776.0" type="move" name="top0315"/>
    </contour>
  </outline>
</glyph>
<glyph name="h" format="2">
  <advance width="1820.0"/>
  <unicode hex="0068"/>
  <note>
based on "n" and made slightly wider, brining the top vertical stem with it out.
</note>
  <guideline x="12.0" y="1240.0" angle="0.0"/>
  <guideline x="12.0" y="764.0" angle="0.0"/>
  <guideline x="408.0" y="1696.0" angle="90.0"/>
  <outline>
    <contour>
      <point x="692.0" y="864.0" type="line" smooth="yes"/>
      <point x="693.0" y="1016.0"/>
      <point x="781.0" y="1108.0"/>
      <point x="916.0" y="1108.0" type="curve" smooth="yes"/>
      <point x="1057.0" y="1108.0"/>
      <point x="1137.0" y="1016.0"/>
      <point x="1136.0" y="864.0" type="curve" smooth="yes"/>
      <point x="1136.0" y="0.0" type="line"/>
      <point x="1688.0" y="0.0" type="line"/>
      <point x="1688.0" y="980.0" type="line" smooth="yes"/>
      <point x="1689.0" y="1316.0"/>
      <point x="1477.0" y="1556.0"/>
      <point x="1152.0" y="1556.0" type="curve" smooth="yes"/>
      <point x="925.0" y="1556.0"/>
      <point x="757.0" y="1440.0"/>
      <point x="688.0" y="1244.0" type="curve"/>
      <point x="672.0" y="1244.0" type="line"/>
      <point x="672.0" y="2048.0" type="line"/>
      <point x="140.0" y="2048.0" type="line"/>
      <point x="140.0" y="0.0" type="line"/>
      <point x="692.0" y="0.0" type="line"/>
    </contour>
  </outline>
</glyph>
<glyph name="i" format="1">
  <advance width="748"/>
  <unicode hex="0069"/>
  <outline>
    <contour>
      <point x="604" y="1536" type="line"/>
      <point x="144" y="1536" type="line"/>
      <point x="144" y="0" type="line"/>
      <point x="604" y="0" type="line"/>
    </contour>
    <contour>
      <point x="128" y="1860" type="curve" smooth="yes"/>
      <point x="128" y="1728"/>
      <point x="224" y="1636"/>
      <point x="372" y="1636" type="curve" smooth="yes"/>
      <point x="520" y="1636"/>
      <point x="620" y="1728"/>
      <point x="620" y="1860" type="curve" smooth="yes"/>
      <point x="620" y="1992"/>
      <point x="520" y="2084"/>
      <point x="372" y="2084" type="curve" smooth="yes"/>
      <point x="224" y="2084"/>
      <point x="128" y="1992"/>
    </contour>
    <contour>
      <point x="372" y="16" type="move" name="bottom"/>
    </contour>
    <contour>
      <point x="524" y="0" type="move" name="ogonek"/>
    </contour>
    <contour>
      <point x="372" y="2200" type="move" name="top"/>
    </contour>
    <contour>
      <point x="756" y="2200" type="move" name="top_dd"/>
    </contour>
    <contour>
      <point x="756" y="-560" type="move" name="bottom_dd"/>
    </contour>
    <contour>
      <point x="476" y="900" type="move" name="rhotichook"/>
    </contour>
    <contour>
      <point x="756" y="2200" type="move" name="top0315"/>
    </contour>
  </outline>
</glyph>
<glyph name="j" format="1">
  <advance width="948"/>
  <unicode hex="006A"/>
  <outline>
    <contour>
      <point x="564" y="1620" type="curve" smooth="yes"/>
      <point x="700" y="1620"/>
      <point x="808" y="1724"/>
      <point x="808" y="1848" type="curve" smooth="yes"/>
      <point x="808" y="1972"/>
      <point x="700" y="2076"/>
      <point x="564" y="2076" type="curve" smooth="yes"/>
      <point x="428" y="2076"/>
      <point x="316" y="1972"/>
      <point x="316" y="1848" type="curve" smooth="yes"/>
      <point x="316" y="1724"/>
      <point x="428" y="1620"/>
    </contour>
    <component base="dotlessj"/>
    <contour>
      <point x="564" y="2200" type="move" name="top"/>
    </contour>
    <contour>
      <point x="488" y="-572" type="move" name="bottom"/>
    </contour>
    <contour>
      <point x="916" y="2200" type="move" name="top_dd"/>
    </contour>
    <contour>
      <point x="916" y="-560" type="move" name="bottom_dd"/>
    </contour>
    <contour>
      <point x="916" y="2200" type="move" name="top0315"/>
    </contour>
  </outline>
</glyph>
<glyph name="k" format="1">
  <advance width="1556"/>
  <unicode hex="006B"/>
  <outline>
    <contour>
      <point x="588" y="2048" type="line"/>
      <point x="128" y="2048" type="line"/>
      <point x="128" y="0" type="line"/>
      <point x="588" y="0" type="line"/>
    </contour>
    <contour>
      <point x="1548.0" y="1536.0" type="line"/>
      <point x="1016.0" y="1536.0" type="line"/>
      <point x="608.0" y="1028.0" type="line"/>
      <point x="544.0" y="1028.0" type="line"/>
      <point x="544" y="408" type="line"/>
      <point x="848" y="756" type="line"/>
      <point x="892" y="756" type="line"/>
    </contour>
    <contour>
      <point x="1076" y="0" type="line"/>
      <point x="1572" y="0" type="line"/>
      <point x="972" y="920" type="line"/>
      <point x="660" y="648" type="line"/>
    </contour>
    <contour>
      <point x="768.0" y="0.0" type="move" name="bottom"/>
    </contour>
    <contour>
      <point x="276.0" y="1784.0" type="move" name="cross"/>
    </contour>
    <contour>
      <point x="860.0" y="2200.0" type="move" name="top"/>
    </contour>
    <contour>
      <point x="860.0" y="2200.0" type="move" name="marktop"/>
    </contour>
    <contour>
      <point x="1444.0" y="2200.0" type="move" name="top_dd"/>
    </contour>
    <contour>
      <point x="1444.0" y="-560.0" type="move" name="bottom_dd"/>
    </contour>
    <contour>
      <point x="1264.0" y="2200.0" type="move" name="top0315"/>
    </contour>
  </outline>
</glyph>
<glyph name="l" format="1">
  <advance width="764"/>
  <unicode hex="006C"/>
  <outline>
    <contour>
      <point x="612" y="2048" type="line"/>
      <point x="152" y="2048" type="line"/>
      <point x="152" y="0" type="line"/>
      <point x="612" y="0" type="line"/>
    </contour>
    <contour>
      <point x="384" y="2308" type="move" name="top"/>
    </contour>
    <contour>
      <point x="384" y="0" type="move" name="bottom"/>
    </contour>
    <contour>
      <point x="756" y="2112" type="move" name="caron"/>
    </contour>
    <contour>
      <point x="740" y="1072" type="move" name="dot"/>
    </contour>
    <contour>
      <point x="948" y="2044" type="move" name="marktop"/>
    </contour>
    <contour>
      <point x="768" y="2200" type="move" name="top_dd"/>
    </contour>
    <contour>
      <point x="768" y="-560" type="move" name="bottom_dd"/>
    </contour>
    <contour>
      <point x="768" y="2308" type="move" name="top0315"/>
    </contour>
  </outline>
</glyph>
<glyph name="m" format="2">
  <advance width="2440.0"/>
  <unicode hex="006D"/>
  <guideline x="1204.0" y="-220.0" angle="90.0"/>
  <anchor x="1220.0" y="0.0" name="bottom"/>
  <anchor x="2380.0" y="-560.0" name="bottom_dd"/>
  <anchor x="1220.0" y="1776.0" name="marktop"/>
  <anchor x="1220.0" y="1776.0" name="top"/>
  <anchor x="2380.0" y="1776.0" name="top0315"/>
  <anchor x="2380.0" y="2200.0" name="top_dd"/>
  <outline>
    <contour>
      <point x="1444.0" y="952.0" type="line" smooth="yes"/>
      <point x="1444.0" y="1120.0"/>
      <point x="1520.0" y="1192.0"/>
      <point x="1644.0" y="1192.0" type="curve" smooth="yes"/>
      <point x="1752.0" y="1192.0"/>
      <point x="1836.0" y="1136.0"/>
      <point x="1836.0" y="960.0" type="curve" smooth="yes"/>
      <point x="1836.0" y="0.0" type="line"/>
      <point x="2296.0" y="0.0" type="line"/>
      <point x="2296.0" y="960.0" type="line" smooth="yes"/>
      <point x="2296.0" y="1404.0"/>
      <point x="2088.0" y="1556.0"/>
      <point x="1828.0" y="1556.0" type="curve" smooth="yes"/>
      <point x="1632.0" y="1556.0"/>
      <point x="1480.0" y="1468.0"/>
      <point x="1396.0" y="1344.0" type="curve"/>
      <point x="1380.0" y="1344.0" type="line"/>
      <point x="1316.0" y="1480.0"/>
      <point x="1188.0" y="1556.0"/>
      <point x="1004.0" y="1556.0" type="curve" smooth="yes"/>
      <point x="816.0" y="1556.0"/>
      <point x="692.0" y="1480.0"/>
      <point x="604.0" y="1372.0" type="curve"/>
      <point x="592.0" y="1372.0" type="line"/>
      <point x="592.0" y="1536.0" type="line"/>
      <point x="144.0" y="1536.0" type="line"/>
      <point x="144.0" y="0.0" type="line"/>
      <point x="604.0" y="0.0" type="line"/>
      <point x="604.0" y="968.0" type="line"/>
      <point x="604.0" y="1132.0"/>
      <point x="688.0" y="1192.0"/>
      <point x="792.0" y="1192.0" type="curve" smooth="yes"/>
      <point x="908.0" y="1192.0"/>
      <point x="1000.0" y="1124.0"/>
      <point x="1000.0" y="960.0" type="curve" smooth="yes"/>
      <point x="1000.0" y="0.0" type="line"/>
      <point x="1444.0" y="0.0" type="line"/>
    </contour>
  </outline>
</glyph>
<glyph name="n" format="1">
  <advance width="1672"/>
  <unicode hex="006E"/>
  <outline>
    <contour>
      <point x="612" y="816" type="line" smooth="yes"/>
      <point x="612" y="1032"/>
      <point x="668" y="1192"/>
      <point x="840" y="1192" type="curve" smooth="yes"/>
      <point x="964" y="1192"/>
      <point x="1060" y="1108"/>
      <point x="1060" y="944" type="curve" smooth="yes"/>
      <point x="1060" y="0" type="line"/>
      <point x="1520" y="0" type="line"/>
      <point x="1520" y="960" type="line" smooth="yes"/>
      <point x="1520" y="1404"/>
      <point x="1264" y="1556"/>
      <point x="1004" y="1556" type="curve" smooth="yes"/>
      <point x="828" y="1556"/>
      <point x="680" y="1484"/>
      <point x="592" y="1372" type="curve"/>
      <point x="576" y="1372" type="line"/>
      <point x="576" y="1536" type="line"/>
      <point x="152" y="1536" type="line"/>
      <point x="152" y="0" type="line"/>
      <point x="612" y="0" type="line"/>
    </contour>
    <contour>
      <point x="840" y="1776" type="move" name="top"/>
    </contour>
    <contour>
      <point x="840" y="0" type="move" name="bottom"/>
    </contour>
    <contour>
      <point x="-128" y="2108" type="move" name="caron"/>
    </contour>
    <contour>
      <point x="1456" y="0" type="move" name="right"/>
    </contour>
    <contour>
      <point x="840" y="1776" type="move" name="marktop"/>
    </contour>
    <contour>
      <point x="1584" y="2200" type="move" name="top_dd"/>
    </contour>
    <contour>
      <point x="1584" y="-560" type="move" name="bottom_dd"/>
    </contour>
    <contour>
      <point x="1584" y="1776" type="move" name="top0315"/>
    </contour>
  </outline>
</glyph>
<glyph name="o" format="1">
  <advance width="1656"/>
  <unicode hex="006F"/>
  <outline>
    <contour>
      <point x="828" y="-28" type="curve" smooth="yes"/>
      <point x="1280" y="-28"/>
      <point x="1552" y="304"/>
      <point x="1552" y="768" type="curve" smooth="yes"/>
      <point x="1552" y="1232"/>
      <point x="1280" y="1556"/>
      <point x="828" y="1556" type="curve" smooth="yes"/>
      <point x="376" y="1556"/>
      <point x="104" y="1232"/>
      <point x="104" y="768" type="curve" smooth="yes"/>
      <point x="104" y="304"/>
      <point x="376" y="-28"/>
    </contour>
    <contour>
      <point x="828" y="340" type="curve" smooth="yes"/>
      <point x="620" y="340"/>
      <point x="540" y="512"/>
      <point x="540" y="768" type="curve" smooth="yes"/>
      <point x="540" y="1024"/>
      <point x="620" y="1192"/>
      <point x="828" y="1192" type="curve" smooth="yes"/>
      <point x="1036" y="1192"/>
      <point x="1116" y="1024"/>
      <point x="1116" y="768" type="curve" smooth="yes"/>
      <point x="1116" y="512"/>
      <point x="1036" y="340"/>
    </contour>
    <contour>
      <point x="796" y="1776" type="move" name="top"/>
    </contour>
    <contour>
      <point x="800" y="0" type="move" name="bottom"/>
    </contour>
    <contour>
      <point x="1588" y="2200" type="move" name="top_dd"/>
    </contour>
    <contour>
      <point x="1716" y="-560" type="move" name="bottom_dd"/>
    </contour>
    <contour>
      <point x="1456" y="900" type="move" name="rhotichook"/>
    </contour>
    <contour>
      <point x="1588" y="1776" type="move" name="top0315"/>
    </contour>
  </outline>
</glyph>
<glyph name="p" format="2">
  <advance width="1652.0"/>
  <unicode hex="0070"/>
  <anchor x="376.0" y="-560.0" name="bottom"/>
  <anchor x="1716.0" y="-560.0" name="bottom_dd"/>
  <anchor x="1060.0" y="1760.0" name="marktop"/>
  <anchor x="1060.0" y="1760.0" name="top"/>
  <anchor x="1716.0" y="1760.0" name="top0315"/>
  <anchor x="1716.0" y="2200.0" name="top_dd"/>
  <outline>
    <contour>
      <point x="144.0" y="-576.0" type="line"/>
      <point x="604.0" y="-576.0" type="line"/>
      <point x="604.0" y="292.0" type="line"/>
      <point x="436.0" y="736.0" type="line"/>
      <point x="600.0" y="1192.0" type="line"/>
      <point x="600.0" y="1244.0" type="line"/>
      <point x="600.0" y="1536.0" type="line"/>
      <point x="144.0" y="1536.0" type="line"/>
    </contour>
    <contour>
      <point x="420.0" y="1372.0" type="line"/>
      <point x="420.0" y="156.0" type="line"/>
      <point x="620.0" y="156.0" type="line"/>
      <point x="672.0" y="40.0"/>
      <point x="804.0" y="-24.0"/>
      <point x="964.0" y="-24.0" type="curve" smooth="yes"/>
      <point x="1288.0" y="-24.0"/>
      <point x="1556.0" y="244.0"/>
      <point x="1556.0" y="768.0" type="curve" smooth="yes"/>
      <point x="1556.0" y="1304.0"/>
      <point x="1272.0" y="1556.0"/>
      <point x="964.0" y="1556.0" type="curve" smooth="yes"/>
      <point x="804.0" y="1556.0"/>
      <point x="672.0" y="1488.0"/>
      <point x="620.0" y="1372.0" type="curve"/>
    </contour>
    <contour>
      <point x="1124.0" y="768.0" type="curve" smooth="yes"/>
      <point x="1124.0" y="500.0"/>
      <point x="1024.0" y="340.0"/>
      <point x="828.0" y="340.0" type="curve" smooth="yes"/>
      <point x="612.0" y="340.0"/>
      <point x="552.0" y="536.0"/>
      <point x="552.0" y="768.0" type="curve" smooth="yes"/>
      <point x="552.0" y="1004.0"/>
      <point x="616.0" y="1192.0"/>
      <point x="828.0" y="1192.0" type="curve" smooth="yes"/>
      <point x="1024.0" y="1192.0"/>
      <point x="1124.0" y="1036.0"/>
    </contour>
  </outline>
</glyph>
<glyph name="q" format="2">
  <advance width="1652.0"/>
  <unicode hex="0071"/>
  <anchor x="1240.0" y="-560.0" name="bottom"/>
  <anchor x="1608.0" y="-560.0" name="bottom_dd"/>
  <anchor x="760.0" y="1776.0" name="marktop"/>
  <anchor x="760.0" y="1776.0" name="top"/>
  <anchor x="1608.0" y="1776.0" name="top0315"/>
  <anchor x="1608.0" y="2200.0" name="top_dd"/>
  <outline>
    <contour>
      <point x="1508.0" y="1536.0" type="line"/>
      <point x="1052.0" y="1536.0" type="line"/>
      <point x="1052.0" y="1264.0" type="line"/>
      <point x="1052.0" y="1196.0" type="line"/>
      <point x="1200.0" y="748.0" type="line"/>
      <point x="1048.0" y="276.0" type="line"/>
      <point x="1048.0" y="-576.0" type="line"/>
      <point x="1508.0" y="-576.0" type="line"/>
    </contour>
    <contour>
      <point x="1232.0" y="1372.0" type="line"/>
      <point x="1032.0" y="1372.0" type="line"/>
      <point x="980.0" y="1488.0"/>
      <point x="848.0" y="1556.0"/>
      <point x="688.0" y="1556.0" type="curve" smooth="yes"/>
      <point x="380.0" y="1556.0"/>
      <point x="96.0" y="1304.0"/>
      <point x="96.0" y="768.0" type="curve" smooth="yes"/>
      <point x="96.0" y="244.0"/>
      <point x="364.0" y="-24.0"/>
      <point x="688.0" y="-24.0" type="curve" smooth="yes"/>
      <point x="848.0" y="-24.0"/>
      <point x="980.0" y="40.0"/>
      <point x="1032.0" y="156.0" type="curve"/>
      <point x="1232.0" y="156.0" type="line"/>
    </contour>
    <contour>
      <point x="528.0" y="768.0" type="curve" smooth="yes"/>
      <point x="528.0" y="1036.0"/>
      <point x="628.0" y="1192.0"/>
      <point x="824.0" y="1192.0" type="curve" smooth="yes"/>
      <point x="1036.0" y="1192.0"/>
      <point x="1100.0" y="1004.0"/>
      <point x="1100.0" y="768.0" type="curve" smooth="yes"/>
      <point x="1100.0" y="536.0"/>
      <point x="1040.0" y="340.0"/>
      <point x="824.0" y="340.0" type="curve" smooth="yes"/>
      <point x="628.0" y="340.0"/>
      <point x="528.0" y="500.0"/>
    </contour>
  </outline>
</glyph>
<glyph name="r" format="1">
  <advance width="1160"/>
  <unicode hex="0072"/>
  <outline>
    <contour>
      <point x="1128" y="1512" type="line"/>
      <point x="1084" y="1536"/>
      <point x="1004" y="1556"/>
      <point x="924" y="1556" type="curve"/>
      <point x="788" y="1556"/>
      <point x="660" y="1500"/>
      <point x="616" y="1340" type="curve"/>
      <point x="604" y="1340" type="line"/>
      <point x="604" y="1536" type="line"/>
      <point x="144" y="1536" type="line"/>
      <point x="144" y="0" type="line"/>
      <point x="604" y="0" type="line"/>
      <point x="604" y="872" type="line"/>
      <point x="604" y="1024"/>
      <point x="700" y="1148"/>
      <point x="852" y="1148" type="curve"/>
      <point x="908" y="1148"/>
      <point x="968" y="1132"/>
      <point x="988" y="1120" type="curve"/>
    </contour>
    <contour>
      <point x="620" y="1776" type="move" name="top"/>
    </contour>
    <contour>
      <point x="376" y="0" type="move" name="bottom"/>
    </contour>
    <contour>
      <point x="1108" y="2200" type="move" name="top_dd"/>
    </contour>
    <contour>
      <point x="1108" y="-560" type="move" name="bottom_dd"/>
    </contour>
    <contour>
      <point x="1108" y="1776" type="move" name="top0315"/>
    </contour>
  </outline>
</glyph>
<glyph name="s" format="1">
  <advance width="1488"/>
  <unicode hex="0073"/>
  <outline>
    <contour>
      <point x="128" y="1104" type="curve"/>
      <point x="128" y="940"/>
      <point x="232" y="756"/>
      <point x="516" y="660" type="curve" smooth="yes"/>
      <point x="612" y="628" type="line" smooth="yes"/>
      <point x="788" y="568"/>
      <point x="920" y="532"/>
      <point x="920" y="452" type="curve" smooth="yes"/>
      <point x="920" y="376"/>
      <point x="832" y="340"/>
      <point x="728" y="348" type="curve" smooth="yes"/>
      <point x="584" y="360"/>
      <point x="528" y="452"/>
      <point x="500" y="536" type="curve"/>
      <point x="80" y="472" type="line"/>
      <point x="128" y="164"/>
      <point x="400" y="-28"/>
      <point x="760" y="-28" type="curve" smooth="yes"/>
      <point x="1124" y="-28"/>
      <point x="1364" y="164"/>
      <point x="1364" y="432" type="curve" smooth="yes"/>
      <point x="1364" y="636"/>
      <point x="1224" y="836"/>
      <point x="916" y="936" type="curve" smooth="yes"/>
      <point x="828" y="964" type="line" smooth="yes"/>
      <point x="696" y="1004"/>
      <point x="600" y="1012"/>
      <point x="600" y="1092" type="curve" smooth="yes"/>
      <point x="600" y="1164"/>
      <point x="692" y="1208"/>
      <point x="788" y="1196" type="curve" smooth="yes"/>
      <point x="888" y="1184"/>
      <point x="948" y="1116"/>
      <point x="972" y="1024" type="curve"/>
      <point x="1380" y="1084" type="line"/>
      <point x="1344" y="1360"/>
      <point x="1092" y="1556"/>
      <point x="752" y="1556" type="curve" smooth="yes"/>
      <point x="432" y="1556"/>
      <point x="128" y="1384"/>
    </contour>
    <contour>
      <point x="760" y="1776" type="move" name="top"/>
    </contour>
    <contour>
      <point x="700" y="0" type="move" name="bottom"/>
    </contour>
    <contour>
      <point x="1496" y="2200" type="move" name="top_dd"/>
    </contour>
    <contour>
      <point x="1496" y="-560" type="move" name="bottom_dd"/>
    </contour>
    <contour>
      <point x="1496" y="1776" type="move" name="top0315"/>
    </contour>
  </outline>
</glyph>
<glyph name="t" format="1">
  <advance width="1064"/>
  <unicode hex="0074"/>
  <outline>
    <contour>
      <point x="948" y="1536" type="line"/>
      <point x="76" y="1536" type="line"/>
      <point x="76" y="1216" type="line"/>
      <point x="948" y="1216" type="line"/>
    </contour>
    <contour>
      <point x="248" y="1864" type="line"/>
      <point x="248" y="428" type="line"/>
      <point x="248" y="156"/>
      <point x="444" y="-20"/>
      <point x="692" y="-20" type="curve" smooth="yes"/>
      <point x="860" y="-20"/>
      <point x="976" y="12"/>
      <point x="1004" y="24" type="curve"/>
      <point x="936" y="364" type="line"/>
      <point x="908" y="356"/>
      <point x="868" y="352"/>
      <point x="840" y="352" type="curve" smooth="yes"/>
      <point x="764" y="352"/>
      <point x="708" y="368"/>
      <point x="708" y="484" type="curve"/>
      <point x="708" y="1864" type="line"/>
    </contour>
    <contour>
      <point x="628" y="0" type="move" name="bottom"/>
    </contour>
    <contour>
      <point x="892" y="2296" type="move" name="caron"/>
    </contour>
    <contour>
      <point x="484" y="824" type="move" name="cross"/>
    </contour>
    <contour>
      <point x="512" y="2032" type="move" name="top"/>
    </contour>
    <contour>
      <point x="1008" y="1756" type="move" name="marktop"/>
    </contour>
    <contour>
      <point x="1004" y="2200" type="move" name="top_dd"/>
    </contour>
    <contour>
      <point x="1004" y="-560" type="move" name="bottom_dd"/>
    </contour>
    <contour>
      <point x="1004" y="2032" type="move" name="top0315"/>
    </contour>
  </outline>
</glyph>
<glyph name="u" format="2">
  <advance width="1828.0"/>
  <unicode hex="0075"/>
  <outline>
    <contour>
      <point x="1136.0" y="672.0" type="line" smooth="yes"/>
      <point x="1137.0" y="520.0"/>
      <point x="1049.0" y="428.0"/>
      <point x="912.0" y="428.0" type="curve" smooth="yes"/>
      <point x="773.0" y="428.0"/>
      <point x="693.0" y="520.0"/>
      <point x="692.0" y="672.0" type="curve" smooth="yes"/>
      <point x="692.0" y="1536.0" type="line"/>
      <point x="140.0" y="1536.0" type="line"/>
      <point x="140.0" y="556.0" type="line" smooth="yes"/>
      <point x="141.0" y="220.0"/>
      <point x="353.0" y="-20.0"/>
      <point x="676.0" y="-20.0" type="curve" smooth="yes"/>
      <point x="905.0" y="-20.0"/>
      <point x="1081.0" y="96.0"/>
      <point x="1148.0" y="292.0" type="curve"/>
      <point x="1164.0" y="292.0" type="line"/>
      <point x="1164.0" y="0.0" type="line"/>
      <point x="1688.0" y="0.0" type="line"/>
      <point x="1688.0" y="1536.0" type="line"/>
      <point x="1136.0" y="1536.0" type="line"/>
    </contour>
  </outline>
</glyph>
<glyph name="v" format="2">
  <advance width="1704.0"/>
  <unicode hex="0076"/>
  <outline>
    <contour>
      <point x="1688.0" y="1536.0" type="line"/>
      <point x="1108.0" y="1536.0" type="line"/>
      <point x="860.0" y="520.0" type="line"/>
      <point x="844.0" y="520.0" type="line"/>
      <point x="596.0" y="1536.0" type="line"/>
      <point x="16.0" y="1536.0" type="line"/>
      <point x="532.0" y="0.0" type="line"/>
      <point x="1172.0" y="0.0" type="line"/>
    </contour>
  </outline>
</glyph>
<glyph name="w" format="2">
  <advance width="2288.0"/>
  <unicode hex="0077"/>
  <guideline x="1084.0" y="776.0" angle="90.0"/>
  <outline>
    <contour>
      <point x="468.0" y="0.0" type="line"/>
      <point x="900.0" y="0.0" type="line"/>
      <point x="1128.0" y="720.0" type="line"/>
      <point x="1152.0" y="720.0" type="line"/>
      <point x="1388.0" y="0.0" type="line"/>
      <point x="1820.0" y="0.0" type="line"/>
      <point x="2188.0" y="1536.0" type="line"/>
      <point x="1664.0" y="1536.0" type="line"/>
      <point x="1556.0" y="728.0" type="line"/>
      <point x="1532.0" y="728.0" type="line"/>
      <point x="1312.0" y="1536.0" type="line"/>
      <point x="968.0" y="1536.0" type="line"/>
      <point x="748.0" y="720.0" type="line"/>
      <point x="724.0" y="720.0" type="line"/>
      <point x="620.0" y="1536.0" type="line"/>
      <point x="100.0" y="1536.0" type="line"/>
    </contour>
  </outline>
</glyph>
<glyph name="x" format="1">
  <advance width="1584"/>
  <unicode hex="0078"/>
  <outline>
    <contour>
      <point x="572" y="1536" type="line"/>
      <point x="104" y="1536" type="line"/>
      <point x="504" y="768" type="line"/>
      <point x="84" y="0" type="line"/>
      <point x="552" y="0" type="line"/>
      <point x="792" y="436" type="line"/>
      <point x="1036" y="0" type="line"/>
      <point x="1500" y="0" type="line"/>
      <point x="1080" y="768" type="line"/>
      <point x="1484" y="1536" type="line"/>
      <point x="1020" y="1536" type="line"/>
      <point x="792" y="1096" type="line"/>
    </contour>
    <contour>
      <point x="792" y="0" type="move" name="bottom"/>
    </contour>
    <contour>
      <point x="1260" y="0" type="move" name="right"/>
    </contour>
    <contour>
      <point x="792" y="760" type="move" name="cross"/>
    </contour>
    <contour>
      <point x="792" y="1760" type="move" name="top"/>
    </contour>
    <contour>
      <point x="1508" y="2200" type="move" name="top_dd"/>
    </contour>
    <contour>
      <point x="1508" y="-560" type="move" name="bottom_dd"/>
    </contour>
    <contour>
      <point x="1508" y="1760" type="move" name="top0315"/>
    </contour>
  </outline>
</glyph>
<glyph name="y" format="1">
  <advance width="1584"/>
  <unicode hex="0079"/>
  <outline>
    <contour>
      <point x="588" y="-24" type="line" smooth="yes"/>
      <point x="552" y="-148"/>
      <point x="484" y="-224"/>
      <point x="308" y="-224" type="curve" smooth="yes"/>
      <point x="288" y="-224"/>
      <point x="284" y="-224"/>
      <point x="248" y="-220" type="curve"/>
      <point x="248" y="-572" type="line"/>
      <point x="324" y="-596"/>
      <point x="352" y="-600"/>
      <point x="436" y="-600" type="curve" smooth="yes"/>
      <point x="768" y="-600"/>
      <point x="928" y="-372"/>
      <point x="976" y="-220" type="curve" smooth="yes"/>
      <point x="1520" y="1536" type="line"/>
      <point x="1044" y="1536" type="line"/>
    </contour>
    <contour>
      <point x="540" y="1536" type="line"/>
      <point x="64" y="1536" type="line"/>
      <point x="624" y="4" type="line"/>
      <point x="932" y="4" type="line"/>
      <point x="876" y="496" type="line"/>
    </contour>
    <contour>
      <point x="804" y="1776" type="move" name="top"/>
    </contour>
    <contour>
      <point x="756" y="-576" type="move" name="bottom"/>
    </contour>
    <contour>
      <point x="804" y="1776" type="move" name="marktop"/>
    </contour>
    <contour>
      <point x="1512" y="2200" type="move" name="top_dd"/>
    </contour>
    <contour>
      <point x="1512" y="-560" type="move" name="bottom_dd"/>
    </contour>
    <contour>
      <point x="1192" y="900" type="move" name="rhotichook"/>
    </contour>
    <contour>
      <point x="1512" y="1776" type="move" name="top0315"/>
    </contour>
  </outline>
</glyph>
<glyph name="z" format="1">
  <advance width="1560"/>
  <unicode hex="007A"/>
  <outline>
    <contour>
      <point x="1408" y="360" type="line"/>
      <point x="264" y="360" type="line"/>
      <point x="264" y="0" type="line"/>
      <point x="1408" y="0" type="line"/>
    </contour>
    <contour>
      <point x="1392" y="1276" type="line"/>
      <point x="1392" y="1536" type="line"/>
      <point x="1088" y="1536" type="line"/>
      <point x="152" y="260" type="line"/>
      <point x="152" y="0" type="line"/>
      <point x="456" y="0" type="line"/>
    </contour>
    <contour>
      <point x="1244" y="1536" type="line"/>
      <point x="180" y="1536" type="line"/>
      <point x="180" y="1176" type="line"/>
      <point x="1244" y="1176" type="line"/>
    </contour>
    <contour>
      <point x="772" y="1776" type="move" name="top"/>
    </contour>
    <contour>
      <point x="772" y="0" type="move" name="bottom"/>
    </contour>
    <contour>
      <point x="1504" y="2200" type="move" name="top_dd"/>
    </contour>
    <contour>
      <point x="1504" y="-560" type="move" name="bottom_dd"/>
    </contour>
    <contour>
      <point x="1504" y="1776" type="move" name="top0315"/>
    </contour>
  </outline>
</glyph>
<glyph name="braceleft" format="1">
  <advance width="1072"/>
  <unicode hex="007B"/>
  <outline>
    <contour>
      <point x="856" y="2196" type="line"/>
      <point x="480" y="2092"/>
      <point x="364" y="1844"/>
      <point x="364" y="1556" type="curve"/>
      <point x="364" y="1276" type="line"/>
      <point x="364" y="1112"/>
      <point x="296" y="1008"/>
      <point x="132" y="1008" type="curve"/>
      <point x="132" y="780" type="line"/>
      <point x="568" y="780"/>
      <point x="752" y="1000"/>
      <point x="752" y="1276" type="curve"/>
      <point x="752" y="1556" type="line"/>
      <point x="752" y="1744"/>
      <point x="792" y="1900"/>
      <point x="940" y="1956" type="curve"/>
    </contour>
    <contour>
      <point x="940" y="-252" type="line"/>
      <point x="792" y="-196"/>
      <point x="752" y="-40"/>
      <point x="752" y="148" type="curve" smooth="yes"/>
      <point x="752" y="424" type="line" smooth="yes"/>
      <point x="752" y="704"/>
      <point x="568" y="924"/>
      <point x="132" y="924" type="curve"/>
      <point x="132" y="696" type="line"/>
      <point x="296" y="696"/>
      <point x="364" y="588"/>
      <point x="364" y="424" type="curve" smooth="yes"/>
      <point x="364" y="148" type="line" smooth="yes"/>
      <point x="364" y="-144"/>
      <point x="480" y="-388"/>
      <point x="856" y="-496" type="curve"/>
    </contour>
  </outline>
</glyph>
<glyph name="bar" format="2">
  <advance width="1140.0"/>
  <unicode hex="007C"/>
  <guideline x="-32.0" y="1240.0" angle="0.0"/>
  <guideline x="-32.0" y="764.0" angle="0.0"/>
  <outline>
    <contour>
      <point x="840.0" y="2708.0" type="line"/>
      <point x="300.0" y="2708.0" type="line"/>
      <point x="300.0" y="-660.0" type="line"/>
      <point x="840.0" y="-660.0" type="line"/>
    </contour>
  </outline>
</glyph>
<glyph name="braceright" format="2">
  <advance width="1204.0"/>
  <unicode hex="007D"/>
  <outline>
    <contour>
      <point x="228.0" y="-496.0" type="line"/>
      <point x="624.0" y="-388.0"/>
      <point x="760.0" y="-140.0"/>
      <point x="760.0" y="148.0" type="curve" smooth="yes"/>
      <point x="760.0" y="424.0" type="line" smooth="yes"/>
      <point x="760.0" y="576.0"/>
      <point x="828.0" y="676.0"/>
      <point x="988.0" y="676.0" type="curve"/>
      <point x="988.0" y="924.0" type="line"/>
      <point x="516.0" y="924.0"/>
      <point x="304.0" y="704.0"/>
      <point x="304.0" y="424.0" type="curve" smooth="yes"/>
      <point x="304.0" y="148.0" type="line" smooth="yes"/>
      <point x="304.0" y="-20.0"/>
      <point x="268.0" y="-172.0"/>
      <point x="132.0" y="-220.0" type="curve"/>
    </contour>
    <contour>
      <point x="988.0" y="780.0" type="curve"/>
      <point x="988.0" y="1028.0" type="line"/>
      <point x="828.0" y="1028.0"/>
      <point x="760.0" y="1124.0"/>
      <point x="760.0" y="1276.0" type="curve"/>
      <point x="760.0" y="1556.0" type="line"/>
      <point x="760.0" y="1840.0"/>
      <point x="624.0" y="2092.0"/>
      <point x="228.0" y="2196.0" type="curve"/>
      <point x="132.0" y="1924.0" type="line"/>
      <point x="268.0" y="1876.0"/>
      <point x="304.0" y="1724.0"/>
      <point x="304.0" y="1556.0" type="curve"/>
      <point x="304.0" y="1276.0" type="line"/>
      <point x="304.0" y="1000.0"/>
      <point x="516.0" y="780.0"/>
    </contour>
  </outline>
</glyph>
<glyph name="asciitilde" format="2">
  <advance width="1824.0"/>
  <unicode hex="007E"/>
  <outline>
    <contour>
      <point x="1352.0" y="1100.0" type="line"/>
      <point x="1352.0" y="936.0"/>
      <point x="1284.0" y="864.0"/>
      <point x="1180.0" y="864.0" type="curve" smooth="yes"/>
      <point x="1104.0" y="864.0"/>
      <point x="1056.0" y="904.0"/>
      <point x="984.0" y="976.0" type="curve"/>
      <point x="868.0" y="1096.0"/>
      <point x="748.0" y="1152.0"/>
      <point x="612.0" y="1152.0" type="curve" smooth="yes"/>
      <point x="356.0" y="1152.0"/>
      <point x="152.0" y="952.0"/>
      <point x="152.0" y="564.0" type="curve"/>
      <point x="472.0" y="564.0" type="line"/>
      <point x="472.0" y="696.0"/>
      <point x="528.0" y="784.0"/>
      <point x="648.0" y="784.0" type="curve" smooth="yes"/>
      <point x="720.0" y="784.0"/>
      <point x="768.0" y="752.0"/>
      <point x="840.0" y="680.0" type="curve"/>
      <point x="968.0" y="556.0"/>
      <point x="1088.0" y="504.0"/>
      <point x="1220.0" y="504.0" type="curve" smooth="yes"/>
      <point x="1492.0" y="504.0"/>
      <point x="1672.0" y="728.0"/>
      <point x="1672.0" y="1100.0" type="curve"/>
    </contour>
  </outline>
</glyph>
<glyph name="cent" format="1">
  <advance width="1536"/>
  <unicode hex="00A2"/>
  <outline>
    <contour>
      <point x="916" y="1812" type="line"/>
      <point x="640" y="1812" type="line"/>
      <point x="640" y="1412" type="line"/>
      <point x="916" y="1412" type="line"/>
    </contour>
    <contour>
      <point x="916" y="64" type="line"/>
      <point x="640" y="64" type="line"/>
      <point x="640" y="-336" type="line"/>
      <point x="916" y="-336" type="line"/>
    </contour>
    <component base="c"/>
  </outline>
</glyph>
<glyph name="sterling" format="1">
  <advance width="1840"/>
  <unicode hex="00A3"/>
  <outline>
    <contour>
      <point x="1656" y="0" type="line"/>
      <point x="1656" y="384" type="line"/>
      <point x="188" y="384" type="line"/>
      <point x="188" y="0" type="line"/>
    </contour>
    <contour>
      <point x="1284" y="820" type="line"/>
      <point x="1284" y="1180" type="line"/>
      <point x="184" y="1180" type="line"/>
      <point x="184" y="820" type="line"/>
    </contour>
    <contour>
      <point x="848" y="1476" type="line"/>
      <point x="848" y="1632"/>
      <point x="916" y="1704"/>
      <point x="1020" y="1704" type="curve" smooth="yes"/>
      <point x="1132" y="1704"/>
      <point x="1220" y="1652"/>
      <point x="1220" y="1488" type="curve"/>
      <point x="1656" y="1488" type="line"/>
      <point x="1656" y="1840"/>
      <point x="1428" y="2076"/>
      <point x="1012" y="2076" type="curve" smooth="yes"/>
      <point x="636" y="2076"/>
      <point x="376" y="1856"/>
      <point x="388" y="1476" type="curve" smooth="yes"/>
      <point x="416" y="600" type="line" smooth="yes"/>
      <point x="420" y="496"/>
      <point x="408" y="404"/>
      <point x="328" y="384" type="curve"/>
      <point x="596" y="248" type="line"/>
      <point x="808" y="336"/>
      <point x="888" y="444"/>
      <point x="880" y="628" type="curve" smooth="yes"/>
    </contour>
  </outline>
</glyph>
<glyph name="currency" format="1">
  <advance width="2080"/>
  <unicode hex="00A4"/>
  <outline>
    <contour>
      <point x="476" y="836" type="curve"/>
      <point x="476" y="1176"/>
      <point x="724" y="1432"/>
      <point x="1040" y="1432" type="curve" smooth="yes"/>
      <point x="1348" y="1432"/>
      <point x="1600" y="1176"/>
      <point x="1600" y="836" type="curve" smooth="yes"/>
      <point x="1600" y="500"/>
      <point x="1348" y="240"/>
      <point x="1040" y="240" type="curve" smooth="yes"/>
      <point x="724" y="240"/>
      <point x="476" y="500"/>
    </contour>
    <contour>
      <point x="220" y="836" type="curve"/>
      <point x="220" y="348"/>
      <point x="588" y="-28"/>
      <point x="1040" y="-28" type="curve" smooth="yes"/>
      <point x="1488" y="-28"/>
      <point x="1856" y="348"/>
      <point x="1856" y="836" type="curve" smooth="yes"/>
      <point x="1856" y="1324"/>
      <point x="1488" y="1696"/>
      <point x="1040" y="1696" type="curve" smooth="yes"/>
      <point x="588" y="1696"/>
      <point x="220" y="1324"/>
    </contour>
    <contour>
      <point x="1912" y="1540" type="line"/>
      <point x="1716" y="1740" type="line"/>
      <point x="1440" y="1456" type="line"/>
      <point x="1632" y="1256" type="line"/>
    </contour>
    <contour>
      <point x="644" y="248" type="line"/>
      <point x="448" y="444" type="line"/>
      <point x="172" y="164" type="line"/>
      <point x="364" y="-36" type="line"/>
    </contour>
    <contour>
      <point x="1716" y="-36" type="line"/>
      <point x="1912" y="164" type="line"/>
      <point x="1632" y="444" type="line"/>
      <point x="1440" y="248" type="line"/>
    </contour>
    <contour>
      <point x="448" y="1256" type="line"/>
      <point x="644" y="1456" type="line"/>
      <point x="364" y="1740" type="line"/>
      <point x="172" y="1540" type="line"/>
    </contour>
  </outline>
</glyph>
<glyph name="yen" format="1">
  <advance width="1532"/>
  <unicode hex="00A5"/>
  <outline>
    <contour>
      <point x="1368" y="1064" type="line"/>
      <point x="112" y="1064" type="line"/>
      <point x="112" y="804" type="line"/>
      <point x="1368" y="804" type="line"/>
    </contour>
    <contour>
      <point x="1368" y="668" type="line"/>
      <point x="112" y="668" type="line"/>
      <point x="112" y="408" type="line"/>
      <point x="1368" y="408" type="line"/>
    </contour>
    <contour>
      <point x="664" y="1048" type="line"/>
      <point x="720" y="788" type="line"/>
      <point x="964" y="788" type="line"/>
      <point x="1512" y="2048" type="line"/>
      <point x="1040" y="2048" type="line"/>
    </contour>
    <contour>
      <point x="492" y="2048" type="line"/>
      <point x="20" y="2048" type="line"/>
      <point x="564" y="788" type="line"/>
      <point x="812" y="788" type="line"/>
      <point x="872" y="1036" type="line"/>
    </contour>
    <contour>
      <point x="988" y="1080" type="line"/>
      <point x="528" y="1080" type="line"/>
      <point x="528" y="0" type="line"/>
      <point x="988" y="0" type="line"/>
    </contour>
  </outline>
</glyph>
<glyph name="brokenbar" format="2">
  <advance width="1120.0"/>
  <unicode hex="00A6"/>
  <guideline x="828.0" y="1092.0" angle="0.0"/>
  <guideline x="864.0" y="576.0" angle="0.0"/>
  <outline>
    <contour>
      <point x="316.0" y="584.0" type="line"/>
      <point x="316.0" y="-384.0" type="line"/>
      <point x="804.0" y="-384.0" type="line"/>
      <point x="804.0" y="584.0" type="line"/>
    </contour>
    <contour>
      <point x="804.0" y="2048.0" type="line"/>
      <point x="316.0" y="2048.0" type="line"/>
      <point x="316.0" y="1084.0" type="line"/>
      <point x="804.0" y="1084.0" type="line"/>
    </contour>
  </outline>
</glyph>
<glyph name="section" format="1">
  <advance width="1584"/>
  <unicode hex="00A7"/>
  <outline>
    <contour>
      <point x="1360" y="1536" type="line"/>
      <point x="1360" y="1848"/>
      <point x="1124" y="2076"/>
      <point x="776" y="2076" type="curve"/>
      <point x="436" y="2076"/>
      <point x="200" y="1860"/>
      <point x="200" y="1564" type="curve"/>
      <point x="200" y="1404"/>
      <point x="268" y="1284"/>
      <point x="368" y="1184" type="curve"/>
      <point x="368" y="1180" type="line"/>
      <point x="288" y="1156"/>
      <point x="148" y="1088"/>
      <point x="132" y="916" type="curve" smooth="yes"/>
      <point x="100" y="616"/>
      <point x="340" y="496"/>
      <point x="444" y="448" type="curve" smooth="yes"/>
      <point x="812" y="284" type="line" smooth="yes"/>
      <point x="880" y="252"/>
      <point x="984" y="192"/>
      <point x="984" y="100" type="curve" smooth="yes"/>
      <point x="984" y="12"/>
      <point x="888" y="-24"/>
      <point x="800" y="-28" type="curve" smooth="yes"/>
      <point x="668" y="-36"/>
      <point x="576" y="28"/>
      <point x="576" y="144" type="curve"/>
      <point x="176" y="144" type="line"/>
      <point x="176" y="-196"/>
      <point x="428" y="-412"/>
      <point x="796" y="-412" type="curve" smooth="yes"/>
      <point x="1140" y="-412"/>
      <point x="1388" y="-220"/>
      <point x="1388" y="100" type="curve" smooth="yes"/>
      <point x="1388" y="256"/>
      <point x="1328" y="380"/>
      <point x="1216" y="480" type="curve"/>
      <point x="1220" y="484" type="line"/>
      <point x="1296" y="508"/>
      <point x="1436" y="576"/>
      <point x="1456" y="748" type="curve" smooth="yes"/>
      <point x="1488" y="1048"/>
      <point x="1248" y="1164"/>
      <point x="1144" y="1212" type="curve" smooth="yes"/>
      <point x="776" y="1380" type="line"/>
      <point x="704" y="1408"/>
      <point x="600" y="1472"/>
      <point x="600" y="1564" type="curve" smooth="yes"/>
      <point x="600" y="1660"/>
      <point x="692" y="1692"/>
      <point x="776" y="1692" type="curve" smooth="yes"/>
      <point x="900" y="1692"/>
      <point x="960" y="1624"/>
      <point x="960" y="1536" type="curve"/>
    </contour>
    <contour>
      <point x="1084" y="720" type="curve" smooth="yes"/>
      <point x="1072" y="652"/>
      <point x="1016" y="616"/>
      <point x="960" y="640" type="curve" smooth="yes"/>
      <point x="648" y="776" type="line" smooth="yes"/>
      <point x="536" y="824"/>
      <point x="488" y="884"/>
      <point x="500" y="944" type="curve"/>
      <point x="512" y="1012"/>
      <point x="568" y="1052"/>
      <point x="628" y="1024" type="curve" smooth="yes"/>
      <point x="936" y="888" type="line" smooth="yes"/>
      <point x="1052" y="836"/>
      <point x="1096" y="780"/>
    </contour>
  </outline>
</glyph>
<glyph name="dieresis" format="2">
  <advance width="1272.0"/>
  <unicode hex="00A8"/>
  <guideline x="672.0" y="1892.0" angle="90.0"/>
  <outline>
    <contour>
      <point x="332.0" y="1688.0" type="curve" smooth="yes"/>
      <point x="452.0" y="1688.0"/>
      <point x="548.0" y="1779.0"/>
      <point x="548.0" y="1892.0" type="curve" smooth="yes"/>
      <point x="548.0" y="2005.0"/>
      <point x="452.0" y="2096.0"/>
      <point x="332.0" y="2096.0" type="curve" smooth="yes"/>
      <point x="216.0" y="2096.0"/>
      <point x="120.0" y="2005.0"/>
      <point x="120.0" y="1892.0" type="curve" smooth="yes"/>
      <point x="120.0" y="1779.0"/>
      <point x="216.0" y="1688.0"/>
    </contour>
    <contour>
      <point x="936.0" y="1688.0" type="curve" smooth="yes"/>
      <point x="1056.0" y="1688.0"/>
      <point x="1152.0" y="1779.0"/>
      <point x="1152.0" y="1892.0" type="curve" smooth="yes"/>
      <point x="1152.0" y="2005.0"/>
      <point x="1056.0" y="2096.0"/>
      <point x="936.0" y="2096.0" type="curve" smooth="yes"/>
      <point x="820.0" y="2096.0"/>
      <point x="724.0" y="2005.0"/>
      <point x="724.0" y="1892.0" type="curve" smooth="yes"/>
      <point x="724.0" y="1779.0"/>
      <point x="820.0" y="1688.0"/>
    </contour>
  </outline>
</glyph>
<glyph name="copyright" format="2">
  <advance width="2336.0"/>
  <unicode hex="00A9"/>
  <guideline y="1238.875"/>
  <guideline y="763.125"/>
  <outline>
    <contour>
      <point x="1396.0" y="820.0" type="line"/>
      <point x="1396.0" y="640.0"/>
      <point x="1312.0" y="572.0"/>
      <point x="1148.0" y="572.0" type="curve" smooth="yes"/>
      <point x="972.0" y="572.0"/>
      <point x="884.0" y="716.0"/>
      <point x="884.0" y="920.0" type="curve" smooth="yes"/>
      <point x="884.0" y="1084.0" type="line" smooth="yes"/>
      <point x="884.0" y="1288.0"/>
      <point x="972.0" y="1432.0"/>
      <point x="1148.0" y="1432.0" type="curve" smooth="yes"/>
      <point x="1312.0" y="1432.0"/>
      <point x="1396.0" y="1360.0"/>
      <point x="1396.0" y="1184.0" type="curve"/>
      <point x="1612.0" y="1184.0" type="line"/>
      <point x="1612.0" y="1472.0"/>
      <point x="1432.0" y="1616.0"/>
      <point x="1148.0" y="1616.0" type="curve" smooth="yes"/>
      <point x="856.0" y="1616.0"/>
      <point x="668.0" y="1400.0"/>
      <point x="668.0" y="1084.0" type="curve"/>
      <point x="668.0" y="920.0" type="line"/>
      <point x="668.0" y="604.0"/>
      <point x="856.0" y="388.0"/>
      <point x="1148.0" y="388.0" type="curve" smooth="yes"/>
      <point x="1432.0" y="388.0"/>
      <point x="1612.0" y="532.0"/>
      <point x="1612.0" y="820.0" type="curve"/>
    </contour>
    <contour>
      <point x="360.0" y="1004.0" type="curve"/>
      <point x="360.0" y="1488.0"/>
      <point x="724.0" y="1860.0"/>
      <point x="1168.0" y="1860.0" type="curve" smooth="yes"/>
      <point x="1616.0" y="1860.0"/>
      <point x="1976.0" y="1488.0"/>
      <point x="1976.0" y="1004.0" type="curve" smooth="yes"/>
      <point x="1976.0" y="516.0"/>
      <point x="1616.0" y="144.0"/>
      <point x="1168.0" y="144.0" type="curve" smooth="yes"/>
      <point x="724.0" y="144.0"/>
      <point x="360.0" y="516.0"/>
    </contour>
    <contour>
      <point x="192.0" y="1004.0" type="curve"/>
      <point x="192.0" y="420.0"/>
      <point x="632.0" y="-28.0"/>
      <point x="1168.0" y="-28.0" type="curve" smooth="yes"/>
      <point x="1708.0" y="-28.0"/>
      <point x="2144.0" y="420.0"/>
      <point x="2144.0" y="1004.0" type="curve" smooth="yes"/>
      <point x="2144.0" y="1584.0"/>
      <point x="1708.0" y="2032.0"/>
      <point x="1168.0" y="2032.0" type="curve" smooth="yes"/>
      <point x="632.0" y="2032.0"/>
      <point x="192.0" y="1584.0"/>
    </contour>
  </outline>
</glyph>
<glyph name="ordfeminine" format="2">
  <advance width="1312.0"/>
  <unicode hex="00AA"/>
  <guideline y="2311.375"/>
  <guideline y="1249.875"/>
  <outline>
    <contour>
      <point x="824.0" y="1184.0" type="line"/>
      <point x="824.0" y="1108.0"/>
      <point x="836.0" y="1036.0"/>
      <point x="856.0" y="968.0" type="curve"/>
      <point x="1100.0" y="968.0" type="line"/>
      <point x="1072.0" y="1048.0"/>
      <point x="1064.0" y="1128.0"/>
      <point x="1064.0" y="1220.0" type="curve" smooth="yes"/>
      <point x="1064.0" y="1652.0" type="line"/>
      <point x="1064.0" y="1904.0"/>
      <point x="904.0" y="2032.0"/>
      <point x="664.0" y="2032.0" type="curve" smooth="yes"/>
      <point x="404.0" y="2032.0"/>
      <point x="236.0" y="1896.0"/>
      <point x="236.0" y="1708.0" type="curve"/>
      <point x="476.0" y="1692.0" type="line"/>
      <point x="476.0" y="1780.0"/>
      <point x="544.0" y="1828.0"/>
      <point x="664.0" y="1828.0" type="curve" smooth="yes"/>
      <point x="772.0" y="1828.0"/>
      <point x="824.0" y="1764.0"/>
      <point x="824.0" y="1652.0" type="curve"/>
    </contour>
    <contour>
      <point x="884.0" y="1580.0" type="line"/>
      <point x="684.0" y="1580.0" type="line"/>
      <point x="368.0" y="1580.0"/>
      <point x="216.0" y="1468.0"/>
      <point x="216.0" y="1264.0" type="curve" smooth="yes"/>
      <point x="216.0" y="1076.0"/>
      <point x="336.0" y="952.0"/>
      <point x="556.0" y="952.0" type="curve" smooth="yes"/>
      <point x="744.0" y="952.0"/>
      <point x="848.0" y="1056.0"/>
      <point x="888.0" y="1144.0" type="curve"/>
      <point x="864.0" y="1308.0" type="line"/>
      <point x="864.0" y="1240.0"/>
      <point x="728.0" y="1148.0"/>
      <point x="616.0" y="1148.0" type="curve" smooth="yes"/>
      <point x="504.0" y="1148.0"/>
      <point x="456.0" y="1196.0"/>
      <point x="456.0" y="1268.0" type="curve" smooth="yes"/>
      <point x="456.0" y="1348.0"/>
      <point x="524.0" y="1420.0"/>
      <point x="684.0" y="1420.0" type="curve"/>
      <point x="884.0" y="1420.0" type="line"/>
    </contour>
  </outline>
</glyph>
<glyph name="logicalnot" format="2">
  <advance width="1708.0"/>
  <unicode hex="00AC"/>
  <outline>
    <contour>
      <point x="1460.0" y="1108.0" type="line"/>
      <point x="256.0" y="1108.0" type="line"/>
      <point x="256.0" y="872.0" type="line"/>
      <point x="1460.0" y="872.0" type="line"/>
    </contour>
    <contour>
      <point x="1460.0" y="1000.0" type="line"/>
      <point x="1172.0" y="1000.0" type="line"/>
      <point x="1172.0" y="516.0" type="line"/>
      <point x="1460.0" y="516.0" type="line"/>
    </contour>
  </outline>
</glyph>
<glyph name="registered" format="2">
  <advance width="2336.0"/>
  <unicode hex="00AE"/>
  <outline>
    <contour>
      <point x="1204.0" y="900.0" type="line"/>
      <point x="1256.0" y="900.0"/>
      <point x="1228.0" y="900.0"/>
      <point x="1276.0" y="928.0" type="curve" smooth="yes"/>
      <point x="1284.0" y="928.0"/>
      <point x="1292.0" y="948.0"/>
      <point x="1296.0" y="948.0" type="curve" smooth="yes"/>
      <point x="1488.0" y="1000.0"/>
      <point x="1596.0" y="1092.0"/>
      <point x="1596.0" y="1240.0" type="curve"/>
      <point x="1596.0" y="1476.0"/>
      <point x="1424.0" y="1604.0"/>
      <point x="1148.0" y="1604.0" type="curve"/>
      <point x="764.0" y="1604.0" type="line"/>
      <point x="764.0" y="436.0" type="line"/>
      <point x="972.0" y="436.0" type="line"/>
      <point x="972.0" y="1420.0" type="line"/>
      <point x="1148.0" y="1420.0" type="line"/>
      <point x="1328.0" y="1420.0"/>
      <point x="1392.0" y="1376.0"/>
      <point x="1392.0" y="1244.0" type="curve"/>
      <point x="1392.0" y="1136.0"/>
      <point x="1276.0" y="1084.0"/>
      <point x="1148.0" y="1084.0" type="curve"/>
      <point x="904.0" y="1084.0" type="line"/>
      <point x="908.0" y="900.0" type="line"/>
    </contour>
    <contour>
      <point x="1188.0" y="900.0" type="line"/>
      <point x="1332.0" y="900.0"/>
      <point x="1384.0" y="836.0"/>
      <point x="1384.0" y="708.0" type="curve"/>
      <point x="1384.0" y="632.0" type="line"/>
      <point x="1384.0" y="592.0"/>
      <point x="1384.0" y="480.0"/>
      <point x="1404.0" y="436.0" type="curve"/>
      <point x="1616.0" y="436.0" type="line"/>
      <point x="1616.0" y="456.0" type="line"/>
      <point x="1600.0" y="500.0"/>
      <point x="1592.0" y="564.0"/>
      <point x="1592.0" y="632.0" type="curve"/>
      <point x="1592.0" y="708.0" type="line"/>
      <point x="1592.0" y="908.0"/>
      <point x="1504.0" y="1056.0"/>
      <point x="1216.0" y="1056.0" type="curve"/>
    </contour>
    <contour>
      <point x="360.0" y="1004.0" type="curve" smooth="yes"/>
      <point x="360.0" y="1488.0"/>
      <point x="724.0" y="1860.0"/>
      <point x="1168.0" y="1860.0" type="curve" smooth="yes"/>
      <point x="1616.0" y="1860.0"/>
      <point x="1976.0" y="1488.0"/>
      <point x="1976.0" y="1004.0" type="curve" smooth="yes"/>
      <point x="1976.0" y="516.0"/>
      <point x="1616.0" y="144.0"/>
      <point x="1168.0" y="144.0" type="curve" smooth="yes"/>
      <point x="724.0" y="144.0"/>
      <point x="360.0" y="516.0"/>
    </contour>
    <contour>
      <point x="192.0" y="1004.0" type="curve" smooth="yes"/>
      <point x="192.0" y="420.0"/>
      <point x="632.0" y="-28.0"/>
      <point x="1168.0" y="-28.0" type="curve" smooth="yes"/>
      <point x="1708.0" y="-28.0"/>
      <point x="2144.0" y="420.0"/>
      <point x="2144.0" y="1004.0" type="curve" smooth="yes"/>
      <point x="2144.0" y="1584.0"/>
      <point x="1708.0" y="2032.0"/>
      <point x="1168.0" y="2032.0" type="curve" smooth="yes"/>
      <point x="632.0" y="2032.0"/>
      <point x="192.0" y="1584.0"/>
    </contour>
  </outline>
</glyph>
<glyph name="macron" format="2">
  <advance width="1808.0"/>
  <unicode hex="00AF"/>
  <outline>
    <contour>
      <point x="1404.0" y="2048.0" type="line"/>
      <point x="404.0" y="2048.0" type="line"/>
      <point x="404.0" y="1796.0" type="line"/>
      <point x="1404.0" y="1796.0" type="line"/>
    </contour>
  </outline>
</glyph>
<glyph name="degree" format="2">
  <advance width="1056.0"/>
  <unicode hex="00B0"/>
  <outline>
    <contour>
      <point x="532.0" y="1228.0" type="curve" smooth="yes"/>
      <point x="760.0" y="1228.0"/>
      <point x="944.0" y="1412.0"/>
      <point x="944.0" y="1644.0" type="curve" smooth="yes"/>
      <point x="944.0" y="1876.0"/>
      <point x="760.0" y="2072.0"/>
      <point x="532.0" y="2072.0" type="curve" smooth="yes"/>
      <point x="304.0" y="2072.0"/>
      <point x="108.0" y="1876.0"/>
      <point x="108.0" y="1644.0" type="curve"/>
      <point x="108.0" y="1412.0"/>
      <point x="304.0" y="1228.0"/>
    </contour>
    <contour>
      <point x="532.0" y="1472.0" type="curve" smooth="yes"/>
      <point x="440.0" y="1472.0"/>
      <point x="360.0" y="1548.0"/>
      <point x="360.0" y="1644.0" type="curve"/>
      <point x="360.0" y="1744.0"/>
      <point x="440.0" y="1820.0"/>
      <point x="532.0" y="1820.0" type="curve" smooth="yes"/>
      <point x="624.0" y="1820.0"/>
      <point x="700.0" y="1744.0"/>
      <point x="700.0" y="1644.0" type="curve" smooth="yes"/>
      <point x="700.0" y="1544.0"/>
      <point x="624.0" y="1472.0"/>
    </contour>
  </outline>
</glyph>
<glyph name="plusminus" format="1">
  <advance width="1584"/>
  <unicode hex="00B1"/>
  <outline>
    <contour>
      <point x="1428" y="352" type="line"/>
      <point x="156" y="352" type="line"/>
      <point x="156" y="0" type="line"/>
      <point x="1428" y="0" type="line"/>
    </contour>
    <contour>
      <point x="1432" y="1280" type="line"/>
      <point x="968" y="1280" type="line"/>
      <point x="968" y="1744" type="line"/>
      <point x="616" y="1744" type="line"/>
      <point x="616" y="1280" type="line"/>
      <point x="148" y="1280" type="line"/>
      <point x="148" y="928" type="line"/>
      <point x="616" y="928" type="line"/>
      <point x="616" y="512" type="line"/>
      <point x="968" y="512" type="line"/>
      <point x="968" y="928" type="line"/>
      <point x="1432" y="928" type="line"/>
    </contour>
  </outline>
</glyph>
<glyph name="two.sups" format="2">
  <advance width="1200.0"/>
  <unicode hex="00B2"/>
  <outline>
    <contour>
      <point x="112.0" y="1024.0" type="line"/>
      <point x="1124.0" y="1024.0" type="line"/>
      <point x="1124.0" y="1324.0" type="line"/>
      <point x="640.0" y="1324.0" type="line"/>
      <point x="640.0" y="1336.0" type="line"/>
      <point x="764.0" y="1404.0" type="line" smooth="yes"/>
      <point x="1012.0" y="1540.0"/>
      <point x="1124.0" y="1680.0"/>
      <point x="1124.0" y="1864.0" type="curve" smooth="yes"/>
      <point x="1124.0" y="2088.0"/>
      <point x="924.0" y="2268.0"/>
      <point x="604.0" y="2268.0" type="curve" smooth="yes"/>
      <point x="296.0" y="2268.0"/>
      <point x="76.0" y="2112.0"/>
      <point x="76.0" y="1836.0" type="curve"/>
      <point x="428.0" y="1836.0" type="line"/>
      <point x="428.0" y="1936.0"/>
      <point x="496.0" y="1980.0"/>
      <point x="600.0" y="1980.0" type="curve" smooth="yes"/>
      <point x="696.0" y="1980.0"/>
      <point x="776.0" y="1940.0"/>
      <point x="776.0" y="1860.0" type="curve" smooth="yes"/>
      <point x="776.0" y="1776.0"/>
      <point x="704.0" y="1728.0"/>
      <point x="612.0" y="1660.0" type="curve" smooth="yes"/>
      <point x="112.0" y="1288.0" type="line"/>
    </contour>
  </outline>
</glyph>
<glyph name="three.sups" format="2">
  <advance width="1256.0"/>
  <unicode hex="00B3"/>
  <outline>
    <contour>
      <point x="620.0" y="1008.0" type="curve" smooth="yes"/>
      <point x="952.0" y="1008.0"/>
      <point x="1188.0" y="1164.0"/>
      <point x="1188.0" y="1384.0" type="curve" smooth="yes"/>
      <point x="1188.0" y="1540.0"/>
      <point x="1068.0" y="1640.0"/>
      <point x="856.0" y="1656.0" type="curve"/>
      <point x="856.0" y="1668.0" type="line"/>
      <point x="1012.0" y="1676.0"/>
      <point x="1136.0" y="1768.0"/>
      <point x="1136.0" y="1908.0" type="curve" smooth="yes"/>
      <point x="1136.0" y="2116.0"/>
      <point x="920.0" y="2268.0"/>
      <point x="620.0" y="2268.0" type="curve" smooth="yes"/>
      <point x="312.0" y="2268.0"/>
      <point x="92.0" y="2104.0"/>
      <point x="92.0" y="1872.0" type="curve"/>
      <point x="444.0" y="1872.0" type="line"/>
      <point x="444.0" y="1936.0"/>
      <point x="516.0" y="1988.0"/>
      <point x="620.0" y="1988.0" type="curve" smooth="yes"/>
      <point x="712.0" y="1988.0"/>
      <point x="780.0" y="1940.0"/>
      <point x="780.0" y="1880.0" type="curve" smooth="yes"/>
      <point x="780.0" y="1820.0"/>
      <point x="700.0" y="1772.0"/>
      <point x="592.0" y="1772.0" type="curve" smooth="yes"/>
      <point x="452.0" y="1772.0" type="line"/>
      <point x="452.0" y="1524.0" type="line"/>
      <point x="592.0" y="1524.0" type="line" smooth="yes"/>
      <point x="712.0" y="1524.0"/>
      <point x="796.0" y="1476.0"/>
      <point x="796.0" y="1416.0" type="curve" smooth="yes"/>
      <point x="796.0" y="1352.0"/>
      <point x="720.0" y="1304.0"/>
      <point x="620.0" y="1304.0" type="curve" smooth="yes"/>
      <point x="512.0" y="1304.0"/>
      <point x="436.0" y="1352.0"/>
      <point x="436.0" y="1412.0" type="curve"/>
      <point x="64.0" y="1412.0" type="line"/>
      <point x="64.0" y="1176.0"/>
      <point x="296.0" y="1008.0"/>
    </contour>
  </outline>
</glyph>
<glyph name="acute" format="2">
  <advance width="1228.0"/>
  <unicode hex="00B4"/>
  <outline>
    <contour>
      <point x="184.0" y="1672.0" type="line"/>
      <point x="624.0" y="1672.0" type="line"/>
      <point x="1044.0" y="2112.0" type="line"/>
      <point x="480.0" y="2112.0" type="line"/>
    </contour>
  </outline>
</glyph>
<glyph name="micro" format="2">
  <advance width="1936.0"/>
  <unicode hex="00B5"/>
  <guideline x="1148.0" y="668.0" angle="90.0"/>
  <outline>
    <contour>
      <point x="128.0" y="-544.0" type="line"/>
      <point x="652.0" y="-544.0" type="line"/>
      <point x="652.0" y="212.0" type="line"/>
      <point x="664.0" y="212.0" type="line"/>
      <point x="710.0" y="98.0"/>
      <point x="825.0" y="28.0"/>
      <point x="968.0" y="28.0" type="curve" smooth="yes"/>
      <point x="1109.0" y="28.0"/>
      <point x="1224.0" y="98.0"/>
      <point x="1272.0" y="212.0" type="curve"/>
      <point x="1284.0" y="212.0" type="line"/>
      <point x="1284.0" y="0.0" type="line"/>
      <point x="1808.0" y="0.0" type="line"/>
      <point x="1808.0" y="1536.0" type="line"/>
      <point x="1256.0" y="1536.0" type="line"/>
      <point x="1256.0" y="672.0" type="line" smooth="yes"/>
      <point x="1256.0" y="529.0"/>
      <point x="1137.0" y="428.0"/>
      <point x="968.0" y="428.0" type="curve" smooth="yes"/>
      <point x="799.0" y="428.0"/>
      <point x="680.0" y="529.0"/>
      <point x="680.0" y="672.0" type="curve" smooth="yes"/>
      <point x="680.0" y="1536.0" type="line"/>
      <point x="128.0" y="1536.0" type="line"/>
    </contour>
  </outline>
</glyph>
<glyph name="mu" format="2">
  <advance width="1756.0"/>
  <unicode hex="00B5"/>
  <guideline y="277.75"/>
  <guideline y="752.125"/>
  <outline>
    <contour>
      <point x="1092.0" y="1536.0" type="line"/>
      <point x="1092.0" y="344.0" type="line"/>
      <point x="1120.0" y="0.0" type="line"/>
      <point x="1628.0" y="0.0" type="line"/>
      <point x="1628.0" y="1536.0" type="line"/>
    </contour>
    <contour>
      <point x="1092.0" y="692.0" type="line"/>
      <point x="1092.0" y="548.0"/>
      <point x="1068.0" y="384.0"/>
      <point x="860.0" y="384.0" type="curve" smooth="yes"/>
      <point x="712.0" y="384.0"/>
      <point x="660.0" y="460.0"/>
      <point x="660.0" y="680.0" type="curve"/>
      <point x="376.0" y="680.0" type="line"/>
      <point x="452.0" y="72.0"/>
      <point x="648.0" y="-28.0"/>
      <point x="836.0" y="-28.0" type="curve" smooth="yes"/>
      <point x="1204.0" y="-28.0"/>
      <point x="1376.0" y="296.0"/>
      <point x="1376.0" y="696.0" type="curve"/>
    </contour>
    <contour>
      <point x="128.0" y="1536.0" type="line"/>
      <point x="128.0" y="-572.0" type="line"/>
      <point x="660.0" y="-572.0" type="line"/>
      <point x="660.0" y="1536.0" type="line"/>
    </contour>
  </outline>
</glyph>
<glyph name="paragraph" format="2">
  <advance width="1720.0"/>
  <unicode hex="00B6"/>
  <note>
aka PILCROW SIGN
</note>
  <guideline y="1238.875"/>
  <guideline y="763.125"/>
  <outline>
    <contour>
      <point x="1280.0" y="1648.0" type="line"/>
      <point x="1280.0" y="2048.0" type="line"/>
      <point x="824.0" y="2048.0" type="line" smooth="yes"/>
      <point x="364.0" y="2048.0"/>
      <point x="116.0" y="1772.0"/>
      <point x="116.0" y="1404.0" type="curve" smooth="yes"/>
      <point x="116.0" y="1032.0"/>
      <point x="364.0" y="760.0"/>
      <point x="824.0" y="760.0" type="curve" smooth="yes"/>
      <point x="944.0" y="760.0" type="line"/>
      <point x="944.0" y="1648.0" type="line"/>
    </contour>
    <contour>
      <point x="1192.0" y="0.0" type="line"/>
      <point x="1592.0" y="0.0" type="line"/>
      <point x="1592.0" y="2048.0" type="line"/>
      <point x="1192.0" y="2048.0" type="line"/>
    </contour>
  </outline>
</glyph>
<glyph name="cedilla" format="1">
  <advance width="1072"/>
  <unicode hex="00B8"/>
  <outline>
    <contour>
      <point x="296" y="16" type="line"/>
      <point x="252" y="-188" type="line"/>
      <point x="384" y="-196"/>
      <point x="440" y="-216"/>
      <point x="440" y="-288" type="curve" smooth="yes"/>
      <point x="440" y="-364"/>
      <point x="384" y="-392"/>
      <point x="308" y="-392" type="curve"/>
      <point x="320" y="-648" type="line"/>
      <point x="648" y="-648"/>
      <point x="820" y="-512"/>
      <point x="820" y="-308" type="curve" smooth="yes"/>
      <point x="820" y="-152"/>
      <point x="716" y="-88"/>
      <point x="616" y="-72" type="curve"/>
      <point x="632" y="16" type="line"/>
    </contour>
    <contour>
      <point x="460" y="0" type="move" name="_bottom"/>
    </contour>
    <contour>
      <point x="460" y="-648" type="move" name="mkmkbottom_acc"/>
    </contour>
  </outline>
</glyph>
<glyph name="one.sups" format="2">
  <advance width="924.0"/>
  <unicode hex="00B9"/>
  <outline>
    <contour>
      <point x="736.0" y="2252.0" type="line"/>
      <point x="384.0" y="2252.0" type="line"/>
      <point x="380.0" y="2152.0"/>
      <point x="264.0" y="2044.0"/>
      <point x="84.0" y="2048.0" type="curve"/>
      <point x="84.0" y="1756.0" type="line"/>
      <point x="240.0" y="1752.0"/>
      <point x="332.0" y="1772.0"/>
      <point x="364.0" y="1816.0" type="curve"/>
      <point x="376.0" y="1816.0" type="line"/>
      <point x="376.0" y="1024.0" type="line"/>
      <point x="736.0" y="1024.0" type="line"/>
    </contour>
  </outline>
</glyph>
<glyph name="ordmasculine" format="2">
  <advance width="1432.0"/>
  <unicode hex="00BA"/>
  <guideline x="20.0" y="2716.0" angle="0.0"/>
  <outline>
    <contour>
      <point x="216.0" y="1436.0" type="line"/>
      <point x="216.0" y="1152.0"/>
      <point x="408.0" y="948.0"/>
      <point x="720.0" y="948.0" type="curve" smooth="yes"/>
      <point x="1028.0" y="948.0"/>
      <point x="1216.0" y="1152.0"/>
      <point x="1216.0" y="1436.0" type="curve"/>
      <point x="1216.0" y="1540.0" type="line"/>
      <point x="1216.0" y="1828.0"/>
      <point x="1024.0" y="2032.0"/>
      <point x="716.0" y="2032.0" type="curve" smooth="yes"/>
      <point x="412.0" y="2032.0"/>
      <point x="216.0" y="1828.0"/>
      <point x="216.0" y="1540.0" type="curve"/>
    </contour>
    <contour>
      <point x="468.0" y="1540.0" type="line"/>
      <point x="468.0" y="1700.0"/>
      <point x="552.0" y="1828.0"/>
      <point x="716.0" y="1828.0" type="curve" smooth="yes"/>
      <point x="884.0" y="1828.0"/>
      <point x="964.0" y="1700.0"/>
      <point x="964.0" y="1540.0" type="curve"/>
      <point x="964.0" y="1436.0" type="line"/>
      <point x="964.0" y="1272.0"/>
      <point x="884.0" y="1152.0"/>
      <point x="720.0" y="1152.0" type="curve" smooth="yes"/>
      <point x="552.0" y="1152.0"/>
      <point x="468.0" y="1272.0"/>
      <point x="468.0" y="1436.0" type="curve"/>
    </contour>
  </outline>
</glyph>
<glyph name="AE" format="1">
  <advance width="2744"/>
  <unicode hex="00C6"/>
  <outline>
    <contour>
      <point x="1444" y="1828" type="line"/>
      <point x="1392" y="2048" type="line"/>
      <point x="1112" y="2048" type="line"/>
      <point x="80" y="0" type="line"/>
      <point x="596" y="0" type="line"/>
    </contour>
    <contour>
      <point x="1564" y="756" type="line"/>
      <point x="532" y="756" type="line"/>
      <point x="532" y="384" type="line"/>
      <point x="1564" y="384" type="line"/>
    </contour>
    <contour>
      <point x="2616" y="364" type="line"/>
      <point x="1612" y="364" type="line"/>
      <point x="1612" y="0" type="line"/>
      <point x="2616" y="0" type="line"/>
    </contour>
    <contour>
      <point x="1744" y="2048" type="line"/>
      <point x="1300" y="2048" type="line"/>
      <point x="1384" y="0" type="line"/>
      <point x="1824" y="0" type="line"/>
    </contour>
    <contour>
      <point x="2420" y="1204" type="line"/>
      <point x="1552" y="1204" type="line"/>
      <point x="1552" y="844" type="line"/>
      <point x="2420" y="844" type="line"/>
    </contour>
    <contour>
      <point x="2532" y="2048" type="line"/>
      <point x="1528" y="2048" type="line"/>
      <point x="1528" y="1684" type="line"/>
      <point x="2532" y="1684" type="line"/>
    </contour>
    <contour>
      <point x="1348" y="2216" type="move" name="top"/>
    </contour>
    <contour>
      <point x="2712" y="2200" type="move" name="top_dd"/>
    </contour>
    <contour>
      <point x="2712" y="2216" type="move" name="top0315"/>
    </contour>
  </outline>
</glyph>
<glyph name="AE" format="2">
  <advance width="2848.0"/>
  <unicode hex="00C6"/>
  <outline>
    <contour>
      <point x="72.0" y="0.0" type="line"/>
      <point x="684.0" y="0.0" type="line"/>
      <point x="828.0" y="316.0" type="line"/>
      <point x="1392.0" y="316.0" type="line"/>
      <point x="1404.0" y="0.0" type="line"/>
      <point x="2704.0" y="0.0" type="line"/>
      <point x="2704.0" y="420.0" type="line"/>
      <point x="1908.0" y="420.0" type="line"/>
      <point x="1892.0" y="808.0" type="line"/>
      <point x="2500.0" y="808.0" type="line"/>
      <point x="2500.0" y="1224.0" type="line"/>
      <point x="1876.0" y="1224.0" type="line"/>
      <point x="1860.0" y="1628.0" type="line"/>
      <point x="2616.0" y="1628.0" type="line"/>
      <point x="2616.0" y="2048.0" type="line"/>
      <point x="1100.0" y="2048.0" type="line"/>
    </contour>
    <contour>
      <point x="1024.0" y="752.0" type="line"/>
      <point x="1340.0" y="1456.0" type="line"/>
      <point x="1372.0" y="752.0" type="line"/>
    </contour>
  </outline>
</glyph>
<glyph name="multiply" format="1">
  <advance width="1568"/>
  <unicode hex="00D7"/>
  <outline>
    <contour>
      <point x="392" y="240" type="line"/>
      <point x="1432" y="1300" type="line"/>
      <point x="1176" y="1552" type="line"/>
      <point x="136" y="492" type="line"/>
    </contour>
    <contour>
      <point x="1176" y="240" type="line"/>
      <point x="1432" y="492" type="line"/>
      <point x="392" y="1552" type="line"/>
      <point x="136" y="1300" type="line"/>
    </contour>
  </outline>
</glyph>
<glyph name="Oslash" format="2">
  <advance width="2040.0"/>
  <unicode hex="00D8"/>
  <guideline x="1024.0" y="1588.0" angle="90.0"/>
  <guideline x="1292.0" y="1024.0" angle="0.0"/>
  <guideline x="1024.0" y="1024.0" angle="55.9722"/>
  <outline>
    <contour>
      <point x="424.0" y="-100.0" type="line"/>
      <point x="1848.0" y="2008.0" type="line"/>
      <point x="1648.0" y="2144.0" type="line"/>
      <point x="224.0" y="36.0" type="line"/>
    </contour>
    <component base="O"/>
  </outline>
</glyph>
<glyph name="Oslash" format="1">
  <advance width="2024"/>
  <unicode hex="00D8"/>
  <outline>
    <contour>
      <point x="400" y="-100" type="line"/>
      <point x="1824" y="2008" type="line"/>
      <point x="1624" y="2144" type="line"/>
      <point x="200" y="36" type="line"/>
    </contour>
    <component base="O" xOffset="24"/>
    <contour>
      <point x="996" y="2304" type="move" name="top"/>
    </contour>
    <contour>
      <point x="1948" y="2200" type="move" name="top_dd"/>
    </contour>
    <contour>
      <point x="1948" y="2304" type="move" name="top0315"/>
    </contour>
  </outline>
</glyph>
<glyph name="Thorn" format="2">
  <advance width="1824.0"/>
  <unicode hex="00DE"/>
  <guideline y="1238.875"/>
  <guideline y="763.125"/>
  <outline>
    <contour>
      <point x="144.0" y="2048.0" type="line"/>
      <point x="144.0" y="0.0" type="line"/>
      <point x="608.0" y="0.0" type="line"/>
      <point x="608.0" y="2048.0" type="line"/>
    </contour>
    <contour>
      <point x="360.0" y="1680.0" type="line"/>
      <point x="360.0" y="1324.0" type="line"/>
      <point x="872.0" y="1324.0" type="line" smooth="yes"/>
      <point x="1100.0" y="1324.0"/>
      <point x="1188.0" y="1192.0"/>
      <point x="1188.0" y="1044.0" type="curve" smooth="yes"/>
      <point x="1188.0" y="900.0"/>
      <point x="1100.0" y="772.0"/>
      <point x="872.0" y="772.0" type="curve" smooth="yes"/>
      <point x="360.0" y="772.0" type="line"/>
      <point x="360.0" y="416.0" type="line"/>
      <point x="872.0" y="416.0" type="line" smooth="yes"/>
      <point x="1364.0" y="416.0"/>
      <point x="1632.0" y="680.0"/>
      <point x="1632.0" y="1048.0" type="curve" smooth="yes"/>
      <point x="1632.0" y="1416.0"/>
      <point x="1364.0" y="1680.0"/>
      <point x="872.0" y="1680.0" type="curve" smooth="yes"/>
    </contour>
  </outline>
</glyph>
<glyph name="Thorn" format="1">
  <advance width="1840"/>
  <unicode hex="00DE"/>
  <outline>
    <contour>
      <point x="152" y="2048" type="line"/>
      <point x="152" y="0" type="line"/>
      <point x="616" y="0" type="line"/>
      <point x="616" y="2048" type="line"/>
    </contour>
    <contour>
      <point x="368" y="1680" type="line"/>
      <point x="368" y="1324" type="line"/>
      <point x="880" y="1324" type="line" smooth="yes"/>
      <point x="1108" y="1324"/>
      <point x="1196" y="1192"/>
      <point x="1196" y="1044" type="curve" smooth="yes"/>
      <point x="1196" y="900"/>
      <point x="1108" y="772"/>
      <point x="880" y="772" type="curve" smooth="yes"/>
      <point x="368" y="772" type="line"/>
      <point x="368" y="416" type="line"/>
      <point x="880" y="416" type="line" smooth="yes"/>
      <point x="1372" y="416"/>
      <point x="1640" y="680"/>
      <point x="1640" y="1048" type="curve" smooth="yes"/>
      <point x="1640" y="1416"/>
      <point x="1372" y="1680"/>
      <point x="880" y="1680" type="curve" smooth="yes"/>
    </contour>
  </outline>
</glyph>
<glyph name="germandbls" format="1">
  <advance width="1784"/>
  <unicode hex="00DF"/>
  <outline>
    <contour>
      <point x="596" y="1440" type="line"/>
      <point x="596" y="1636"/>
      <point x="684" y="1700"/>
      <point x="800" y="1700" type="curve" smooth="yes"/>
      <point x="916" y="1700"/>
      <point x="1000" y="1636"/>
      <point x="1000" y="1532" type="curve" smooth="yes"/>
      <point x="1000" y="1372"/>
      <point x="864" y="1292"/>
      <point x="864" y="1088" type="curve" smooth="yes" name="hr01"/>
      <point x="864" y="740"/>
      <point x="1256" y="764"/>
      <point x="1256" y="504" type="curve" smooth="yes" name="hr02"/>
      <point x="1256" y="392"/>
      <point x="1172" y="332"/>
      <point x="1052" y="332" type="curve" smooth="yes"/>
      <point x="920" y="332"/>
      <point x="836" y="364"/>
      <point x="784" y="384" type="curve"/>
      <point x="680" y="44" type="line"/>
      <point x="756" y="0"/>
      <point x="908" y="-28"/>
      <point x="1052" y="-28" type="curve" smooth="yes"/>
      <point x="1508" y="-28"/>
      <point x="1696" y="244"/>
      <point x="1696" y="508" type="curve" smooth="yes"/>
      <point x="1696" y="876"/>
      <point x="1328" y="928"/>
      <point x="1328" y="1112" type="curve" smooth="yes" name="hr03"/>
      <point x="1328" y="1268"/>
      <point x="1440" y="1336"/>
      <point x="1440" y="1552" type="curve" smooth="yes" name="hr04"/>
      <point x="1440" y="1884"/>
      <point x="1176" y="2076"/>
      <point x="800" y="2076" type="curve" smooth="yes"/>
      <point x="400" y="2076"/>
      <point x="152" y="1860"/>
      <point x="152" y="1440" type="curve" smooth="yes"/>
      <point x="152" y="0" type="line"/>
      <point x="596" y="0" type="line"/>
    </contour>
  </outline>
</glyph>
<glyph name="ae" format="2">
  <advance width="2552.0"/>
  <unicode hex="00E6"/>
  <guideline x="8.0" y="1148.0" angle="0.0"/>
  <guideline x="1240.0" y="1700.0" angle="90.0"/>
  <outline>
    <contour>
      <point x="1760.0" y="-28.0" type="curve" smooth="yes"/>
      <point x="2133.0" y="-28.0"/>
      <point x="2416.0" y="176.0"/>
      <point x="2468.0" y="496.0" type="curve"/>
      <point x="1964.0" y="496.0" type="line"/>
      <point x="1932.0" y="409.0"/>
      <point x="1841.0" y="360.0"/>
      <point x="1728.0" y="360.0" type="curve" smooth="yes"/>
      <point x="1564.0" y="360.0"/>
      <point x="1468.0" y="468.0"/>
      <point x="1468.0" y="616.0" type="curve"/>
      <point x="1468.0" y="944.0" type="line"/>
      <point x="1472.0" y="1076.0"/>
      <point x="1580.0" y="1168.0"/>
      <point x="1716.0" y="1168.0" type="curve" smooth="yes"/>
      <point x="1852.0" y="1168.0"/>
      <point x="1956.0" y="1076.0"/>
      <point x="1960.0" y="944.0" type="curve"/>
      <point x="1148.0" y="944.0" type="line"/>
      <point x="1148.0" y="640.0" type="line"/>
      <point x="2468.0" y="640.0" type="line"/>
      <point x="2468.0" y="768.0" type="line" smooth="yes"/>
      <point x="2468.0" y="1257.0"/>
      <point x="2168.0" y="1556.0"/>
      <point x="1704.0" y="1556.0" type="curve" smooth="yes"/>
      <point x="1469.0" y="1556.0"/>
      <point x="1284.0" y="1480.0"/>
      <point x="1140.0" y="1264.0" type="curve"/>
      <point x="1192.0" y="268.0" type="line"/>
      <point x="1288.0" y="64.0"/>
      <point x="1511.0" y="-28.0"/>
    </contour>
    <contour>
      <point x="748.0" y="324.0" type="curve" smooth="yes"/>
      <point x="654.0" y="324.0"/>
      <point x="588.0" y="370.0"/>
      <point x="588.0" y="456.0" type="curve" smooth="yes"/>
      <point x="588.0" y="535.0"/>
      <point x="644.0" y="596.0"/>
      <point x="772.0" y="616.0" type="curve" smooth="yes"/>
      <point x="860.0" y="630.0"/>
      <point x="934.0" y="648.0"/>
      <point x="992.0" y="672.0" type="curve"/>
      <point x="992.0" y="544.0" type="line" smooth="yes"/>
      <point x="992.0" y="404.0"/>
      <point x="873.0" y="324.0"/>
    </contour>
    <contour>
      <point x="608.0" y="-24.0" type="curve" smooth="yes"/>
      <point x="865.0" y="-24.0"/>
      <point x="1108.0" y="60.0"/>
      <point x="1204.0" y="232.0" type="curve"/>
      <point x="1236.0" y="232.0" type="line"/>
      <point x="1260.0" y="1352.0" type="line"/>
      <point x="1192.0" y="1480.0"/>
      <point x="1048.0" y="1556.0"/>
      <point x="844.0" y="1556.0" type="curve" smooth="yes"/>
      <point x="368.0" y="1556.0"/>
      <point x="148.0" y="1316.0"/>
      <point x="128.0" y="1036.0" type="curve"/>
      <point x="636.0" y="1036.0" type="line"/>
      <point x="648.0" y="1132.0"/>
      <point x="720.0" y="1176.0"/>
      <point x="824.0" y="1176.0" type="curve" smooth="yes"/>
      <point x="921.0" y="1176.0"/>
      <point x="988.0" y="1133.0"/>
      <point x="988.0" y="1052.0" type="curve" smooth="yes"/>
      <point x="988.0" y="1048.0" type="line" smooth="yes"/>
      <point x="988.0" y="960.0"/>
      <point x="892.0" y="932.0"/>
      <point x="632.0" y="912.0" type="curve" smooth="yes"/>
      <point x="316.0" y="888.0"/>
      <point x="68.0" y="760.0"/>
      <point x="68.0" y="424.0" type="curve" smooth="yes"/>
      <point x="68.0" y="120.0"/>
      <point x="273.0" y="-24.0"/>
    </contour>
  </outline>
</glyph>
<glyph name="eth" format="1">
  <advance width="1552"/>
  <unicode hex="00F0"/>
  <outline>
    <contour>
      <point x="1220" y="1864" type="line"/>
      <point x="1096" y="2092" type="line"/>
      <point x="260" y="1648" type="line"/>
      <point x="384" y="1420" type="line"/>
    </contour>
    <contour>
      <point x="776" y="-32" type="curve" smooth="yes"/>
      <point x="1180" y="-32"/>
      <point x="1448" y="256"/>
      <point x="1448" y="752" type="curve" smooth="yes"/>
      <point x="1448" y="1452"/>
      <point x="968" y="1944"/>
      <point x="520" y="2176" type="curve"/>
      <point x="316" y="1892" type="line"/>
      <point x="644" y="1696"/>
      <point x="784" y="1572"/>
      <point x="928" y="1336" type="curve"/>
      <point x="908" y="1336" type="line"/>
      <point x="828" y="1428"/>
      <point x="680" y="1444"/>
      <point x="568" y="1420" type="curve" smooth="yes"/>
      <point x="340" y="1368"/>
      <point x="104" y="1116"/>
      <point x="104" y="704" type="curve" smooth="yes"/>
      <point x="104" y="276"/>
      <point x="364" y="-32"/>
    </contour>
    <contour>
      <point x="796" y="324" type="curve" smooth="yes"/>
      <point x="640" y="324"/>
      <point x="540" y="440"/>
      <point x="540" y="708" type="curve" smooth="yes"/>
      <point x="540" y="980"/>
      <point x="644" y="1084"/>
      <point x="796" y="1084" type="curve" smooth="yes"/>
      <point x="948" y="1084"/>
      <point x="1052" y="980"/>
      <point x="1052" y="708" type="curve" smooth="yes"/>
      <point x="1052" y="440"/>
      <point x="952" y="324"/>
    </contour>
  </outline>
</glyph>
<glyph name="divide" format="2">
  <advance width="1568.0"/>
  <unicode hex="00F7"/>
  <guideline x="584.0" y="896.0" angle="0.0"/>
  <outline>
    <contour>
      <point x="1424.0" y="1072.0" type="line"/>
      <point x="144.0" y="1072.0" type="line"/>
      <point x="144.0" y="720.0" type="line"/>
      <point x="1424.0" y="720.0" type="line"/>
    </contour>
    <contour>
      <point x="536.0" y="1448.0" type="curve" smooth="yes"/>
      <point x="536.0" y="1316.0"/>
      <point x="636.0" y="1224.0"/>
      <point x="784.0" y="1224.0" type="curve" smooth="yes"/>
      <point x="932.0" y="1224.0"/>
      <point x="1032.0" y="1316.0"/>
      <point x="1032.0" y="1448.0" type="curve" smooth="yes"/>
      <point x="1032.0" y="1580.0"/>
      <point x="932.0" y="1676.0"/>
      <point x="784.0" y="1676.0" type="curve" smooth="yes"/>
      <point x="636.0" y="1676.0"/>
      <point x="536.0" y="1580.0"/>
    </contour>
    <contour>
      <point x="536.0" y="336.0" type="curve" smooth="yes"/>
      <point x="536.0" y="204.0"/>
      <point x="636.0" y="112.0"/>
      <point x="784.0" y="112.0" type="curve" smooth="yes"/>
      <point x="932.0" y="112.0"/>
      <point x="1032.0" y="204.0"/>
      <point x="1032.0" y="336.0" type="curve" smooth="yes"/>
      <point x="1032.0" y="468.0"/>
      <point x="932.0" y="564.0"/>
      <point x="784.0" y="564.0" type="curve" smooth="yes"/>
      <point x="636.0" y="564.0"/>
      <point x="536.0" y="468.0"/>
    </contour>
  </outline>
</glyph>
<glyph name="oslash" format="1">
  <advance width="1640"/>
  <unicode hex="00F8"/>
  <outline>
    <contour>
      <point x="380" y="-100" type="line"/>
      <point x="1452" y="1488" type="line"/>
      <point x="1252" y="1624" type="line"/>
      <point x="180" y="36" type="line"/>
    </contour>
    <component base="o"/>
    <contour>
      <point x="660" y="1768" type="move" name="top"/>
    </contour>
    <contour>
      <point x="1504" y="2200" type="move" name="top_dd"/>
    </contour>
    <contour>
      <point x="1504" y="1768" type="move" name="top0315"/>
    </contour>
  </outline>
</glyph>
<glyph name="thorn" format="1">
  <advance width="1668"/>
  <unicode hex="00FE"/>
  <outline>
    <contour>
      <point x="152" y="2048" type="line"/>
      <point x="152" y="-576" type="line"/>
      <point x="612" y="-576" type="line"/>
      <point x="612" y="304" type="line"/>
      <point x="444" y="744" type="line"/>
      <point x="612" y="1272" type="line"/>
      <point x="612" y="2048" type="line"/>
    </contour>
    <component base="rightloop.cn" xOffset="-12"/>
  </outline>
</glyph>
<glyph name="dcroat" format="1">
  <advance width="1792"/>
  <unicode hex="0111"/>
  <outline>
    <contour>
      <point x="1020" y="340" type="line"/>
      <point x="1064" y="0" type="line"/>
      <point x="1480" y="0" type="line"/>
      <point x="1480" y="2048" type="line"/>
      <point x="1020" y="2048" type="line"/>
    </contour>
    <contour>
      <point x="1684" y="1868" type="line"/>
      <point x="692" y="1868" type="line"/>
      <point x="692" y="1608" type="line"/>
      <point x="1684" y="1608" type="line"/>
    </contour>
    <component base="leftloop.cn"/>
    <contour>
      <point x="1644" y="2112" type="move" name="caron"/>
    </contour>
    <contour>
      <point x="832" y="0" type="move" name="bottom"/>
    </contour>
    <contour>
      <point x="692" y="2200" type="move" name="top"/>
    </contour>
    <contour>
      <point x="1620" y="2200" type="move" name="top_dd"/>
    </contour>
    <contour>
      <point x="1620" y="-560" type="move" name="bottom_dd"/>
    </contour>
    <contour>
      <point x="832" y="0" type="move" name="markbottom"/>
    </contour>
    <contour>
      <point x="1840" y="2200" type="move" name="top0315"/>
    </contour>
    <contour>
      <point x="1188" y="1804" type="move" name="parenthesses.w2"/>
    </contour>
  </outline>
</glyph>
<glyph name="Hbar" format="2">
  <advance width="2344.0"/>
  <unicode hex="0126"/>
  <outline>
    <contour>
      <point x="2268.0" y="1744.0" type="line"/>
      <point x="76.0" y="1744.0" type="line"/>
      <point x="76.0" y="1480.0" type="line"/>
      <point x="2268.0" y="1480.0" type="line"/>
    </contour>
    <component base="H" xOffset="116.0"/>
  </outline>
</glyph>
<glyph name="Hbar" format="1">
  <advance width="1952"/>
  <unicode hex="0126"/>
  <outline>
    <contour>
      <point x="1960" y="1708" type="line"/>
      <point x="-8" y="1708" type="line"/>
      <point x="-8" y="1460" type="line"/>
      <point x="1960" y="1460" type="line"/>
    </contour>
    <component base="H"/>
    <contour>
      <point x="976" y="2200" type="move" name="top"/>
    </contour>
    <contour>
      <point x="976" y="16" type="move" name="bottom"/>
    </contour>
    <contour>
      <point x="1992" y="2200" type="move" name="top0315"/>
    </contour>
  </outline>
</glyph>
<glyph name="dotlessi" format="1">
  <advance width="796"/>
  <unicode hex="0131"/>
  <outline>
    <contour>
      <point x="628" y="1536" type="line"/>
      <point x="168" y="1536" type="line"/>
      <point x="168" y="0" type="line"/>
      <point x="628" y="0" type="line"/>
    </contour>
    <contour>
      <point x="400" y="1744" type="move" name="top"/>
    </contour>
    <contour>
      <point x="400" y="0" type="move" name="bottom"/>
    </contour>
    <contour>
      <point x="476" y="900" type="move" name="rhotichook"/>
    </contour>
    <contour>
      <point x="784" y="1744" type="move" name="top0315"/>
    </contour>
  </outline>
</glyph>
<glyph name="idotless" format="2">
  <advance width="856.0"/>
  <unicode hex="0131"/>
  <guideline x="388.0" y="1504.0" angle="90.0"/>
  <anchor x="432.0" y="0.0" name="bottom"/>
  <anchor x="424.0" y="840.0" name="cross"/>
  <anchor x="704.0" y="0.0" name="ogonek"/>
  <anchor x="428.0" y="1768.0" name="top"/>
  <anchor x="848.0" y="1724.0" name="top0315"/>
  <outline>
    <contour>
      <point x="152.0" y="0.0" type="line"/>
      <point x="704.0" y="0.0" type="line"/>
      <point x="704.0" y="1536.0" type="line"/>
      <point x="152.0" y="1536.0" type="line"/>
    </contour>
  </outline>
</glyph>
<glyph name="kgreenlandic" format="1">
  <advance width="1840"/>
  <unicode hex="0138"/>
  <outline>
    <contour>
      <point x="624" y="1488" type="line"/>
      <point x="180" y="1488" type="line"/>
      <point x="180" y="0" type="line"/>
      <point x="624" y="0" type="line"/>
    </contour>
    <contour>
      <point x="1644" y="1488" type="line"/>
      <point x="1080" y="1488" type="line"/>
      <point x="748" y="952" type="line"/>
      <point x="508" y="952" type="line"/>
      <point x="560" y="520" type="line"/>
      <point x="980" y="520" type="line"/>
    </contour>
    <contour>
      <point x="1092" y="0" type="line"/>
      <point x="1660" y="0" type="line"/>
      <point x="1144" y="800" type="line"/>
      <point x="744" y="608" type="line"/>
    </contour>
    <contour>
      <point x="840" y="1776" type="move" name="top"/>
    </contour>
    <contour>
      <point x="840" y="16" type="move" name="bottom"/>
    </contour>
    <contour>
      <point x="1708" y="1776" type="move" name="top0315"/>
    </contour>
  </outline>
</glyph>
<glyph name="L_slash" format="1">
  <advance width="1840"/>
  <unicode hex="0141"/>
  <outline>
    <contour>
      <point x="1032" y="1332" type="line"/>
      <point x="108" y="1072" type="line"/>
      <point x="108" y="828" type="line"/>
      <point x="1032" y="1084" type="line"/>
    </contour>
    <component base="L" xOffset="196"/>
    <contour>
      <point x="580" y="2200" type="move" name="top"/>
    </contour>
    <contour>
      <point x="952" y="16" type="move" name="bottom"/>
    </contour>
    <contour>
      <point x="1724" y="2200" type="move" name="top0315"/>
    </contour>
  </outline>
</glyph>
<glyph name="Lslash" format="2">
  <advance width="1692.0"/>
  <unicode hex="0141"/>
  <outline>
    <contour>
      <point x="1032.0" y="1352.0" type="line"/>
      <point x="28.0" y="1092.0" type="line"/>
      <point x="28.0" y="820.0" type="line"/>
      <point x="1032.0" y="1076.0" type="line"/>
    </contour>
    <component base="L" xOffset="144.0"/>
  </outline>
</glyph>
<glyph name="lslash" format="1">
  <advance width="764"/>
  <unicode hex="0142"/>
  <outline>
    <contour>
      <point x="784" y="1344" type="line"/>
      <point x="-28" y="1084" type="line"/>
      <point x="-28" y="836" type="line"/>
      <point x="784" y="1096" type="line"/>
    </contour>
    <component base="l" xOffset="24"/>
    <contour>
      <point x="408" y="2308" type="move" name="top"/>
    </contour>
    <contour>
      <point x="384" y="0" type="move" name="bottom"/>
    </contour>
    <contour>
      <point x="860" y="2308" type="move" name="top0315"/>
    </contour>
  </outline>
</glyph>
<glyph name="Eng" format="2">
  <advance width="2036.0"/>
  <unicode hex="014A"/>
  <outline>
    <contour>
      <point x="1360.0" y="0.0" type="line"/>
      <point x="1360.0" y="-40.0" type="line" smooth="yes"/>
      <point x="1360.0" y="-174.0"/>
      <point x="1193.0" y="-180.0"/>
      <point x="1068.0" y="-180.0" type="curve" smooth="yes"/>
      <point x="1029.0" y="-180.0"/>
      <point x="961.0" y="-178.0"/>
      <point x="924.0" y="-176.0" type="curve"/>
      <point x="924.0" y="-616.0" type="line"/>
      <point x="1013.0" y="-628.0"/>
      <point x="1101.0" y="-628.0"/>
      <point x="1172.0" y="-628.0" type="curve" smooth="yes"/>
      <point x="1469.0" y="-628.0"/>
      <point x="1904.0" y="-540.0"/>
      <point x="1904.0" y="-28.0" type="curve" smooth="yes"/>
      <point x="1904.0" y="0.0" type="line"/>
    </contour>
    <component base="N"/>
  </outline>
</glyph>
<glyph name="Eng" format="1">
  <advance width="1920"/>
  <unicode hex="014A"/>
  <outline>
    <contour>
      <point x="1028" y="2200" type="move" name="top"/>
    </contour>
    <contour>
      <point x="1028" y="0" type="move" name="bottom"/>
    </contour>
    <contour>
      <point x="2020" y="2200" type="move" name="top0315"/>
    </contour>
    <contour>
      <point x="1336" y="124" type="line" name="hr00"/>
      <point x="1336" y="-4" type="line" smooth="yes"/>
      <point x="1336" y="-180"/>
      <point x="1200" y="-232"/>
      <point x="1076" y="-232" type="curve"/>
      <point x="1044" y="-232"/>
      <point x="980" y="-228"/>
      <point x="948" y="-228" type="curve"/>
      <point x="948" y="-600" type="line"/>
      <point x="1020" y="-612"/>
      <point x="1096" y="-612"/>
      <point x="1160" y="-612" type="curve" smooth="yes"/>
      <point x="1504" y="-612"/>
      <point x="1792" y="-432"/>
      <point x="1792" y="-32" type="curve" smooth="yes"/>
      <point x="1792" y="124" type="line"/>
    </contour>
    <component base="N"/>
  </outline>
</glyph>
<glyph name="eng" format="2">
  <advance width="1804.0"/>
  <unicode hex="014B"/>
  <outline>
    <contour>
      <point x="1076.0" y="164.0" type="line"/>
      <point x="1076.0" y="36.0" type="line" smooth="yes"/>
      <point x="1077.0" y="-92.0"/>
      <point x="1025.0" y="-164.0"/>
      <point x="920.0" y="-164.0" type="curve" smooth="yes"/>
      <point x="857.0" y="-164.0"/>
      <point x="809.0" y="-156.0"/>
      <point x="760.0" y="-144.0" type="curve"/>
      <point x="712.0" y="-588.0" type="line"/>
      <point x="805.0" y="-604.0"/>
      <point x="889.0" y="-608.0"/>
      <point x="980.0" y="-608.0" type="curve" smooth="yes"/>
      <point x="1377.0" y="-608.0"/>
      <point x="1629.0" y="-384.0"/>
      <point x="1628.0" y="36.0" type="curve" smooth="yes"/>
      <point x="1628.0" y="164.0" type="line"/>
    </contour>
    <contour>
      <point x="692.0" y="780.0" type="line" smooth="yes"/>
      <point x="693.0" y="940.0"/>
      <point x="693.0" y="1136.0"/>
      <point x="880.0" y="1136.0" type="curve" smooth="yes"/>
      <point x="989.0" y="1136.0"/>
      <point x="1077.0" y="1076.0"/>
      <point x="1076.0" y="936.0" type="curve" smooth="yes"/>
      <point x="1076.0" y="0.0" type="line"/>
      <point x="1628.0" y="0.0" type="line"/>
      <point x="1628.0" y="952.0" type="line" smooth="yes"/>
      <point x="1629.0" y="1416.0"/>
      <point x="1345.0" y="1556.0"/>
      <point x="1080.0" y="1556.0" type="curve" smooth="yes"/>
      <point x="905.0" y="1556.0"/>
      <point x="753.0" y="1500.0"/>
      <point x="660.0" y="1412.0" type="curve"/>
      <point x="644.0" y="1412.0" type="line"/>
      <point x="644.0" y="1536.0" type="line"/>
      <point x="140.0" y="1536.0" type="line"/>
      <point x="140.0" y="0.0" type="line"/>
      <point x="692.0" y="0.0" type="line"/>
    </contour>
  </outline>
</glyph>
<glyph name="OE" format="1">
  <advance width="2864"/>
  <unicode hex="0152"/>
  <outline>
    <contour>
      <point x="1016" y="2048" type="line" smooth="yes"/>
      <point x="508" y="2048"/>
      <point x="160" y="1720"/>
      <point x="160" y="1236" type="curve"/>
      <point x="160" y="816" type="line"/>
      <point x="160" y="332"/>
      <point x="508" y="0"/>
      <point x="1016" y="0" type="curve" smooth="yes"/>
      <point x="1412" y="0" type="line"/>
      <point x="1412" y="360" type="line"/>
      <point x="1016" y="360" type="line" smooth="yes"/>
      <point x="764" y="360"/>
      <point x="604" y="508"/>
      <point x="604" y="816" type="curve"/>
      <point x="604" y="1236" type="line"/>
      <point x="604" y="1544"/>
      <point x="760" y="1688"/>
      <point x="1016" y="1688" type="curve" smooth="yes"/>
      <point x="1412" y="1688" type="line"/>
      <point x="1412" y="2048" type="line"/>
    </contour>
    <component base="E" xOffset="1124"/>
    <contour>
      <point x="1408" y="2200" type="move" name="top"/>
    </contour>
    <contour>
      <point x="1408" y="0" type="move" name="bottom"/>
    </contour>
    <contour>
      <point x="2772" y="2200" type="move" name="top_dd"/>
    </contour>
    <contour>
      <point x="2772" y="-560" type="move" name="bottom_dd"/>
    </contour>
    <contour>
      <point x="2772" y="2200" type="move" name="top0315"/>
    </contour>
  </outline>
</glyph>
<glyph name="OE" format="2">
  <advance width="2952.0"/>
  <unicode hex="0152"/>
  <outline>
    <contour>
      <point x="1060.0" y="0.0" type="curve"/>
      <point x="1564.0" y="0.0" type="line"/>
      <point x="1564.0" y="448.0" type="line"/>
      <point x="1060.0" y="448.0" type="line"/>
      <point x="840.0" y="448.0"/>
      <point x="676.0" y="568.0"/>
      <point x="676.0" y="1020.0" type="curve"/>
      <point x="676.0" y="1468.0"/>
      <point x="840.0" y="1600.0"/>
      <point x="1060.0" y="1600.0" type="curve"/>
      <point x="1564.0" y="1600.0" type="line"/>
      <point x="1564.0" y="2048.0" type="line"/>
      <point x="1060.0" y="2048.0" type="line"/>
      <point x="532.0" y="2048.0"/>
      <point x="112.0" y="1720.0"/>
      <point x="112.0" y="1020.0" type="curve"/>
      <point x="112.0" y="324.0"/>
      <point x="532.0" y="0.0"/>
    </contour>
    <component base="E" xOffset="1224.0"/>
  </outline>
</glyph>
<glyph name="tbar" format="2">
  <advance width="1152.0"/>
  <unicode hex="0167"/>
  <outline>
    <contour>
      <point x="64.0" y="724.0" type="line"/>
      <point x="1048.0" y="724.0" type="line"/>
      <point x="1048.0" y="940.0" type="line"/>
      <point x="64.0" y="940.0" type="line"/>
    </contour>
    <component base="t"/>
  </outline>
</glyph>
<glyph name="longs" format="2">
  <advance width="856.0"/>
  <unicode hex="017F"/>
  <outline>
    <contour>
      <point x="508.0" y="0.0" type="line"/>
      <point x="508.0" y="1596.0" type="line"/>
      <point x="507.0" y="1688.0"/>
      <point x="571.0" y="1728.0"/>
      <point x="688.0" y="1728.0" type="curve" smooth="yes"/>
      <point x="759.0" y="1728.0"/>
      <point x="787.0" y="1724.0"/>
      <point x="836.0" y="1716.0" type="curve"/>
      <point x="868.0" y="2112.0" type="line"/>
      <point x="783.0" y="2128.0"/>
      <point x="703.0" y="2140.0"/>
      <point x="624.0" y="2140.0" type="curve" smooth="yes"/>
      <point x="219.0" y="2140.0"/>
      <point x="-13.0" y="1952.0"/>
      <point x="-12.0" y="1596.0" type="curve"/>
      <point x="-12.0" y="0.0" type="line"/>
    </contour>
  </outline>
</glyph>
<glyph name="Bhook" format="2">
  <advance width="2312.0"/>
  <unicode hex="0181"/>
  <outline>
    <contour>
      <point x="940.0" y="1668.0" type="line"/>
      <point x="940.0" y="2048.0" type="line"/>
      <point x="628.0" y="2048.0" type="line" smooth="yes"/>
      <point x="252.0" y="2048.0"/>
      <point x="16.0" y="1840.0"/>
      <point x="16.0" y="1496.0" type="curve" smooth="yes"/>
      <point x="16.0" y="1284.0" type="line"/>
      <point x="428.0" y="1284.0" type="line"/>
      <point x="428.0" y="1412.0" type="line" smooth="yes"/>
      <point x="428.0" y="1536.0"/>
      <point x="468.0" y="1668.0"/>
      <point x="628.0" y="1668.0" type="curve" smooth="yes"/>
    </contour>
    <component base="B" xOffset="528.0"/>
  </outline>
</glyph>
<glyph name="Bhook" format="1">
  <advance width="2316"/>
  <unicode hex="0181"/>
  <outline>
    <contour>
      <point x="948" y="1668" type="line" name="hr00"/>
      <point x="948" y="2048" type="line"/>
      <point x="636" y="2048" type="line" smooth="yes"/>
      <point x="260" y="2048"/>
      <point x="24" y="1840"/>
      <point x="24" y="1496" type="curve" smooth="yes"/>
      <point x="24" y="1284" type="line"/>
      <point x="436" y="1284" type="line"/>
      <point x="436" y="1412" type="line" smooth="yes"/>
      <point x="436" y="1536"/>
      <point x="476" y="1668"/>
      <point x="636" y="1668" type="curve" smooth="yes"/>
    </contour>
    <component base="B" xOffset="552"/>
  </outline>
</glyph>
<glyph name="btopbar" format="1">
  <advance width="1792"/>
  <unicode hex="0183"/>
  <outline>
    <contour>
      <point x="1244" y="2112" type="line" name="hr00"/>
      <point x="308" y="2112" type="line"/>
      <point x="308" y="1848" type="line"/>
      <point x="1244" y="1848" type="line"/>
    </contour>
    <component base="b"/>
  </outline>
</glyph>
<glyph name="Tonesix" format="2">
  <advance width="2164.0"/>
  <unicode hex="0184"/>
  <outline>
    <contour>
      <point x="888.0" y="2048.0" type="line"/>
      <point x="32.0" y="2048.0" type="line"/>
      <point x="32.0" y="1664.0" type="line"/>
      <point x="888.0" y="1664.0" type="line"/>
    </contour>
    <contour>
      <point x="804.0" y="1312.0" type="line"/>
      <point x="804.0" y="944.0" type="line"/>
      <point x="1248.0" y="944.0" type="line"/>
      <point x="1460.0" y="944.0"/>
      <point x="1576.0" y="824.0"/>
      <point x="1576.0" y="668.0" type="curve"/>
      <point x="1576.0" y="504.0"/>
      <point x="1460.0" y="372.0"/>
      <point x="1248.0" y="372.0" type="curve"/>
      <point x="976.0" y="372.0" type="line"/>
      <point x="976.0" y="2048.0" type="line"/>
      <point x="512.0" y="2048.0" type="line"/>
      <point x="512.0" y="0.0" type="line"/>
      <point x="1248.0" y="0.0" type="line"/>
      <point x="1728.0" y="0.0"/>
      <point x="2036.0" y="272.0"/>
      <point x="2036.0" y="664.0" type="curve"/>
      <point x="2036.0" y="1056.0"/>
      <point x="1728.0" y="1312.0"/>
      <point x="1248.0" y="1312.0" type="curve"/>
    </contour>
  </outline>
</glyph>
<glyph name="Tonesix" format="1">
  <advance width="2096"/>
  <unicode hex="0184"/>
  <outline>
    <contour>
      <point x="420" y="2004" type="line"/>
      <point x="156" y="1776" type="line"/>
      <point x="156" y="1556" type="line"/>
      <point x="420" y="1332" type="line"/>
      <point x="484" y="1332" type="line"/>
      <point x="488" y="2004" type="line"/>
    </contour>
    <component base="afii10046" xOffset="260"/>
  </outline>
</glyph>
<glyph name="tonesix" format="1">
  <advance width="1840"/>
  <unicode hex="0185"/>
  <outline>
    <contour>
      <point x="368" y="2112" type="line"/>
      <point x="104" y="1884" type="line"/>
      <point x="104" y="1664" type="line"/>
      <point x="368" y="1440" type="line"/>
      <point x="436" y="1440" type="line"/>
      <point x="436" y="2112" type="line"/>
    </contour>
    <component base="b" xOffset="228"/>
  </outline>
</glyph>
<glyph name="Chook" format="2">
  <advance width="2232.0"/>
  <unicode hex="0187"/>
  <guideline x="-1571.625"/>
  <outline>
    <contour>
      <point x="1876.0" y="1340.0" type="line"/>
      <point x="1876.0" y="1496.0" type="line" smooth="yes"/>
      <point x="1876.0" y="1696.0"/>
      <point x="2032.0" y="1760.0"/>
      <point x="2156.0" y="1760.0" type="curve"/>
      <point x="2188.0" y="1760.0"/>
      <point x="2252.0" y="1756.0"/>
      <point x="2284.0" y="1756.0" type="curve"/>
      <point x="2284.0" y="2128.0" type="line"/>
      <point x="2208.0" y="2140.0"/>
      <point x="2144.0" y="2140.0"/>
      <point x="2072.0" y="2140.0" type="curve" smooth="yes"/>
      <point x="1728.0" y="2140.0"/>
      <point x="1428.0" y="1936.0"/>
      <point x="1428.0" y="1560.0" type="curve" smooth="yes"/>
      <point x="1428.0" y="1340.0" type="line"/>
    </contour>
    <component base="C"/>
  </outline>
</glyph>
<glyph name="Chook" format="1">
  <advance width="2232"/>
  <unicode hex="0187"/>
  <outline>
    <contour>
      <point x="1876" y="1340" type="line" name="hr00"/>
      <point x="1876" y="1496" type="line" smooth="yes"/>
      <point x="1876" y="1696"/>
      <point x="2032" y="1760"/>
      <point x="2156" y="1760" type="curve"/>
      <point x="2188" y="1760"/>
      <point x="2252" y="1756"/>
      <point x="2284" y="1756" type="curve"/>
      <point x="2284" y="2128" type="line"/>
      <point x="2208" y="2140"/>
      <point x="2144" y="2140"/>
      <point x="2072" y="2140" type="curve" smooth="yes"/>
      <point x="1728" y="2140"/>
      <point x="1428" y="1936"/>
      <point x="1428" y="1560" type="curve" smooth="yes"/>
      <point x="1428" y="1340" type="line"/>
    </contour>
    <component base="C"/>
  </outline>
</glyph>
<glyph name="chook" format="1">
  <advance width="1724"/>
  <unicode hex="0188"/>
  <outline>
    <contour>
      <point x="1484" y="1032" type="line"/>
      <point x="1484" y="1184" type="line" smooth="yes"/>
      <point x="1484" y="1336"/>
      <point x="1544" y="1376"/>
      <point x="1648" y="1376" type="curve" smooth="yes"/>
      <point x="1688" y="1376"/>
      <point x="1720" y="1368"/>
      <point x="1756" y="1364" type="curve"/>
      <point x="1756" y="1660" type="line"/>
      <point x="1692" y="1676"/>
      <point x="1640" y="1684"/>
      <point x="1576" y="1684" type="curve" smooth="yes"/>
      <point x="1284" y="1684"/>
      <point x="1064" y="1508"/>
      <point x="1064" y="1188" type="curve" smooth="yes"/>
      <point x="1064" y="952" type="line"/>
    </contour>
    <component base="c"/>
  </outline>
</glyph>
<glyph name="Dhook" format="2">
  <advance width="2492.0"/>
  <unicode hex="018A"/>
  <outline>
    <contour>
      <point x="940.0" y="1648.0" type="line"/>
      <point x="940.0" y="2048.0" type="line"/>
      <point x="628.0" y="2048.0" type="line" smooth="yes"/>
      <point x="252.0" y="2048.0"/>
      <point x="16.0" y="1840.0"/>
      <point x="16.0" y="1496.0" type="curve" smooth="yes"/>
      <point x="16.0" y="1284.0" type="line"/>
      <point x="428.0" y="1284.0" type="line"/>
      <point x="428.0" y="1412.0" type="line" smooth="yes"/>
      <point x="428.0" y="1536.0"/>
      <point x="468.0" y="1648.0"/>
      <point x="628.0" y="1648.0" type="curve" smooth="yes"/>
    </contour>
    <contour>
      <point x="1400.0" y="0.0" type="line"/>
      <point x="2000.0" y="0.0"/>
      <point x="2372.0" y="384.0"/>
      <point x="2372.0" y="1024.0" type="curve"/>
      <point x="2372.0" y="1664.0"/>
      <point x="2000.0" y="2048.0"/>
      <point x="1400.0" y="2048.0" type="curve"/>
      <point x="868.0" y="2048.0" type="line"/>
      <point x="868.0" y="1648.0" type="line"/>
      <point x="1376.0" y="1648.0" type="line"/>
      <point x="1720.0" y="1648.0"/>
      <point x="1904.0" y="1472.0"/>
      <point x="1904.0" y="1024.0" type="curve"/>
      <point x="1904.0" y="576.0"/>
      <point x="1720.0" y="400.0"/>
      <point x="1380.0" y="400.0" type="curve"/>
      <point x="876.0" y="400.0" type="line"/>
      <point x="876.0" y="0.0" type="line"/>
    </contour>
    <contour>
      <point x="1140.0" y="2048.0" type="line"/>
      <point x="676.0" y="2048.0" type="line"/>
      <point x="676.0" y="0.0" type="line"/>
      <point x="1140.0" y="0.0" type="line"/>
    </contour>
  </outline>
</glyph>
<glyph name="Dhook" format="1">
  <advance width="2440"/>
  <unicode hex="018A"/>
  <outline>
    <contour>
      <point x="948" y="1648" type="line" name="hr00"/>
      <point x="948" y="2048" type="line"/>
      <point x="636" y="2048" type="line" smooth="yes"/>
      <point x="260" y="2048"/>
      <point x="24" y="1840"/>
      <point x="24" y="1496" type="curve" smooth="yes"/>
      <point x="24" y="1284" type="line"/>
      <point x="436" y="1284" type="line"/>
      <point x="436" y="1412" type="line" smooth="yes"/>
      <point x="436" y="1536"/>
      <point x="476" y="1648"/>
      <point x="636" y="1648" type="curve" smooth="yes"/>
    </contour>
    <component base="D" xOffset="556"/>
  </outline>
</glyph>
<glyph name="Dtopbar" format="2">
  <advance width="1932.0"/>
  <unicode hex="018B"/>
  <outline>
    <contour>
      <point x="1780.0" y="0.0" type="line"/>
      <point x="1780.0" y="2064.0" type="line"/>
      <point x="340.0" y="2064.0" type="line"/>
      <point x="340.0" y="1628.0" type="line"/>
      <point x="1244.0" y="1628.0" type="line"/>
      <point x="1244.0" y="1360.0" type="line"/>
      <point x="1016.0" y="1360.0" type="line" smooth="yes"/>
      <point x="500.0" y="1360.0"/>
      <point x="156.0" y="1092.0"/>
      <point x="156.0" y="688.0" type="curve" smooth="yes"/>
      <point x="156.0" y="284.0"/>
      <point x="500.0" y="0.0"/>
      <point x="1016.0" y="0.0" type="curve" smooth="yes"/>
    </contour>
    <contour>
      <point x="1244.0" y="428.0" type="line"/>
      <point x="1016.0" y="428.0" type="line" smooth="yes"/>
      <point x="812.0" y="428.0"/>
      <point x="692.0" y="544.0"/>
      <point x="692.0" y="692.0" type="curve" smooth="yes"/>
      <point x="692.0" y="832.0"/>
      <point x="812.0" y="936.0"/>
      <point x="1016.0" y="936.0" type="curve" smooth="yes"/>
      <point x="1244.0" y="936.0" type="line"/>
    </contour>
  </outline>
</glyph>
<glyph name="Dtopbar" format="1">
  <advance width="1824"/>
  <unicode hex="018B"/>
  <outline>
    <contour>
      <point x="1676" y="0" type="line"/>
      <point x="1676" y="2048" type="line"/>
      <point x="336" y="2048" type="line"/>
      <point x="336" y="1668" type="line"/>
      <point x="1216" y="1668" type="line"/>
      <point x="1216" y="1312" type="line"/>
      <point x="940" y="1312" type="line" smooth="yes"/>
      <point x="460" y="1312"/>
      <point x="152" y="1056"/>
      <point x="152" y="664" type="curve" smooth="yes"/>
      <point x="152" y="272"/>
      <point x="460" y="0"/>
      <point x="940" y="0" type="curve" smooth="yes"/>
    </contour>
    <contour>
      <point x="1216" y="372" type="line"/>
      <point x="940" y="372" type="line" smooth="yes"/>
      <point x="724" y="372"/>
      <point x="612" y="504"/>
      <point x="612" y="668" type="curve" smooth="yes"/>
      <point x="612" y="824"/>
      <point x="724" y="944"/>
      <point x="940" y="944" type="curve" smooth="yes"/>
      <point x="1216" y="944" type="line"/>
    </contour>
  </outline>
</glyph>
<glyph name="dtopbar" format="1">
  <advance width="1584"/>
  <unicode hex="018C"/>
  <outline>
    <contour>
      <point x="1244" y="2048" type="line" name="hr00"/>
      <point x="308" y="2048" type="line"/>
      <point x="308" y="1668" type="line"/>
      <point x="1244" y="1668" type="line"/>
    </contour>
    <component base="d" xOffset="32"/>
  </outline>
</glyph>
<glyph name="deltaturn" format="2">
  <advance width="1824.0"/>
  <unicode hex="018D"/>
  <outline>
    <contour>
      <point x="1460.0" y="-516.0" type="line"/>
      <point x="1460.0" y="-288.0" type="line"/>
      <point x="1380.0" y="-200.0"/>
      <point x="1164.0" y="16.0"/>
      <point x="1052.0" y="112.0" type="curve"/>
      <point x="1072.0" y="112.0"/>
      <point x="1080.0" y="112.0"/>
      <point x="1100.0" y="112.0" type="curve" smooth="yes"/>
      <point x="1392.0" y="168.0"/>
      <point x="1628.0" y="428.0"/>
      <point x="1628.0" y="812.0" type="curve" smooth="yes"/>
      <point x="1628.0" y="840.0" type="line" smooth="yes"/>
      <point x="1628.0" y="1228.0"/>
      <point x="1372.0" y="1516.0"/>
      <point x="912.0" y="1516.0" type="curve" smooth="yes"/>
      <point x="452.0" y="1516.0"/>
      <point x="200.0" y="1204.0"/>
      <point x="200.0" y="784.0" type="curve" smooth="yes"/>
      <point x="200.0" y="756.0" type="line" smooth="yes"/>
      <point x="200.0" y="452.0"/>
      <point x="396.0" y="216.0"/>
      <point x="652.0" y="8.0" type="curve" smooth="yes"/>
      <point x="760.0" y="-80.0"/>
      <point x="832.0" y="-120.0"/>
      <point x="888.0" y="-160.0" type="curve"/>
      <point x="340.0" y="-160.0" type="line"/>
      <point x="340.0" y="-516.0" type="line"/>
    </contour>
    <contour>
      <point x="1184.0" y="756.0" type="line"/>
      <point x="1184.0" y="524.0"/>
      <point x="1116.0" y="336.0"/>
      <point x="912.0" y="336.0" type="curve" smooth="yes"/>
      <point x="888.0" y="336.0"/>
      <point x="868.0" y="336.0"/>
      <point x="848.0" y="344.0" type="curve"/>
      <point x="736.0" y="408.0"/>
      <point x="640.0" y="552.0"/>
      <point x="640.0" y="756.0" type="curve" smooth="yes"/>
      <point x="640.0" y="784.0" type="line" smooth="yes"/>
      <point x="640.0" y="996.0"/>
      <point x="708.0" y="1160.0"/>
      <point x="912.0" y="1160.0" type="curve" smooth="yes"/>
      <point x="1120.0" y="1160.0"/>
      <point x="1184.0" y="996.0"/>
      <point x="1184.0" y="784.0" type="curve" smooth="yes"/>
    </contour>
  </outline>
</glyph>
<glyph name="Eturn" format="1">
  <advance width="1536"/>
  <unicode hex="018E"/>
  <outline>
    <contour>
      <point x="84" y="1632" type="line"/>
      <point x="1148" y="1632" type="line"/>
      <point x="1148" y="2004" type="line"/>
      <point x="84" y="2004" type="line"/>
    </contour>
    <contour>
      <point x="992" y="0" type="line"/>
      <point x="1452" y="0" type="line"/>
      <point x="1452" y="2004" type="line"/>
      <point x="992" y="2004" type="line"/>
    </contour>
    <contour>
      <point x="224" y="796" type="line"/>
      <point x="1148" y="796" type="line"/>
      <point x="1148" y="1156" type="line"/>
      <point x="224" y="1156" type="line"/>
    </contour>
    <contour>
      <point x="84" y="0" type="line"/>
      <point x="1148" y="0" type="line"/>
      <point x="1148" y="372" type="line"/>
      <point x="84" y="372" type="line"/>
    </contour>
  </outline>
</glyph>
<glyph name="Schwa" format="2">
  <advance width="2080.0"/>
  <unicode hex="018F"/>
  <anchor x="1040.0" y="0.0" name="bottom"/>
  <anchor x="1040.0" y="2200.0" name="top"/>
  <anchor x="2036.0" y="2200.0" name="top0315"/>
  <outline>
    <contour>
      <point x="1044.0" y="-28.0" type="curve" smooth="yes"/>
      <point x="1536.0" y="-28.0"/>
      <point x="1912.0" y="344.0"/>
      <point x="1912.0" y="880.0" type="curve" smooth="yes"/>
      <point x="1912.0" y="1116.0" type="line" smooth="yes"/>
      <point x="1912.0" y="1652.0"/>
      <point x="1580.0" y="2032.0"/>
      <point x="948.0" y="2032.0" type="curve" smooth="yes"/>
      <point x="660.0" y="2032.0"/>
      <point x="364.0" y="1960.0"/>
      <point x="304.0" y="1932.0" type="curve"/>
      <point x="372.0" y="1544.0" type="line"/>
      <point x="480.0" y="1576.0"/>
      <point x="668.0" y="1620.0"/>
      <point x="920.0" y="1620.0" type="curve" smooth="yes"/>
      <point x="1324.0" y="1620.0"/>
      <point x="1452.0" y="1392.0"/>
      <point x="1452.0" y="1116.0" type="curve" smooth="yes"/>
      <point x="1452.0" y="880.0" type="line" smooth="yes"/>
      <point x="1452.0" y="604.0"/>
      <point x="1316.0" y="380.0"/>
      <point x="1044.0" y="380.0" type="curve" smooth="yes"/>
      <point x="740.0" y="380.0"/>
      <point x="628.0" y="540.0"/>
      <point x="628.0" y="744.0" type="curve" smooth="yes"/>
      <point x="628.0" y="784.0" type="line"/>
      <point x="1564.0" y="784.0" type="line"/>
      <point x="1564.0" y="1164.0" type="line"/>
      <point x="168.0" y="1164.0" type="line"/>
      <point x="168.0" y="920.0" type="line" smooth="yes"/>
      <point x="168.0" y="340.0"/>
      <point x="472.0" y="-28.0"/>
    </contour>
  </outline>
</glyph>
<glyph name="Epsilon1" format="2">
  <advance width="1824.0"/>
  <unicode hex="0190"/>
  <anchor x="912.0" y="0.0" name="bottom"/>
  <anchor x="912.0" y="2200.0" name="top"/>
  <anchor x="1772.0" y="2200.0" name="top0315"/>
  <outline>
    <contour>
      <point x="1156.0" y="960.0" type="line"/>
      <point x="1156.0" y="1200.0" type="line"/>
      <point x="908.0" y="1200.0" type="line" smooth="yes"/>
      <point x="708.0" y="1200.0"/>
      <point x="632.0" y="1292.0"/>
      <point x="632.0" y="1448.0" type="curve" smooth="yes"/>
      <point x="632.0" y="1568.0"/>
      <point x="720.0" y="1656.0"/>
      <point x="928.0" y="1656.0" type="curve" smooth="yes"/>
      <point x="1088.0" y="1656.0"/>
      <point x="1196.0" y="1596.0"/>
      <point x="1196.0" y="1460.0" type="curve"/>
      <point x="1656.0" y="1460.0" type="line"/>
      <point x="1656.0" y="1816.0"/>
      <point x="1320.0" y="2032.0"/>
      <point x="928.0" y="2032.0" type="curve" smooth="yes"/>
      <point x="476.0" y="2032.0"/>
      <point x="172.0" y="1832.0"/>
      <point x="172.0" y="1460.0" type="curve" smooth="yes"/>
      <point x="172.0" y="1156.0"/>
      <point x="460.0" y="960.0"/>
      <point x="832.0" y="960.0" type="curve"/>
    </contour>
    <contour>
      <point x="832.0" y="1080.0" type="line"/>
      <point x="404.0" y="1080.0"/>
      <point x="140.0" y="896.0"/>
      <point x="140.0" y="560.0" type="curve" smooth="yes"/>
      <point x="140.0" y="156.0"/>
      <point x="464.0" y="-28.0"/>
      <point x="928.0" y="-28.0" type="curve" smooth="yes"/>
      <point x="1296.0" y="-28.0"/>
      <point x="1684.0" y="148.0"/>
      <point x="1684.0" y="556.0" type="curve"/>
      <point x="1224.0" y="556.0" type="line"/>
      <point x="1224.0" y="428.0"/>
      <point x="1112.0" y="344.0"/>
      <point x="928.0" y="344.0" type="curve" smooth="yes"/>
      <point x="736.0" y="344.0"/>
      <point x="604.0" y="408.0"/>
      <point x="604.0" y="572.0" type="curve" smooth="yes"/>
      <point x="604.0" y="772.0"/>
      <point x="704.0" y="844.0"/>
      <point x="908.0" y="844.0" type="curve" smooth="yes"/>
      <point x="1156.0" y="844.0" type="line"/>
      <point x="1156.0" y="1080.0" type="line"/>
    </contour>
  </outline>
</glyph>
